ISO-10303-21;
HEADER;
FILE_DESCRIPTION (( 'STEP AP203' ),
    '1' );
FILE_NAME ('0212201602.STEP',
    '2017-03-30T20:23:52',
    ( '' ),
    ( '' ),
    'SwSTEP 2.0',
    'SolidWorks 2013',
    '' );
FILE_SCHEMA (( 'CONFIG_CONTROL_DESIGN' ));
ENDSEC;

DATA;
#1 = CARTESIAN_POINT ( 'NONE',  ( 0.0000000000000000000, 5.226478494623633800, 0.0000000000000000000 ) ) ;
#2 = AXIS2_PLACEMENT_3D ( 'NONE', #83, #501, #327 ) ;
#3 =( GEOMETRIC_REPRESENTATION_CONTEXT ( 3 ) GLOBAL_UNCERTAINTY_ASSIGNED_CONTEXT ( ( #624 ) ) GLOBAL_UNIT_ASSIGNED_CONTEXT ( ( #348, #358, #405 ) ) REPRESENTATION_CONTEXT ( 'NONE', 'WORKASPACE' ) );
#4 = AXIS2_PLACEMENT_3D ( 'NONE', #938, #914, #483 ) ;
#5 = APPROVAL_STATUS ( 'not_yet_approved' ) ;
#6 = PRODUCT_DEFINITION_FORMATION_WITH_SPECIFIED_SOURCE ( 'ANY', '', #508, .NOT_KNOWN. ) ;
#7 = ORIENTED_EDGE ( 'NONE', *, *, #943, .T. ) ;
#8 = ORIENTED_EDGE ( 'NONE', *, *, #261, .T. ) ;
#9 = CONTEXT_DEPENDENT_SHAPE_REPRESENTATION ( #1053, #349 ) ;
#10 = CIRCLE ( 'NONE', #549, 128.5000000000000000 ) ;
#11 = CARTESIAN_POINT ( 'NONE',  ( 0.0000000000000000000, 30.42647849462363000, 0.0000000000000000000 ) ) ;
#12 = DIRECTION ( 'NONE',  ( 1.000000000000000000, 0.0000000000000000000, 1.224646799147353200E-016 ) ) ;
#13 = ORIENTED_EDGE ( 'NONE', *, *, #339, .F. ) ;
#14 = CIRCLE ( 'NONE', #411, 13.00000000000000200 ) ;
#15 = PERSON ( 'UNSPECIFIED', 'UNSPECIFIED', 'UNSPECIFIED', ('UNSPECIFIED'), ('UNSPECIFIED'), ('UNSPECIFIED') ) ;
#16 = ORIENTED_EDGE ( 'NONE', *, *, #241, .T. ) ;
#17 = DIRECTION ( 'NONE',  ( -0.0000000000000000000, 1.000000000000000000, -0.0000000000000000000 ) ) ;
#18 = APPLICATION_CONTEXT ( 'configuration controlled 3d designs of mechanical parts and assemblies' ) ;
#19 = ORIENTED_EDGE ( 'NONE', *, *, #595, .F. ) ;
#20 = DIRECTION ( 'NONE',  ( -1.000000000000000000, 0.0000000000000000000, 0.0000000000000000000 ) ) ;
#21 = CARTESIAN_POINT ( 'NONE',  ( 0.0000000000000000000, 5.226478494623931300, 0.0000000000000000000 ) ) ;
#22 = EDGE_LOOP ( 'NONE', ( #945, #13, #776, #820 ) ) ;
#23 = CC_DESIGN_APPROVAL ( #361, ( #102 ) ) ;
#24 = SECURITY_CLASSIFICATION ( '', '', #417 ) ;
#25 = CARTESIAN_POINT ( 'NONE',  ( 0.0000000000000000000, 33.62647849462362600, 127.9000000000000200 ) ) ;
#26 = DATE_AND_TIME ( #948, #458 ) ;
#27 = DATE_AND_TIME ( #635, #1005 ) ;
#28 = TOROIDAL_SURFACE ( 'NONE', #1086, 127.8000000000000000, 2.099999999999997900 ) ;
#29 = EDGE_LOOP ( 'NONE', ( #384, #145, #238, #1040 ) ) ;
#30 = DIRECTION ( 'NONE',  ( 0.0000000000000000000, 0.0000000000000000000, 1.000000000000000000 ) ) ;
#31 = CARTESIAN_POINT ( 'NONE',  ( -127.9000000000000200, 35.72647849462362800, 0.0000000000000000000 ) ) ;
#32 = CALENDAR_DATE ( 2017, 30, 3 ) ;
#33 = EDGE_LOOP ( 'NONE', ( #643, #360 ) ) ;
#34 = SECURITY_CLASSIFICATION_LEVEL ( 'unclassified' ) ;
#35 = COORDINATED_UNIVERSAL_TIME_OFFSET ( 1, 0, .AHEAD. ) ;
#36 = CARTESIAN_POINT ( 'NONE',  ( 0.0000000000000000000, 5.226478494623633800, 88.50000000000000000 ) ) ;
#37 = CC_DESIGN_APPROVAL ( #732, ( #336 ) ) ;
#38 = EDGE_LOOP ( 'NONE', ( #288, #1065, #189, #915 ) ) ;
#39 = PERSON_AND_ORGANIZATION_ROLE ( 'creator' ) ;
#40 = ORIENTED_EDGE ( 'NONE', *, *, #985, .T. ) ;
#41 = VECTOR ( 'NONE', #135, 1000.000000000000000 ) ;
#42 = PRODUCT_RELATED_PRODUCT_CATEGORY ( 'detail', '', ( #113 ) ) ;
#43 = CYLINDRICAL_SURFACE ( 'NONE', #390, 127.1977454040929600 ) ;
#44 = ORIENTED_EDGE ( 'NONE', *, *, #1080, .T. ) ;
#45 = DIRECTION ( 'NONE',  ( 0.0000000000000000000, 0.0000000000000000000, 1.000000000000000000 ) ) ;
#46 = PLANE ( 'NONE',  #125 ) ;
#47 = DATE_TIME_ROLE ( 'creation_date' ) ;
#48 = ORIENTED_EDGE ( 'NONE', *, *, #572, .T. ) ;
#49 = DIRECTION ( 'NONE',  ( 0.0000000000000000000, 0.0000000000000000000, 1.000000000000000000 ) ) ;
#50 = EDGE_CURVE ( 'NONE', #949, #400, #937, .T. ) ;
#51 = AXIS2_PLACEMENT_3D ( 'NONE', #1064, #855, #443 ) ;
#52 = CC_DESIGN_PERSON_AND_ORGANIZATION_ASSIGNMENT ( #957, #192, ( #760 ) ) ;
#53 = DATE_AND_TIME ( #32, #823 ) ;
#54 = DIRECTION ( 'NONE',  ( -0.0000000000000000000, 1.000000000000000000, -0.0000000000000000000 ) ) ;
#55 = DIRECTION ( 'NONE',  ( 0.0000000000000000000, 0.0000000000000000000, 1.000000000000000000 ) ) ;
#56 = CIRCLE ( 'NONE', #835, 39.99999999999999300 ) ;
#57 = EDGE_LOOP ( 'NONE', ( #408, #63, #294, #902 ) ) ;
#58 = PLANE ( 'NONE',  #851 ) ;
#59 = VERTEX_POINT ( 'NONE', #669 ) ;
#60 = ADVANCED_FACE ( 'NONE', ( #465, #1052 ), #394, .T. ) ;
#61 = FACE_OUTER_BOUND ( 'NONE', #751, .T. ) ;
#62 = COORDINATED_UNIVERSAL_TIME_OFFSET ( 1, 0, .AHEAD. ) ;
#63 = ORIENTED_EDGE ( 'NONE', *, *, #416, .F. ) ;
#64 = FACE_OUTER_BOUND ( 'NONE', #29, .T. ) ;
#65 = CARTESIAN_POINT ( 'NONE',  ( 0.0000000000000000000, 35.72647849462362800, 0.0000000000000000000 ) ) ;
#66 = ORIENTED_EDGE ( 'NONE', *, *, #985, .F. ) ;
#67 = DIRECTION ( 'NONE',  ( 0.0000000000000000000, 0.0000000000000000000, 1.000000000000000000 ) ) ;
#68 = DIRECTION ( 'NONE',  ( 0.0000000000000000000, 0.0000000000000000000, 1.000000000000000000 ) ) ;
#69 = LINE ( 'NONE', #585, #708 ) ;
#70 = DIRECTION ( 'NONE',  ( 0.0000000000000000000, 0.0000000000000000000, 1.000000000000000000 ) ) ;
#71 = EDGE_CURVE ( 'NONE', #636, #460, #178, .T. ) ;
#72 = ORIENTED_EDGE ( 'NONE', *, *, #1013, .T. ) ;
#73 = CARTESIAN_POINT ( 'NONE',  ( -13.00000000000000200, 0.0000000000000000000, 4.000000000000000000 ) ) ;
#74 = EDGE_LOOP ( 'NONE', ( #701, #378, #811, #742 ) ) ;
#75 = DIRECTION ( 'NONE',  ( 0.0000000000000000000, 0.0000000000000000000, 1.000000000000000000 ) ) ;
#76 = ADVANCED_FACE ( 'NONE', ( #273, #706 ), #46, .T. ) ;
#77 = CC_DESIGN_APPROVAL ( #858, ( #199 ) ) ;
#78 = CARTESIAN_POINT ( 'NONE',  ( 0.0000000000000000000, 39.17540322580644100, 0.0000000000000000000 ) ) ;
#79 = EDGE_CURVE ( 'NONE', #1023, #59, #685, .T. ) ;
#80 = CARTESIAN_POINT ( 'NONE',  ( 0.0000000000000000000, 5.226478494623633800, 0.0000000000000000000 ) ) ;
#81 = DESIGN_CONTEXT ( 'detailed design', #369, 'design' ) ;
#82 = ADVANCED_FACE ( 'NONE', ( #840 ), #1114, .F. ) ;
#83 = CARTESIAN_POINT ( 'NONE',  ( 0.0000000000000000000, 39.17540322580644100, 0.0000000000000000000 ) ) ;
#84 = PERSON_AND_ORGANIZATION ( #15, #801 ) ;
#85 = CIRCLE ( 'NONE', #986, 2.099999999999990800 ) ;
#86 = LOCAL_TIME ( 22, 23, 52.00000000000000000, #35 ) ;
#87 = ORIENTED_EDGE ( 'NONE', *, *, #934, .T. ) ;
#88 = ADVANCED_FACE ( 'NONE', ( #586 ), #1107, .T. ) ;
#89 = CC_DESIGN_PERSON_AND_ORGANIZATION_ASSIGNMENT ( #1069, #1111, ( #343 ) ) ;
#90 = ORIENTED_EDGE ( 'NONE', *, *, #50, .F. ) ;
#91 = CARTESIAN_POINT ( 'NONE',  ( 1.565098609310317600E-014, 33.62647849462362600, -127.8000000000000000 ) ) ;
#92 = VERTEX_POINT ( 'NONE', #173 ) ;
#93 = ITEM_DEFINED_TRANSFORMATION ( 'NONE', 'NONE', #890,  #277 ) ;
#94 = DATE_AND_TIME ( #331, #264 ) ;
#95 = DIRECTION ( 'NONE',  ( -0.0000000000000000000, 1.000000000000000000, -0.0000000000000000000 ) ) ;
#96 = CALENDAR_DATE ( 2017, 30, 3 ) ;
#97 = ORIENTED_EDGE ( 'NONE', *, *, #578, .F. ) ;
#98 =( GEOMETRIC_REPRESENTATION_CONTEXT ( 3 ) GLOBAL_UNCERTAINTY_ASSIGNED_CONTEXT ( ( #881 ) ) GLOBAL_UNIT_ASSIGNED_CONTEXT ( ( #745, #761, #775 ) ) REPRESENTATION_CONTEXT ( 'NONE', 'WORKASPACE' ) );
#99 = PERSON_AND_ORGANIZATION ( #15, #801 ) ;
#100 = ORIENTED_EDGE ( 'NONE', *, *, #768, .F. ) ;
#101 = DIRECTION ( 'NONE',  ( 1.000000000000000000, 0.0000000000000000000, 0.0000000000000000000 ) ) ;
#102 = SECURITY_CLASSIFICATION ( '', '', #509 ) ;
#103 = ORIENTED_EDGE ( 'NONE', *, *, #999, .F. ) ;
#104 = AXIS2_PLACEMENT_3D ( 'NONE', #188, #191, #195 ) ;
#105 = COORDINATED_UNIVERSAL_TIME_OFFSET ( 1, 0, .AHEAD. ) ;
#106 = AXIS2_PLACEMENT_3D ( 'NONE', #335, #480, #884 ) ;
#107 = EDGE_LOOP ( 'NONE', ( #1028, #218, #293, #328 ) ) ;
#108 = CIRCLE ( 'NONE', #453, 2.099999999999990800 ) ;
#109 = PRODUCT ( '0212201601', '0212201601', '', ( #1025 ) ) ;
#110 = CARTESIAN_POINT ( 'NONE',  ( 1.565098609310317900E-014, 35.72647849462362800, -127.8000000000000000 ) ) ;
#111 = CARTESIAN_POINT ( 'NONE',  ( 0.0000000000000000000, 0.0000000000000000000, 4.000000000000000000 ) ) ;
#112 = CYLINDRICAL_SURFACE ( 'NONE', #614, 127.1977454040929600 ) ;
#113 = PRODUCT ( '0212201600', '0212201600', '', ( #983 ) ) ;
#114 = PERSON ( 'NAUO-PER2', 'UNSPECIFIED', 'UNSPECIFIED', ('UNSPECIFIED'), ('UNSPECIFIED'), ('UNSPECIFIED') ) ;
#115 = APPROVAL ( #286, 'UNKNOWN' ) ;
#116 =( REPRESENTATION_RELATIONSHIP ('NONE','NONE', #704, #278 ) REPRESENTATION_RELATIONSHIP_WITH_TRANSFORMATION ( #960 )SHAPE_REPRESENTATION_RELATIONSHIP( ) );
#117 = VERTEX_POINT ( 'NONE', #730 ) ;
#118 = AXIS2_PLACEMENT_3D ( 'NONE', #418, #399, #1017 ) ;
#119 = CARTESIAN_POINT ( 'NONE',  ( 0.0000000000000000000, 33.62647849462362600, 125.7000000000000000 ) ) ;
#120 = ORIENTED_EDGE ( 'NONE', *, *, #649, .F. ) ;
#121 = ORIENTED_EDGE ( 'NONE', *, *, #1077, .F. ) ;
#122 = DIRECTION ( 'NONE',  ( -0.0000000000000000000, 1.000000000000000000, -0.0000000000000000000 ) ) ;
#123 = LOCAL_TIME ( 22, 23, 52.00000000000000000, #105 ) ;
#124 = APPROVAL_ROLE ( '' ) ;
#125 = AXIS2_PLACEMENT_3D ( 'NONE', #31, #476, #569 ) ;
#126 = LOCAL_TIME ( 22, 23, 52.00000000000000000, #334 ) ;
#127 = CARTESIAN_POINT ( 'NONE',  ( 0.0000000000000000000, 39.17540322580644100, 0.0000000000000000000 ) ) ;
#128 = LINE ( 'NONE', #1009, #398 ) ;
#129 = DIRECTION ( 'NONE',  ( 0.0000000000000000000, 0.0000000000000000000, 1.000000000000000000 ) ) ;
#130 = CC_DESIGN_APPROVAL ( #143, ( #425 ) ) ;
#131 = AXIS2_PLACEMENT_3D ( 'NONE', #871, #1093, #821 ) ;
#132 = DIRECTION ( 'NONE',  ( 0.0000000000000000000, 0.0000000000000000000, 1.000000000000000000 ) ) ;
#133 = PLANE ( 'NONE',  #310 ) ;
#134 = DIRECTION ( 'NONE',  ( 0.0000000000000000000, 0.0000000000000000000, 1.000000000000000000 ) ) ;
#135 = DIRECTION ( 'NONE',  ( -0.0000000000000000000, 1.000000000000000000, -0.0000000000000000000 ) ) ;
#136 = ORIENTED_EDGE ( 'NONE', *, *, #427, .F. ) ;
#137 = APPROVAL_DATE_TIME ( #553, #138 ) ;
#138 = APPROVAL ( #698, 'UNKNOWN' ) ;
#139 = APPROVAL_STATUS ( 'not_yet_approved' ) ;
#140 = ORIENTED_EDGE ( 'NONE', *, *, #462, .T. ) ;
#141 = DATE_TIME_ROLE ( 'classification_date' ) ;
#142 = PERSON_AND_ORGANIZATION ( #15, #801 ) ;
#143 = APPROVAL ( #607, 'UNKNOWN' ) ;
#144 = CARTESIAN_POINT ( 'NONE',  ( 0.0000000000000000000, -34.77352150537636500, 0.0000000000000000000 ) ) ;
#145 = ORIENTED_EDGE ( 'NONE', *, *, #388, .T. ) ;
#146 = DIRECTION ( 'NONE',  ( -0.0000000000000000000, 1.000000000000000000, -0.0000000000000000000 ) ) ;
#147 = DIRECTION ( 'NONE',  ( -1.000000000000000000, 0.0000000000000000000, 0.0000000000000000000 ) ) ;
#148 = CARTESIAN_POINT ( 'NONE',  ( 1.557723117678823900E-014, 30.42647849462363000, -127.1977454040929600 ) ) ;
#149 = CIRCLE ( 'NONE', #972, 127.9000000000000200 ) ;
#150 = TOROIDAL_SURFACE ( 'NONE', #848, 88.50000000000000000, 41.50000000000000000 ) ;
#151 = ORIENTED_EDGE ( 'NONE', *, *, #928, .T. ) ;
#152 = DIRECTION ( 'NONE',  ( 0.0000000000000000000, 0.0000000000000000000, 1.000000000000000000 ) ) ;
#153 = CC_DESIGN_SECURITY_CLASSIFICATION ( #24, ( #1120 ) ) ;
#154 = VERTEX_POINT ( 'NONE', #396 ) ;
#155 = DESIGN_CONTEXT ( 'detailed design', #363, 'design' ) ;
#156 = FACE_OUTER_BOUND ( 'NONE', #57, .T. ) ;
#157 = EDGE_CURVE ( 'NONE', #949, #180, #603, .T. ) ;
#158 = CC_DESIGN_DATE_AND_TIME_ASSIGNMENT ( #510, #1042, ( #425 ) ) ;
#159 = APPROVAL ( #921, 'UNSPECIFIED' ) ;
#160 = TOROIDAL_SURFACE ( 'NONE', #978, 88.50000000000001400, 39.99999999999999300 ) ;
#161 = CARTESIAN_POINT ( 'NONE',  ( 0.0000000000000000000, 0.0000000000000000000, 4.000000000000000000 ) ) ;
#162 = VERTEX_POINT ( 'NONE', #559 ) ;
#163 = EDGE_LOOP ( 'NONE', ( #100, #1108 ) ) ;
#164 = EDGE_CURVE ( 'NONE', #981, #460, #1076, .T. ) ;
#165 = CARTESIAN_POINT ( 'NONE',  ( 0.0000000000000000000, 35.72647849462363500, 0.0000000000000000000 ) ) ;
#166 = EDGE_LOOP ( 'NONE', ( #642, #804, #718, #120 ) ) ;
#167 = DIRECTION ( 'NONE',  ( 0.0000000000000000000, 0.0000000000000000000, 1.000000000000000000 ) ) ;
#168 = DIRECTION ( 'NONE',  ( 0.0000000000000000000, 0.0000000000000000000, 1.000000000000000000 ) ) ;
#169 = DIRECTION ( 'NONE',  ( -0.0000000000000000000, -0.0000000000000000000, -1.000000000000000000 ) ) ;
#170 = EDGE_CURVE ( 'NONE', #981, #842, #507, .T. ) ;
#171 = LOCAL_TIME ( 22, 23, 52.00000000000000000, #740 ) ;
#172 = APPROVAL_STATUS ( 'not_yet_approved' ) ;
#173 = CARTESIAN_POINT ( 'NONE',  ( 0.0000000000000000000, 34.22647849462362800, 127.7977454040929500 ) ) ;
#174 = ADVANCED_FACE ( 'NONE', ( #716 ), #693, .F. ) ;
#175 = PLANE ( 'NONE',  #496 ) ;
#176 = DIRECTION ( 'NONE',  ( 0.0000000000000000000, 0.0000000000000000000, 1.000000000000000000 ) ) ;
#177 = VECTOR ( 'NONE', #213, 1000.000000000000000 ) ;
#178 = CIRCLE ( 'NONE', #613, 125.7000000000000000 ) ;
#179 = DIRECTION ( 'NONE',  ( -1.000000000000000000, 0.0000000000000000000, 0.0000000000000000000 ) ) ;
#180 = VERTEX_POINT ( 'NONE', #923 ) ;
#181 = CIRCLE ( 'NONE', #504, 0.5999999999999894300 ) ;
#182 = AXIS2_PLACEMENT_3D ( 'NONE', #758, #12, #700 ) ;
#183 = CIRCLE ( 'NONE', #593, 88.49999999999971600 ) ;
#184 = DIRECTION ( 'NONE',  ( -0.0000000000000000000, 1.000000000000000000, -0.0000000000000000000 ) ) ;
#185 = ITEM_DEFINED_TRANSFORMATION ( 'NONE', 'NONE', #875,  #277 ) ;
#186 = EDGE_CURVE ( 'NONE', #839, #162, #777, .T. ) ;
#187 = ORIENTED_EDGE ( 'NONE', *, *, #462, .F. ) ;
#188 = CARTESIAN_POINT ( 'NONE',  ( 0.0000000000000000000, 33.62647849462362600, 0.0000000000000000000 ) ) ;
#189 = ORIENTED_EDGE ( 'NONE', *, *, #186, .T. ) ;
#190 = EDGE_LOOP ( 'NONE', ( #97, #912, #345, #584 ) ) ;
#191 = DIRECTION ( 'NONE',  ( -0.0000000000000000000, 1.000000000000000000, -0.0000000000000000000 ) ) ;
#192 = PERSON_AND_ORGANIZATION_ROLE ( 'creator' ) ;
#193 = AXIS2_PLACEMENT_3D ( 'NONE', #25, #147, #788 ) ;
#194 = CARTESIAN_POINT ( 'NONE',  ( 0.0000000000000000000, 39.17540322580644100, 0.0000000000000000000 ) ) ;
#195 = DIRECTION ( 'NONE',  ( 0.0000000000000000000, 0.0000000000000000000, 1.000000000000000000 ) ) ;
#196 = DIRECTION ( 'NONE',  ( 0.0000000000000000000, 0.0000000000000000000, 1.000000000000000000 ) ) ;
#197 = PERSON_AND_ORGANIZATION_ROLE ( 'classification_officer' ) ;
#198 = APPROVAL_STATUS ( 'not_yet_approved' ) ;
#199 = SECURITY_CLASSIFICATION ( '', '', #34 ) ;
#200 = ORIENTED_EDGE ( 'NONE', *, *, #1103, .T. ) ;
#201 = FACE_OUTER_BOUND ( 'NONE', #1073, .T. ) ;
#202 = CC_DESIGN_PERSON_AND_ORGANIZATION_ASSIGNMENT ( #600, #444, ( #771 ) ) ;
#203 = APPROVAL_ROLE ( '' ) ;
#204 = PERSON_AND_ORGANIZATION_ROLE ( 'classification_officer' ) ;
#205 = ORIENTED_EDGE ( 'NONE', *, *, #999, .T. ) ;
#206 = CC_DESIGN_APPROVAL ( #159, ( #601 ) ) ;
#207 = DIRECTION ( 'NONE',  ( -0.0000000000000000000, 1.000000000000000000, -0.0000000000000000000 ) ) ;
#208 = CC_DESIGN_PERSON_AND_ORGANIZATION_ASSIGNMENT ( #541, #197, ( #425 ) ) ;
#209 = CARTESIAN_POINT ( 'NONE',  ( 0.0000000000000000000, 39.17540322580644100, 130.0000000000000000 ) ) ;
#210 = AXIS2_PLACEMENT_3D ( 'NONE', #78, #577, #647 ) ;
#211 = DIRECTION ( 'NONE',  ( -0.0000000000000000000, 1.000000000000000000, -0.0000000000000000000 ) ) ;
#212 = PERSON ( 'NAUO-PER4', 'UNSPECIFIED', 'UNSPECIFIED', ('UNSPECIFIED'), ('UNSPECIFIED'), ('UNSPECIFIED') ) ;
#213 = DIRECTION ( 'NONE',  ( -0.0000000000000000000, 1.000000000000000000, -0.0000000000000000000 ) ) ;
#214 = CARTESIAN_POINT ( 'NONE',  ( 1.573671136904348900E-014, 5.226478494623910900, -128.5000000000000000 ) ) ;
#215 = DIRECTION ( 'NONE',  ( -0.0000000000000000000, 1.000000000000000000, -0.0000000000000000000 ) ) ;
#216 = DIRECTION ( 'NONE',  ( 0.0000000000000000000, 0.0000000000000000000, 1.000000000000000000 ) ) ;
#217 = CARTESIAN_POINT ( 'NONE',  ( 1.592040838891559500E-014, 39.17540322580644100, -130.0000000000000000 ) ) ;
#218 = ORIENTED_EDGE ( 'NONE', *, *, #910, .T. ) ;
#219 = CIRCLE ( 'NONE', #1006, 127.8000000000000000 ) ;
#220 = ORIENTED_EDGE ( 'NONE', *, *, #1103, .F. ) ;
#221 = DIRECTION ( 'NONE',  ( 0.0000000000000000000, 0.0000000000000000000, 1.000000000000000000 ) ) ;
#222 = DIRECTION ( 'NONE',  ( 0.0000000000000000000, 0.0000000000000000000, 1.000000000000000000 ) ) ;
#223 = COORDINATED_UNIVERSAL_TIME_OFFSET ( 1, 0, .AHEAD. ) ;
#224 = PERSON_AND_ORGANIZATION ( #15, #801 ) ;
#225 = ORIENTED_EDGE ( 'NONE', *, *, #170, .F. ) ;
#226 = LINE ( 'NONE', #217, #670 ) ;
#227 = LINE ( 'NONE', #359, #947 ) ;
#228 = DIRECTION ( 'NONE',  ( 0.0000000000000000000, 0.0000000000000000000, 1.000000000000000000 ) ) ;
#229 = CARTESIAN_POINT ( 'NONE',  ( 0.0000000000000000000, 33.62647849462362600, 0.0000000000000000000 ) ) ;
#230 = TOROIDAL_SURFACE ( 'NONE', #104, 127.9000000000000200, 0.5999999999999963100 ) ;
#231 = DATE_TIME_ROLE ( 'classification_date' ) ;
#232 = DATE_AND_TIME ( #594, #612 ) ;
#233 = EDGE_CURVE ( 'NONE', #350, #481, #857, .T. ) ;
#234 = AXIS2_PLACEMENT_3D ( 'NONE', #11, #17, #49 ) ;
#235 = CC_DESIGN_PERSON_AND_ORGANIZATION_ASSIGNMENT ( #224, #39, ( #803 ) ) ;
#236 = COORDINATED_UNIVERSAL_TIME_OFFSET ( 1, 0, .AHEAD. ) ;
#237 = LOCAL_TIME ( 22, 23, 52.00000000000000000, #847 ) ;
#238 = ORIENTED_EDGE ( 'NONE', *, *, #157, .F. ) ;
#239 = DIRECTION ( 'NONE',  ( 0.0000000000000000000, 0.0000000000000000000, 1.000000000000000000 ) ) ;
#240 = APPROVAL_DATE_TIME ( #1087, #115 ) ;
#241 = EDGE_CURVE ( 'NONE', #180, #949, #344, .T. ) ;
#242 = PRODUCT_DEFINITION_SHAPE ( 'NONE', 'NONE',  #1118 ) ;
#243 = CALENDAR_DATE ( 2017, 30, 3 ) ;
#244 = EDGE_LOOP ( 'NONE', ( #719, #1002 ) ) ;
#245 = DIRECTION ( 'NONE',  ( -0.0000000000000000000, 1.000000000000000000, -0.0000000000000000000 ) ) ;
#246 = VERTEX_POINT ( 'NONE', #214 ) ;
#247 = ORIENTED_EDGE ( 'NONE', *, *, #1021, .T. ) ;
#248 = FACE_OUTER_BOUND ( 'NONE', #739, .T. ) ;
#249 = FACE_OUTER_BOUND ( 'NONE', #351, .T. ) ;
#250 = PERSON_AND_ORGANIZATION_ROLE ( 'design_owner' ) ;
#251 = DIRECTION ( 'NONE',  ( -0.0000000000000000000, -0.0000000000000000000, -1.000000000000000000 ) ) ;
#252 = DIRECTION ( 'NONE',  ( 0.0000000000000000000, 0.0000000000000000000, 1.000000000000000000 ) ) ;
#253 = ORIENTED_EDGE ( 'NONE', *, *, #1116, .F. ) ;
#254 = COORDINATED_UNIVERSAL_TIME_OFFSET ( 1, 0, .AHEAD. ) ;
#255 = EDGE_CURVE ( 'NONE', #180, #117, #85, .T. ) ;
#256 = AXIS2_PLACEMENT_3D ( 'NONE', #260, #1048, #959 ) ;
#257 = CIRCLE ( 'NONE', #182, 0.5999999999999894300 ) ;
#258 = APPROVAL_ROLE ( '' ) ;
#259 = ORIENTED_EDGE ( 'NONE', *, *, #233, .F. ) ;
#260 = CARTESIAN_POINT ( 'NONE',  ( 0.0000000000000000000, 33.62647849462362600, 0.0000000000000000000 ) ) ;
#261 = EDGE_CURVE ( 'NONE', #460, #636, #269, .T. ) ;
#262 = DIRECTION ( 'NONE',  ( -0.0000000000000000000, 1.000000000000000000, -0.0000000000000000000 ) ) ;
#263 = CARTESIAN_POINT ( 'NONE',  ( 0.0000000000000000000, 33.62647849462362600, 0.0000000000000000000 ) ) ;
#264 = LOCAL_TIME ( 22, 23, 52.00000000000000000, #1088 ) ;
#265 = ADVANCED_FACE ( 'NONE', ( #1020 ), #605, .T. ) ;
#266 = COORDINATED_UNIVERSAL_TIME_OFFSET ( 1, 0, .AHEAD. ) ;
#267 = ADVANCED_FACE ( 'NONE', ( #879, #1044 ), #497, .T. ) ;
#268 = LOCAL_TIME ( 22, 23, 52.00000000000000000, #323 ) ;
#269 = CIRCLE ( 'NONE', #1072, 125.7000000000000000 ) ;
#270 = CC_DESIGN_DATE_AND_TIME_ASSIGNMENT ( #53, #856, ( #199 ) ) ;
#271 = LINE ( 'NONE', #437, #521 ) ;
#272 = ADVANCED_FACE ( 'NONE', ( #772 ), #58, .T. ) ;
#273 = FACE_OUTER_BOUND ( 'NONE', #33, .T. ) ;
#274 = DIRECTION ( 'NONE',  ( 0.0000000000000000000, -1.000000000000000000, 0.0000000000000000000 ) ) ;
#275 = COORDINATED_UNIVERSAL_TIME_OFFSET ( 1, 0, .AHEAD. ) ;
#276 = DIRECTION ( 'NONE',  ( 0.0000000000000000000, 0.0000000000000000000, 1.000000000000000000 ) ) ;
#277 = AXIS2_PLACEMENT_3D ( 'NONE', #414, #428, #457 ) ;
#278 = SHAPE_REPRESENTATION ( '0212201600', ( #277 ), #3 ) ;
#279 = CARTESIAN_POINT ( 'NONE',  ( 0.0000000000000000000, 33.62647849462362600, 0.0000000000000000000 ) ) ;
#280 = ORIENTED_EDGE ( 'NONE', *, *, #71, .F. ) ;
#281 = DIRECTION ( 'NONE',  ( -0.0000000000000000000, 1.000000000000000000, -0.0000000000000000000 ) ) ;
#282 = DIRECTION ( 'NONE',  ( -0.0000000000000000000, 1.000000000000000000, -0.0000000000000000000 ) ) ;
#283 = DIRECTION ( 'NONE',  ( -0.0000000000000000000, 1.000000000000000000, -0.0000000000000000000 ) ) ;
#284 = AXIS2_PLACEMENT_3D ( 'NONE', #391, #968, #822 ) ;
#285 = DIRECTION ( 'NONE',  ( 0.0000000000000000000, 0.0000000000000000000, 1.000000000000000000 ) ) ;
#286 = APPROVAL_STATUS ( 'not_yet_approved' ) ;
#287 = APPROVAL_DATE_TIME ( #232, #1038 ) ;
#288 = ORIENTED_EDGE ( 'NONE', *, *, #754, .F. ) ;
#289 = DIRECTION ( 'NONE',  ( 0.0000000000000000000, 0.0000000000000000000, 1.000000000000000000 ) ) ;
#290 = CC_DESIGN_DATE_AND_TIME_ASSIGNMENT ( #523, #958, ( #760 ) ) ;
#291 = PERSON_AND_ORGANIZATION ( #15, #801 ) ;
#292 = APPROVAL_PERSON_ORGANIZATION ( #520, #784, #124 ) ;
#293 = ORIENTED_EDGE ( 'NONE', *, *, #1018, .T. ) ;
#294 = ORIENTED_EDGE ( 'NONE', *, *, #571, .T. ) ;
#295 = VERTEX_POINT ( 'NONE', #757 ) ;
#296 = SECURITY_CLASSIFICATION_LEVEL ( 'unclassified' ) ;
#297 = CARTESIAN_POINT ( 'NONE',  ( 0.0000000000000000000, 0.0000000000000000000, 0.0000000000000000000 ) ) ;
#298 =( REPRESENTATION_RELATIONSHIP ('NONE','NONE', #704, #454 ) REPRESENTATION_RELATIONSHIP_WITH_TRANSFORMATION ( #564 )SHAPE_REPRESENTATION_RELATIONSHIP( ) );
#299 = CC_DESIGN_PERSON_AND_ORGANIZATION_ASSIGNMENT ( #994, #1003, ( #508 ) ) ;
#300 = CYLINDRICAL_SURFACE ( 'NONE', #2, 125.7000000000000000 ) ;
#301 = CARTESIAN_POINT ( 'NONE',  ( 0.0000000000000000000, 34.22647849462362800, 0.0000000000000000000 ) ) ;
#302 = DIRECTION ( 'NONE',  ( 0.0000000000000000000, 0.0000000000000000000, 1.000000000000000000 ) ) ;
#303 = ORIENTED_EDGE ( 'NONE', *, *, #255, .T. ) ;
#304 = CARTESIAN_POINT ( 'NONE',  ( 0.0000000000000000000, 39.17540322580644100, 0.0000000000000000000 ) ) ;
#305 = FACE_OUTER_BOUND ( 'NONE', #22, .T. ) ;
#306 = DIRECTION ( 'NONE',  ( -0.0000000000000000000, 1.000000000000000000, -0.0000000000000000000 ) ) ;
#307 = EDGE_LOOP ( 'NONE', ( #531, #200 ) ) ;
#308 = FACE_OUTER_BOUND ( 'NONE', #472, .T. ) ;
#309 = DIRECTION ( 'NONE',  ( -0.0000000000000000000, 1.000000000000000000, -0.0000000000000000000 ) ) ;
#310 = AXIS2_PLACEMENT_3D ( 'NONE', #467, #1089, #570 ) ;
#311 = CARTESIAN_POINT ( 'NONE',  ( 0.0000000000000000000, 33.62647849462362600, 127.7977454040929500 ) ) ;
#312 = DIRECTION ( 'NONE',  ( 0.0000000000000000000, 0.0000000000000000000, 1.000000000000000000 ) ) ;
#313 = CARTESIAN_POINT ( 'NONE',  ( 13.00000000000000200, 1.592040838891559300E-015, 4.000000000000000000 ) ) ;
#314 = DIRECTION ( 'NONE',  ( 0.0000000000000000000, 0.0000000000000000000, 1.000000000000000000 ) ) ;
#315 = VECTOR ( 'NONE', #699, 1000.000000000000000 ) ;
#316 = CARTESIAN_POINT ( 'NONE',  ( 0.0000000000000000000, 35.72647849462362800, 0.0000000000000000000 ) ) ;
#317 = CIRCLE ( 'NONE', #965, 13.00000000000000200 ) ;
#318 = APPROVAL_PERSON_ORGANIZATION ( #927, #866, #689 ) ;
#319 = VECTOR ( 'NONE', #992, 1000.000000000000000 ) ;
#320 = CC_DESIGN_PERSON_AND_ORGANIZATION_ASSIGNMENT ( #778, #561, ( #975 ) ) ;
#321 = DIRECTION ( 'NONE',  ( -0.0000000000000000000, 1.000000000000000000, -0.0000000000000000000 ) ) ;
#322 = MANIFOLD_SOLID_BREP ( 'Aufsatz-Linear austragen1', #662 ) ;
#323 = COORDINATED_UNIVERSAL_TIME_OFFSET ( 1, 0, .AHEAD. ) ;
#324 = CARTESIAN_POINT ( 'NONE',  ( 1.566323256109465000E-014, 33.62647849462362600, -127.9000000000000200 ) ) ;
#325 = APPROVAL_STATUS ( 'not_yet_approved' ) ;
#326 = VERTEX_POINT ( 'NONE', #734 ) ;
#327 = DIRECTION ( 'NONE',  ( 0.0000000000000000000, 0.0000000000000000000, 1.000000000000000000 ) ) ;
#328 = ORIENTED_EDGE ( 'NONE', *, *, #261, .F. ) ;
#329 = DIRECTION ( 'NONE',  ( 0.0000000000000000000, 0.0000000000000000000, 1.000000000000000000 ) ) ;
#330 = CARTESIAN_POINT ( 'NONE',  ( 0.0000000000000000000, 5.226478494623910900, 0.0000000000000000000 ) ) ;
#331 = CALENDAR_DATE ( 2017, 30, 3 ) ;
#332 = VERTEX_POINT ( 'NONE', #148 ) ;
#333 = DIRECTION ( 'NONE',  ( 0.0000000000000000000, 0.0000000000000000000, 1.000000000000000000 ) ) ;
#334 = COORDINATED_UNIVERSAL_TIME_OFFSET ( 1, 0, .AHEAD. ) ;
#335 = CARTESIAN_POINT ( 'NONE',  ( 0.0000000000000000000, 33.62647849462362600, 0.0000000000000000000 ) ) ;
#336 = SECURITY_CLASSIFICATION ( '', '', #573 ) ;
#337 = ADVANCED_FACE ( 'NONE', ( #654 ), #746, .F. ) ;
#338 = CARTESIAN_POINT ( 'NONE',  ( 0.0000000000000000000, 33.62647849462362600, 0.0000000000000000000 ) ) ;
#339 = EDGE_CURVE ( 'NONE', #1023, #671, #419, .T. ) ;
#340 = CC_DESIGN_DATE_AND_TIME_ASSIGNMENT ( #26, #47, ( #343 ) ) ;
#341 = VERTEX_POINT ( 'NONE', #609 ) ;
#342 = EDGE_CURVE ( 'NONE', #326, #710, #941, .T. ) ;
#343 = PRODUCT_DEFINITION ( 'UNKNOWN', '', #6, #81 ) ;
#344 = CIRCLE ( 'NONE', #623, 130.0000000000000000 ) ;
#345 = ORIENTED_EDGE ( 'NONE', *, *, #579, .T. ) ;
#346 = CARTESIAN_POINT ( 'NONE',  ( 1.539381026528223100E-014, 30.42647849462363000, -125.7000000000000000 ) ) ;
#347 = CIRCLE ( 'NONE', #582, 125.7000000000000000 ) ;
#348 =( LENGTH_UNIT ( ) NAMED_UNIT ( * ) SI_UNIT ( .MILLI., .METRE. ) );
#349 = PRODUCT_DEFINITION_SHAPE ( 'NONE', 'NONE',  #1121 ) ;
#350 = VERTEX_POINT ( 'NONE', #892 ) ;
#351 = EDGE_LOOP ( 'NONE', ( #247, #368, #103, #767 ) ) ;
#352 = DIRECTION ( 'NONE',  ( -0.0000000000000000000, 1.000000000000000000, -0.0000000000000000000 ) ) ;
#353 = PERSON_AND_ORGANIZATION ( #15, #801 ) ;
#354 = AXIS2_PLACEMENT_3D ( 'NONE', #924, #184, #1033 ) ;
#355 = DIRECTION ( 'NONE',  ( 0.0000000000000000000, 0.0000000000000000000, 1.000000000000000000 ) ) ;
#356 = CIRCLE ( 'NONE', #439, 127.7977454040929800 ) ;
#357 = AXIS2_PLACEMENT_3D ( 'NONE', #769, #282, #239 ) ;
#358 =( NAMED_UNIT ( * ) PLANE_ANGLE_UNIT ( ) SI_UNIT ( $, .RADIAN. ) );
#359 = CARTESIAN_POINT ( 'NONE',  ( 1.573671136904348900E-014, 39.17540322580644100, -128.5000000000000000 ) ) ;
#360 = ORIENTED_EDGE ( 'NONE', *, *, #1116, .T. ) ;
#361 = APPROVAL ( #5, 'UNSPECIFIED' ) ;
#362 = PERSON_AND_ORGANIZATION_ROLE ( 'design_supplier' ) ;
#363 = APPLICATION_CONTEXT ( 'configuration controlled 3d designs of mechanical parts and assemblies' ) ;
#364 = TOROIDAL_SURFACE ( 'NONE', #656, 127.9000000000000200, 0.5999999999999963100 ) ;
#365 = AXIS2_PLACEMENT_3D ( 'NONE', #729, #431, #950 ) ;
#366 = ORIENTED_EDGE ( 'NONE', *, *, #164, .T. ) ;
#367 = DIRECTION ( 'NONE',  ( -0.0000000000000000000, 1.000000000000000000, -0.0000000000000000000 ) ) ;
#368 = ORIENTED_EDGE ( 'NONE', *, *, #595, .T. ) ;
#369 = APPLICATION_CONTEXT ( 'configuration controlled 3d designs of mechanical parts and assemblies' ) ;
#370 = DIRECTION ( 'NONE',  ( -0.0000000000000000000, 1.000000000000000000, -0.0000000000000000000 ) ) ;
#371 = ORIENTED_EDGE ( 'NONE', *, *, #468, .F. ) ;
#372 = CALENDAR_DATE ( 2017, 30, 3 ) ;
#373 = DIRECTION ( 'NONE',  ( 0.0000000000000000000, 0.0000000000000000000, 1.000000000000000000 ) ) ;
#374 = COORDINATED_UNIVERSAL_TIME_OFFSET ( 1, 0, .AHEAD. ) ;
#375 = APPROVAL_DATE_TIME ( #1067, #361 ) ;
#376 = CARTESIAN_POINT ( 'NONE',  ( 1.337926628068481700E-014, -36.27352150537636500, -88.49999999999970200 ) ) ;
#377 = LOCAL_TIME ( 22, 23, 52.00000000000000000, #568 ) ;
#378 = ORIENTED_EDGE ( 'NONE', *, *, #1080, .F. ) ;
#379 = DIRECTION ( 'NONE',  ( 0.0000000000000000000, 0.0000000000000000000, 1.000000000000000000 ) ) ;
#380 = TOROIDAL_SURFACE ( 'NONE', #877, 88.50000000000000000, 41.50000000000000000 ) ;
#381 = CARTESIAN_POINT ( 'NONE',  ( 0.0000000000000000000, 5.226478494623633800, 0.0000000000000000000 ) ) ;
#382 = EDGE_CURVE ( 'NONE', #710, #326, #779, .T. ) ;
#383 = AXIS2_PLACEMENT_3D ( 'NONE', #297, #196, #1050 ) ;
#384 = ORIENTED_EDGE ( 'NONE', *, *, #397, .T. ) ;
#385 = DIRECTION ( 'NONE',  ( -0.0000000000000000000, -0.0000000000000000000, -1.000000000000000000 ) ) ;
#386 = LOCAL_TIME ( 22, 23, 52.00000000000000000, #254 ) ;
#387 = ORIENTED_EDGE ( 'NONE', *, *, #754, .T. ) ;
#388 = EDGE_CURVE ( 'NONE', #295, #180, #226, .T. ) ;
#389 = CARTESIAN_POINT ( 'NONE',  ( 13.00000000000000200, 1.592040838891559300E-015, 4.000000000000000000 ) ) ;
#390 = AXIS2_PLACEMENT_3D ( 'NONE', #781, #922, #833 ) ;
#391 = CARTESIAN_POINT ( 'NONE',  ( 0.0000000000000000000, 0.0000000000000000000, 4.000000000000000000 ) ) ;
#392 = EDGE_LOOP ( 'NONE', ( #489, #87, #387, #1104 ) ) ;
#393 = MANIFOLD_SOLID_BREP ( 'Rotation1', #611 ) ;
#394 = PLANE ( 'NONE',  #529 ) ;
#395 = CARTESIAN_POINT ( 'NONE',  ( 1.565070998473708100E-014, 33.62647849462362600, -127.7977454040929500 ) ) ;
#396 = CARTESIAN_POINT ( 'NONE',  ( 0.0000000000000000000, 35.72647849462362800, 127.8000000000000000 ) ) ;
#397 = EDGE_CURVE ( 'NONE', #412, #295, #1112, .T. ) ;
#398 = VECTOR ( 'NONE', #211, 1000.000000000000000 ) ;
#399 = DIRECTION ( 'NONE',  ( -0.0000000000000000000, 1.000000000000000000, -0.0000000000000000000 ) ) ;
#400 = VERTEX_POINT ( 'NONE', #809 ) ;
#401 = ADVANCED_FACE ( 'NONE', ( #913 ), #511, .T. ) ;
#402 = PRODUCT_RELATED_PRODUCT_CATEGORY ( 'detail', '', ( #508 ) ) ;
#403 = ADVANCED_FACE ( 'NONE', ( #64 ), #562, .T. ) ;
#404 = ADVANCED_FACE ( 'NONE', ( #249 ), #112, .T. ) ;
#405 =( NAMED_UNIT ( * ) SI_UNIT ( $, .STERADIAN. ) SOLID_ANGLE_UNIT ( ) );
#406 = PERSON_AND_ORGANIZATION_ROLE ( 'creator' ) ;
#407 = FACE_OUTER_BOUND ( 'NONE', #744, .T. ) ;
#408 = ORIENTED_EDGE ( 'NONE', *, *, #164, .F. ) ;
#409 = APPROVAL_DATE_TIME ( #836, #784 ) ;
#410 = ADVANCED_FACE ( 'NONE', ( #1062 ), #434, .F. ) ;
#411 = AXIS2_PLACEMENT_3D ( 'NONE', #819, #373, #918 ) ;
#412 = VERTEX_POINT ( 'NONE', #895 ) ;
#413 = EDGE_CURVE ( 'NONE', #341, #246, #1024, .T. ) ;
#414 = CARTESIAN_POINT ( 'NONE',  ( 0.0000000000000000000, 0.0000000000000000000, 0.0000000000000000000 ) ) ;
#415 = ADVANCED_FACE ( 'NONE', ( #305 ), #665, .T. ) ;
#416 = EDGE_CURVE ( 'NONE', #842, #981, #347, .T. ) ;
#417 = SECURITY_CLASSIFICATION_LEVEL ( 'unclassified' ) ;
#418 = CARTESIAN_POINT ( 'NONE',  ( 0.0000000000000000000, 39.17540322580644100, 0.0000000000000000000 ) ) ;
#419 = CIRCLE ( 'NONE', #860, 13.00000000000000200 ) ;
#420 = COORDINATED_UNIVERSAL_TIME_OFFSET ( 1, 0, .AHEAD. ) ;
#421 = CARTESIAN_POINT ( 'NONE',  ( 0.0000000000000000000, 33.62647849462362600, 0.0000000000000000000 ) ) ;
#422 = CARTESIAN_POINT ( 'NONE',  ( 0.0000000000000000000, 34.22647849462363500, 127.8999999999999900 ) ) ;
#423 = DIRECTION ( 'NONE',  ( -0.0000000000000000000, 1.000000000000000000, -0.0000000000000000000 ) ) ;
#424 = AXIS2_PLACEMENT_3D ( 'NONE', #832, #650, #221 ) ;
#425 = SECURITY_CLASSIFICATION ( '', '', #680 ) ;
#426 = COORDINATED_UNIVERSAL_TIME_OFFSET ( 1, 0, .AHEAD. ) ;
#427 = EDGE_CURVE ( 'NONE', #162, #710, #181, .T. ) ;
#428 = DIRECTION ( 'NONE',  ( 0.0000000000000000000, 0.0000000000000000000, 1.000000000000000000 ) ) ;
#429 = APPROVAL_PERSON_ORGANIZATION ( #541, #143, #815 ) ;
#430 = CC_DESIGN_PERSON_AND_ORGANIZATION_ASSIGNMENT ( #513, #530, ( #24 ) ) ;
#431 = DIRECTION ( 'NONE',  ( -0.0000000000000000000, 1.000000000000000000, -0.0000000000000000000 ) ) ;
#432 = EDGE_LOOP ( 'NONE', ( #865, #919 ) ) ;
#433 = CALENDAR_DATE ( 2017, 30, 3 ) ;
#434 = CYLINDRICAL_SURFACE ( 'NONE', #118, 128.5000000000000000 ) ;
#435 = AXIS2_PLACEMENT_3D ( 'NONE', #524, #977, #312 ) ;
#436 = DIRECTION ( 'NONE',  ( -0.0000000000000000000, 1.000000000000000000, -0.0000000000000000000 ) ) ;
#437 = CARTESIAN_POINT ( 'NONE',  ( 0.0000000000000000000, 39.17540322580644100, 125.7000000000000000 ) ) ;
#438 = VERTEX_POINT ( 'NONE', #785 ) ;
#439 = AXIS2_PLACEMENT_3D ( 'NONE', #301, #306, #314 ) ;
#440 = ADVANCED_BREP_SHAPE_REPRESENTATION ( '', ( #393, #277 ), #3 ) ;
#441 = FACE_OUTER_BOUND ( 'NONE', #1105, .T. ) ;
#442 = APPROVAL_PERSON_ORGANIZATION ( #513, #115, #1106 ) ;
#443 = DIRECTION ( 'NONE',  ( 0.0000000000000000000, 0.0000000000000000000, 1.000000000000000000 ) ) ;
#444 = PERSON_AND_ORGANIZATION_ROLE ( 'classification_officer' ) ;
#445 = PERSON_AND_ORGANIZATION_ROLE ( 'classification_officer' ) ;
#446 = CC_DESIGN_PERSON_AND_ORGANIZATION_ASSIGNMENT ( #447, #514, ( #6 ) ) ;
#447 = PERSON_AND_ORGANIZATION ( #15, #801 ) ;
#448 = APPROVAL_PERSON_ORGANIZATION ( #1110, #361, #873 ) ;
#449 = ORIENTED_EDGE ( 'NONE', *, *, #388, .F. ) ;
#450 = FACE_OUTER_BOUND ( 'NONE', #747, .T. ) ;
#451 = APPROVAL_PERSON_ORGANIZATION ( #555, #935, #258 ) ;
#452 = PRODUCT_DEFINITION_SHAPE ( 'NONE', 'NONE',  #1120 ) ;
#453 = AXIS2_PLACEMENT_3D ( 'NONE', #91, #542, #637 ) ;
#454 = SHAPE_REPRESENTATION ( '0212201601', ( #277 ), #817 ) ;
#455 = AXIS2_PLACEMENT_3D ( 'NONE', #127, #423, #30 ) ;
#456 = CARTESIAN_POINT ( 'NONE',  ( 0.0000000000000000000, 0.0000000000000000000, 0.0000000000000000000 ) ) ;
#457 = DIRECTION ( 'NONE',  ( 1.000000000000000000, 0.0000000000000000000, 0.0000000000000000000 ) ) ;
#458 = LOCAL_TIME ( 22, 23, 52.00000000000000000, #426 ) ;
#459 = ORIENTED_EDGE ( 'NONE', *, *, #79, .F. ) ;
#460 = VERTEX_POINT ( 'NONE', #736 ) ;
#461 = ORIENTED_EDGE ( 'NONE', *, *, #427, .T. ) ;
#462 = EDGE_CURVE ( 'NONE', #481, #970, #859, .T. ) ;
#463 = ORIENTED_EDGE ( 'NONE', *, *, #186, .F. ) ;
#464 = SHAPE_REPRESENTATION_RELATIONSHIP ( 'NONE' , 'NONE' ,  #278, #440 ) ;
#465 = FACE_BOUND ( 'NONE', #307, .T. ) ;
#466 = CARTESIAN_POINT ( 'NONE',  ( -13.00000000000000200, 0.0000000000000000000, 4.000000000000000000 ) ) ;
#467 = CARTESIAN_POINT ( 'NONE',  ( -88.49999999999970200, -36.27352150537635800, 0.0000000000000000000 ) ) ;
#468 = EDGE_CURVE ( 'NONE', #1008, #412, #1029, .T. ) ;
#469 = ORGANIZATION ( 'NAUO-ORG2', 'UNSPECIFIED', 'UNSPECIFIED' ) ;
#470 = PRODUCT_DEFINITION_SHAPE ( 'NONE', 'NONE',  #1119 ) ;
#471 = CC_DESIGN_APPROVAL ( #138, ( #771 ) ) ;
#472 = EDGE_LOOP ( 'NONE', ( #463, #40, #964, #136 ) ) ;
#473 = AXIS2_PLACEMENT_3D ( 'NONE', #563, #251, #1083 ) ;
#474 = CC_DESIGN_DATE_AND_TIME_ASSIGNMENT ( #753, #141, ( #102 ) ) ;
#475 = CARTESIAN_POINT ( 'NONE',  ( 0.0000000000000000000, 0.0000000000000000000, 0.0000000000000000000 ) ) ;
#476 = DIRECTION ( 'NONE',  ( -0.0000000000000000000, 1.000000000000000000, 0.0000000000000000000 ) ) ;
#477 = EDGE_CURVE ( 'NONE', #162, #839, #696, .T. ) ;
#478 = LOCAL_TIME ( 22, 23, 52.00000000000000000, #527 ) ;
#479 = DATE_AND_TIME ( #645, #1066 ) ;
#480 = DIRECTION ( 'NONE',  ( -0.0000000000000000000, 1.000000000000000000, -0.0000000000000000000 ) ) ;
#481 = VERTEX_POINT ( 'NONE', #735 ) ;
#482 = AXIS2_PLACEMENT_3D ( 'NONE', #65, #122, #134 ) ;
#483 = DIRECTION ( 'NONE',  ( 0.0000000000000000000, 0.0000000000000000000, 1.000000000000000000 ) ) ;
#484 = ORIENTED_EDGE ( 'NONE', *, *, #342, .F. ) ;
#485 = CC_DESIGN_APPROVAL ( #1038, ( #6 ) ) ;
#486 = ADVANCED_FACE ( 'NONE', ( #925 ), #380, .T. ) ;
#487 = ADVANCED_FACE ( 'NONE', ( #1079 ), #766, .F. ) ;
#488 =( LENGTH_UNIT ( ) NAMED_UNIT ( * ) SI_UNIT ( .MILLI., .METRE. ) );
#489 = ORIENTED_EDGE ( 'NONE', *, *, #901, .F. ) ;
#490 = DATE_AND_TIME ( #679, #237 ) ;
#491 = FACE_OUTER_BOUND ( 'NONE', #1096, .T. ) ;
#492 = ORIENTED_EDGE ( 'NONE', *, *, #382, .T. ) ;
#493 = PRODUCT_DEFINITION_SHAPE ( 'NONE', 'NONE',  #343 ) ;
#494 = DIRECTION ( 'NONE',  ( 1.000000000000000000, 0.0000000000000000000, -0.0000000000000000000 ) ) ;
#495 = ADVANCED_FACE ( 'NONE', ( #677 ), #682, .F. ) ;
#496 = AXIS2_PLACEMENT_3D ( 'NONE', #717, #1037, #70 ) ;
#497 = PLANE ( 'NONE',  #827 ) ;
#498 = LOCAL_TIME ( 22, 23, 52.00000000000000000, #538 ) ;
#499 = EDGE_CURVE ( 'NONE', #844, #341, #56, .T. ) ;
#500 = DIRECTION ( 'NONE',  ( 0.0000000000000000000, 0.0000000000000000000, 1.000000000000000000 ) ) ;
#501 = DIRECTION ( 'NONE',  ( -0.0000000000000000000, 1.000000000000000000, -0.0000000000000000000 ) ) ;
#502 = APPROVAL_PERSON_ORGANIZATION ( #917, #159, #633 ) ;
#503 = ADVANCED_FACE ( 'NONE', ( #308 ), #364, .F. ) ;
#504 = AXIS2_PLACEMENT_3D ( 'NONE', #639, #961, #598 ) ;
#505 =( NAMED_UNIT ( * ) PLANE_ANGLE_UNIT ( ) SI_UNIT ( $, .RADIAN. ) );
#506 = DIRECTION ( 'NONE',  ( 1.000000000000000000, 0.0000000000000000000, 1.224646799147353200E-016 ) ) ;
#507 = CIRCLE ( 'NONE', #596, 125.7000000000000000 ) ;
#508 = PRODUCT ( '0212201602', '0212201602', '', ( #967 ) ) ;
#509 = SECURITY_CLASSIFICATION_LEVEL ( 'unclassified' ) ;
#510 = DATE_AND_TIME ( #861, #171 ) ;
#511 = TOROIDAL_SURFACE ( 'NONE', #256, 127.9000000000000200, 2.099999999999997900 ) ;
#512 = CARTESIAN_POINT ( 'NONE',  ( 0.0000000000000000000, 33.62647849462362600, 130.0000000000000000 ) ) ;
#513 = PERSON_AND_ORGANIZATION ( #723, #714 ) ;
#514 = PERSON_AND_ORGANIZATION_ROLE ( 'design_supplier' ) ;
#515 = AXIS2_PLACEMENT_3D ( 'NONE', #1098, #1027, #882 ) ;
#516 = DIRECTION ( 'NONE',  ( -0.0000000000000000000, 1.000000000000000000, -0.0000000000000000000 ) ) ;
#517 = CALENDAR_DATE ( 2017, 30, 3 ) ;
#518 = CONTEXT_DEPENDENT_SHAPE_REPRESENTATION ( #298, #452 ) ;
#519 = AXIS2_PLACEMENT_3D ( 'NONE', #475, #797, #808 ) ;
#520 = PERSON_AND_ORGANIZATION ( #15, #801 ) ;
#521 = VECTOR ( 'NONE', #862, 1000.000000000000000 ) ;
#522 = COORDINATED_UNIVERSAL_TIME_OFFSET ( 1, 0, .AHEAD. ) ;
#523 = DATE_AND_TIME ( #1016, #973 ) ;
#524 = CARTESIAN_POINT ( 'NONE',  ( 0.0000000000000000000, 5.226478494623931300, 0.0000000000000000000 ) ) ;
#525 = CALENDAR_DATE ( 2017, 30, 3 ) ;
#526 = VERTEX_POINT ( 'NONE', #984 ) ;
#527 = COORDINATED_UNIVERSAL_TIME_OFFSET ( 1, 0, .AHEAD. ) ;
#528 = CARTESIAN_POINT ( 'NONE',  ( 1.573671136904349200E-014, 33.62647849462362600, -128.5000000000000000 ) ) ;
#529 = AXIS2_PLACEMENT_3D ( 'NONE', #966, #695, #762 ) ;
#530 = PERSON_AND_ORGANIZATION_ROLE ( 'classification_officer' ) ;
#531 = ORIENTED_EDGE ( 'NONE', *, *, #990, .T. ) ;
#532 = DIRECTION ( 'NONE',  ( 0.0000000000000000000, 0.0000000000000000000, 1.000000000000000000 ) ) ;
#533 = CC_DESIGN_DATE_AND_TIME_ASSIGNMENT ( #709, #773, ( #336 ) ) ;
#534 = EDGE_LOOP ( 'NONE', ( #838, #484 ) ) ;
#535 = APPLICATION_CONTEXT ( 'configuration controlled 3d designs of mechanical parts and assemblies' ) ;
#536 = AXIS2_PLACEMENT_3D ( 'NONE', #304, #1047, #75 ) ;
#537 = ADVANCED_BREP_SHAPE_REPRESENTATION ( '', ( #322, #277 ), #817 ) ;
#538 = COORDINATED_UNIVERSAL_TIME_OFFSET ( 1, 0, .AHEAD. ) ;
#539 = AXIS2_PLACEMENT_3D ( 'NONE', #841, #95, #45 ) ;
#540 = CC_DESIGN_APPROVAL ( #894, ( #803 ) ) ;
#541 = PERSON_AND_ORGANIZATION ( #212, #1099 ) ;
#542 = DIRECTION ( 'NONE',  ( 1.000000000000000000, 0.0000000000000000000, 1.224646799147353200E-016 ) ) ;
#543 = CARTESIAN_POINT ( 'NONE',  ( 1.328741777074876500E-014, -34.77352150537636500, -88.49999999999971600 ) ) ;
#544 = CC_DESIGN_SECURITY_CLASSIFICATION ( #425, ( #1121 ) ) ;
#545 = DIRECTION ( 'NONE',  ( 0.0000000000000000000, 0.0000000000000000000, 1.000000000000000000 ) ) ;
#546 = CYLINDRICAL_SURFACE ( 'NONE', #1041, 13.00000000000000200 ) ;
#547 = CC_DESIGN_APPROVAL ( #818, ( #343 ) ) ;
#548 = ORIENTED_EDGE ( 'NONE', *, *, #339, .T. ) ;
#549 = AXIS2_PLACEMENT_3D ( 'NONE', #1100, #367, #837 ) ;
#550 = CALENDAR_DATE ( 2017, 30, 3 ) ;
#551 =( NAMED_UNIT ( * ) SI_UNIT ( $, .STERADIAN. ) SOLID_ANGLE_UNIT ( ) );
#552 = CARTESIAN_POINT ( 'NONE',  ( -127.1977454040929600, 30.42647849462363000, 0.0000000000000000000 ) ) ;
#553 = DATE_AND_TIME ( #525, #386 ) ;
#554 = CARTESIAN_POINT ( 'NONE',  ( 0.0000000000000000000, -36.27352150537636500, 88.49999999999970200 ) ) ;
#555 = PERSON_AND_ORGANIZATION ( #15, #801 ) ;
#556 = FACE_OUTER_BOUND ( 'NONE', #392, .T. ) ;
#557 = PERSON_AND_ORGANIZATION_ROLE ( 'design_supplier' ) ;
#558 = CARTESIAN_POINT ( 'NONE',  ( 0.0000000000000000000, 33.62647849462362600, 0.0000000000000000000 ) ) ;
#559 = CARTESIAN_POINT ( 'NONE',  ( 0.0000000000000000000, 33.62647849462362600, 128.5000000000000000 ) ) ;
#560 = SECURITY_CLASSIFICATION_LEVEL ( 'unclassified' ) ;
#561 = PERSON_AND_ORGANIZATION_ROLE ( 'creator' ) ;
#562 = CYLINDRICAL_SURFACE ( 'NONE', #210, 130.0000000000000000 ) ;
#563 = CARTESIAN_POINT ( 'NONE',  ( 0.0000000000000000000, 0.0000000000000000000, 4.000000000000000000 ) ) ;
#564 = ITEM_DEFINED_TRANSFORMATION ( 'NONE', 'NONE', #940,  #277 ) ;
#565 = AXIS2_PLACEMENT_3D ( 'NONE', #21, #352, #792 ) ;
#566 = PERSON_AND_ORGANIZATION ( #15, #801 ) ;
#567 = DIRECTION ( 'NONE',  ( -0.0000000000000000000, 1.000000000000000000, -0.0000000000000000000 ) ) ;
#568 = COORDINATED_UNIVERSAL_TIME_OFFSET ( 1, 0, .AHEAD. ) ;
#569 = DIRECTION ( 'NONE',  ( 0.0000000000000000000, 0.0000000000000000000, 1.000000000000000000 ) ) ;
#570 = DIRECTION ( 'NONE',  ( 0.0000000000000000000, -0.0000000000000000000, -1.000000000000000000 ) ) ;
#571 = EDGE_CURVE ( 'NONE', #842, #636, #271, .T. ) ;
#572 = EDGE_CURVE ( 'NONE', #1030, #460, #108, .T. ) ;
#573 = SECURITY_CLASSIFICATION_LEVEL ( 'unclassified' ) ;
#574 = AXIS2_PLACEMENT_3D ( 'NONE', #640, #641, #653 ) ;
#575 = DIRECTION ( 'NONE',  ( -0.0000000000000000000, 1.000000000000000000, -0.0000000000000000000 ) ) ;
#576 = CARTESIAN_POINT ( 'NONE',  ( 0.0000000000000000000, 30.42647849462363000, 0.0000000000000000000 ) ) ;
#577 = DIRECTION ( 'NONE',  ( -0.0000000000000000000, 1.000000000000000000, -0.0000000000000000000 ) ) ;
#578 = EDGE_CURVE ( 'NONE', #246, #839, #227, .T. ) ;
#579 = EDGE_CURVE ( 'NONE', #341, #162, #687, .T. ) ;
#580 = ORGANIZATION ( 'NAUO-ORG1', 'UNSPECIFIED', 'UNSPECIFIED' ) ;
#581 = APPROVAL_ROLE ( '' ) ;
#582 = AXIS2_PLACEMENT_3D ( 'NONE', #576, #829, #906 ) ;
#583 = LOCAL_TIME ( 22, 23, 52.00000000000000000, #628 ) ;
#584 = ORIENTED_EDGE ( 'NONE', *, *, #477, .T. ) ;
#585 = CARTESIAN_POINT ( 'NONE',  ( 1.557723117678823900E-014, 39.17540322580644100, -127.1977454040929600 ) ) ;
#586 = FACE_OUTER_BOUND ( 'NONE', #107, .T. ) ;
#587 = CC_DESIGN_PERSON_AND_ORGANIZATION_ASSIGNMENT ( #1071, #802, ( #109 ) ) ;
#588 = DIRECTION ( 'NONE',  ( 0.0000000000000000000, 0.0000000000000000000, 1.000000000000000000 ) ) ;
#589 = CC_DESIGN_PERSON_AND_ORGANIZATION_ASSIGNMENT ( #99, #557, ( #975 ) ) ;
#590 = PERSON_AND_ORGANIZATION ( #15, #801 ) ;
#591 = ADVANCED_FACE ( 'NONE', ( #491 ), #150, .T. ) ;
#592 = SHAPE_REPRESENTATION_RELATIONSHIP ( 'NONE' , 'NONE' ,  #454, #537 ) ;
#593 = AXIS2_PLACEMENT_3D ( 'NONE', #144, #146, #152 ) ;
#594 = CALENDAR_DATE ( 2017, 30, 3 ) ;
#595 = EDGE_CURVE ( 'NONE', #332, #481, #69, .T. ) ;
#596 = AXIS2_PLACEMENT_3D ( 'NONE', #1012, #932, #222 ) ;
#597 = CIRCLE ( 'NONE', #435, 130.0000000000000000 ) ;
#598 = DIRECTION ( 'NONE',  ( 0.0000000000000000000, 0.0000000000000000000, 1.000000000000000000 ) ) ;
#599 = ADVANCED_FACE ( 'NONE', ( #556 ), #160, .F. ) ;
#600 = PERSON_AND_ORGANIZATION ( #114, #469 ) ;
#601 = PRODUCT_DEFINITION_FORMATION_WITH_SPECIFIED_SOURCE ( 'ANY', '', #109, .NOT_KNOWN. ) ;
#602 = DATE_TIME_ROLE ( 'creation_date' ) ;
#603 = CIRCLE ( 'NONE', #748, 130.0000000000000000 ) ;
#604 = PERSON_AND_ORGANIZATION_ROLE ( 'classification_officer' ) ;
#605 = TOROIDAL_SURFACE ( 'NONE', #908, 127.9000000000000200, 2.099999999999997900 ) ;
#606 = ORIENTED_EDGE ( 'NONE', *, *, #658, .T. ) ;
#607 = APPROVAL_STATUS ( 'not_yet_approved' ) ;
#608 = ADVANCED_FACE ( 'NONE', ( #441 ), #694, .T. ) ;
#609 = CARTESIAN_POINT ( 'NONE',  ( 0.0000000000000000000, 5.226478494623910900, 128.5000000000000000 ) ) ;
#610 = VECTOR ( 'NONE', #385, 1000.000000000000000 ) ;
#611 = CLOSED_SHELL ( 'NONE', ( #599, #410, #503, #1095, #404, #495, #1097, #265, #403, #591, #853, #486, #608, #401, #76, #88, #1010, #267, #849, #174, #60, #1090, #337, #487, #933 ) ) ;
#612 = LOCAL_TIME ( 22, 23, 52.00000000000000000, #266 ) ;
#613 = AXIS2_PLACEMENT_3D ( 'NONE', #939, #697, #834 ) ;
#614 = AXIS2_PLACEMENT_3D ( 'NONE', #852, #826, #379 ) ;
#615 = AXIS2_PLACEMENT_3D ( 'NONE', #338, #874, #794 ) ;
#616 = EDGE_LOOP ( 'NONE', ( #66, #876, #461, #492 ) ) ;
#617 = DIRECTION ( 'NONE',  ( 0.0000000000000000000, 0.0000000000000000000, 1.000000000000000000 ) ) ;
#618 = EDGE_LOOP ( 'NONE', ( #987, #16, #755, #253 ) ) ;
#619 = AXIS2_PLACEMENT_3D ( 'NONE', #1045, #370, #1001 ) ;
#620 = AXIS2_PLACEMENT_3D ( 'NONE', #421, #575, #176 ) ;
#621 = DIRECTION ( 'NONE',  ( 0.0000000000000000000, 0.0000000000000000000, 1.000000000000000000 ) ) ;
#622 = DIRECTION ( 'NONE',  ( -0.0000000000000000000, 1.000000000000000000, -0.0000000000000000000 ) ) ;
#623 = AXIS2_PLACEMENT_3D ( 'NONE', #625, #916, #129 ) ;
#624 = UNCERTAINTY_MEASURE_WITH_UNIT (LENGTH_MEASURE( 1.000000000000000100E-005 ), #348, 'distance_accuracy_value', 'NONE');
#625 = CARTESIAN_POINT ( 'NONE',  ( 0.0000000000000000000, 33.62647849462362600, 0.0000000000000000000 ) ) ;
#626 = DIRECTION ( 'NONE',  ( 1.000000000000000000, 0.0000000000000000000, 0.0000000000000000000 ) ) ;
#627 = PERSON ( 'NAUO-PER1', 'UNSPECIFIED', 'UNSPECIFIED', ('UNSPECIFIED'), ('UNSPECIFIED'), ('UNSPECIFIED') ) ;
#628 = COORDINATED_UNIVERSAL_TIME_OFFSET ( 1, 0, .AHEAD. ) ;
#629 = AXIS2_PLACEMENT_3D ( 'NONE', #780, #516, #825 ) ;
#630 = CALENDAR_DATE ( 2017, 30, 3 ) ;
#631 =( REPRESENTATION_RELATIONSHIP ('NONE','NONE', #704, #454 ) REPRESENTATION_RELATIONSHIP_WITH_TRANSFORMATION ( #93 )SHAPE_REPRESENTATION_RELATIONSHIP( ) );
#632 = CIRCLE ( 'NONE', #4, 88.49999999999970200 ) ;
#633 = APPROVAL_ROLE ( '' ) ;
#634 = DATE_TIME_ROLE ( 'classification_date' ) ;
#635 = CALENDAR_DATE ( 2017, 30, 3 ) ;
#636 = VERTEX_POINT ( 'NONE', #119 ) ;
#637 = DIRECTION ( 'NONE',  ( 1.224646799147352700E-016, 0.0000000000000000000, -1.000000000000000000 ) ) ;
#638 = FACE_OUTER_BOUND ( 'NONE', #616, .T. ) ;
#639 = CARTESIAN_POINT ( 'NONE',  ( 0.0000000000000000000, 33.62647849462362600, 127.9000000000000200 ) ) ;
#640 = CARTESIAN_POINT ( 'NONE',  ( 0.0000000000000000000, 0.0000000000000000000, 0.0000000000000000000 ) ) ;
#641 = DIRECTION ( 'NONE',  ( 0.0000000000000000000, 0.0000000000000000000, 1.000000000000000000 ) ) ;
#642 = ORIENTED_EDGE ( 'NONE', *, *, #658, .F. ) ;
#643 = ORIENTED_EDGE ( 'NONE', *, *, #1077, .T. ) ;
#644 = AXIS2_PLACEMENT_3D ( 'NONE', #36, #752, #545 ) ;
#645 = CALENDAR_DATE ( 2017, 30, 3 ) ;
#646 = PERSON_AND_ORGANIZATION_ROLE ( 'creator' ) ;
#647 = DIRECTION ( 'NONE',  ( 0.0000000000000000000, 0.0000000000000000000, 1.000000000000000000 ) ) ;
#648 = CARTESIAN_POINT ( 'NONE',  ( 0.0000000000000000000, 30.42647849462363000, 125.7000000000000000 ) ) ;
#649 = EDGE_CURVE ( 'NONE', #295, #412, #597, .T. ) ;
#650 = DIRECTION ( 'NONE',  ( -1.000000000000000000, 0.0000000000000000000, 0.0000000000000000000 ) ) ;
#651 = CIRCLE ( 'NONE', #539, 127.1977454040929600 ) ;
#652 = ORIENTED_EDGE ( 'NONE', *, *, #157, .T. ) ;
#653 = DIRECTION ( 'NONE',  ( 1.000000000000000000, 0.0000000000000000000, 0.0000000000000000000 ) ) ;
#654 = FACE_OUTER_BOUND ( 'NONE', #190, .T. ) ;
#655 = SECURITY_CLASSIFICATION ( '', '', #296 ) ;
#656 = AXIS2_PLACEMENT_3D ( 'NONE', #558, #283, #749 ) ;
#657 = APPROVAL_PERSON_ORGANIZATION ( #982, #894, #1081 ) ;
#658 = EDGE_CURVE ( 'NONE', #888, #295, #867, .T. ) ;
#659 = CARTESIAN_POINT ( 'NONE',  ( 49.34119453554636400, -36.27352150537655700, 55.65253682499236700 ) ) ;
#660 = ORIENTED_EDGE ( 'NONE', *, *, #649, .T. ) ;
#661 = DIRECTION ( 'NONE',  ( -0.0000000000000000000, 1.000000000000000000, -0.0000000000000000000 ) ) ;
#662 = CLOSED_SHELL ( 'NONE', ( #1085, #415, #272, #82 ) ) ;
#663 = APPROVAL_DATE_TIME ( #1011, #143 ) ;
#664 = AXIS2_PLACEMENT_3D ( 'NONE', #330, #309, #168 ) ;
#665 = CYLINDRICAL_SURFACE ( 'NONE', #473, 13.00000000000000200 ) ;
#666 = DIRECTION ( 'NONE',  ( 0.0000000000000000000, -1.000000000000000000, -3.491483361109382100E-015 ) ) ;
#667 = CC_DESIGN_DATE_AND_TIME_ASSIGNMENT ( #490, #231, ( #24 ) ) ;
#668 = DIRECTION ( 'NONE',  ( 1.000000000000000000, 0.0000000000000000000, 0.0000000000000000000 ) ) ;
#669 = CARTESIAN_POINT ( 'NONE',  ( -13.00000000000000200, 0.0000000000000000000, 0.0000000000000000000 ) ) ;
#670 = VECTOR ( 'NONE', #622, 1000.000000000000000 ) ;
#671 = VERTEX_POINT ( 'NONE', #313 ) ;
#672 = APPROVAL_DATE_TIME ( #27, #935 ) ;
#673 = CARTESIAN_POINT ( 'NONE',  ( -73.44630124696034600, -36.27352150537635800, -1.531515621669600200 ) ) ;
#674 = CC_DESIGN_SECURITY_CLASSIFICATION ( #102, ( #975 ) ) ;
#675 = DATE_AND_TIME ( #955, #926 ) ;
#676 = PERSON_AND_ORGANIZATION ( #15, #801 ) ;
#677 = FACE_OUTER_BOUND ( 'NONE', #1068, .T. ) ;
#678 = APPROVAL_DATE_TIME ( #94, #894 ) ;
#679 = CALENDAR_DATE ( 2017, 30, 3 ) ;
#680 = SECURITY_CLASSIFICATION_LEVEL ( 'unclassified' ) ;
#681 = EDGE_CURVE ( 'NONE', #888, #1008, #632, .T. ) ;
#682 = CYLINDRICAL_SURFACE ( 'NONE', #536, 125.7000000000000000 ) ;
#683 = CIRCLE ( 'NONE', #629, 127.7977454040929800 ) ;
#684 = DATE_AND_TIME ( #630, #498 ) ;
#685 = LINE ( 'NONE', #466, #315 ) ;
#686 = EDGE_CURVE ( 'NONE', #671, #1023, #712, .T. ) ;
#687 = LINE ( 'NONE', #980, #319 ) ;
#688 = DIRECTION ( 'NONE',  ( 0.0000000000000000000, -0.0000000000000000000, -1.000000000000000000 ) ) ;
#689 = APPROVAL_ROLE ( '' ) ;
#690 = EDGE_CURVE ( 'NONE', #526, #59, #14, .T. ) ;
#691 = PERSON_AND_ORGANIZATION_ROLE ( 'classification_officer' ) ;
#692 = CALENDAR_DATE ( 2017, 30, 3 ) ;
#693 = TOROIDAL_SURFACE ( 'NONE', #615, 127.7977454040929500, 0.5999999999999963100 ) ;
#694 = CYLINDRICAL_SURFACE ( 'NONE', #455, 130.0000000000000000 ) ;
#695 = DIRECTION ( 'NONE',  ( 0.0000000000000000000, -1.000000000000000000, 0.0000000000000000000 ) ) ;
#696 = CIRCLE ( 'NONE', #620, 128.5000000000000000 ) ;
#697 = DIRECTION ( 'NONE',  ( -0.0000000000000000000, 1.000000000000000000, -0.0000000000000000000 ) ) ;
#698 = APPROVAL_STATUS ( 'not_yet_approved' ) ;
#699 = DIRECTION ( 'NONE',  ( -0.0000000000000000000, -0.0000000000000000000, -1.000000000000000000 ) ) ;
#700 = DIRECTION ( 'NONE',  ( 1.224646799147361800E-016, 0.0000000000000000000, -1.000000000000000000 ) ) ;
#701 = ORIENTED_EDGE ( 'NONE', *, *, #934, .F. ) ;
#702 = DIRECTION ( 'NONE',  ( 0.0000000000000000000, -1.000000000000000000, -3.491483361109382100E-015 ) ) ;
#703 = DIRECTION ( 'NONE',  ( 1.000000000000000000, 0.0000000000000000000, 0.0000000000000000000 ) ) ;
#704 = SHAPE_REPRESENTATION ( '0212201602', ( #519, #574, #890, #940, #875 ), #98 ) ;
#705 = CARTESIAN_POINT ( 'NONE',  ( 33.72862771672657800, -36.27352150537612400, -66.28276130720355800 ) ) ;
#706 = FACE_BOUND ( 'NONE', #432, .T. ) ;
#707 = CARTESIAN_POINT ( 'NONE',  ( 0.0000000000000000000, 5.226478494623633800, 0.0000000000000000000 ) ) ;
#708 = VECTOR ( 'NONE', #567, 1000.000000000000000 ) ;
#709 = DATE_AND_TIME ( #725, #765 ) ;
#710 = VERTEX_POINT ( 'NONE', #422 ) ;
#711 = CC_DESIGN_APPROVAL ( #784, ( #760 ) ) ;
#712 = CIRCLE ( 'NONE', #284, 13.00000000000000200 ) ;
#713 = DIRECTION ( 'NONE',  ( 0.0000000000000000000, -1.000000000000000000, -3.491483361109382100E-015 ) ) ;
#714 = ORGANIZATION ( 'NAUO-ORG3', 'UNSPECIFIED', 'UNSPECIFIED' ) ;
#715 = APPROVAL_DATE_TIME ( #750, #866 ) ;
#716 = FACE_OUTER_BOUND ( 'NONE', #724, .T. ) ;
#717 = CARTESIAN_POINT ( 'NONE',  ( -88.49999999999973000, -34.77352150537636500, 0.0000000000000000000 ) ) ;
#718 = ORIENTED_EDGE ( 'NONE', *, *, #468, .T. ) ;
#719 = ORIENTED_EDGE ( 'NONE', *, *, #1021, .F. ) ;
#720 = DIRECTION ( 'NONE',  ( 1.000000000000000000, 0.0000000000000000000, 0.0000000000000000000 ) ) ;
#721 = CIRCLE ( 'NONE', #365, 127.1977454040929600 ) ;
#722 = ORIENTED_EDGE ( 'NONE', *, *, #233, .T. ) ;
#723 = PERSON ( 'NAUO-PER3', 'UNSPECIFIED', 'UNSPECIFIED', ('UNSPECIFIED'), ('UNSPECIFIED'), ('UNSPECIFIED') ) ;
#724 = EDGE_LOOP ( 'NONE', ( #259, #813, #1109, #205 ) ) ;
#725 = CALENDAR_DATE ( 2017, 30, 3 ) ;
#726 = CARTESIAN_POINT ( 'NONE',  ( 0.0000000000000000000, 0.0000000000000000000, 0.0000000000000000000 ) ) ;
#727 = DIRECTION ( 'NONE',  ( 1.000000000000000000, 0.0000000000000000000, 1.224646799147353200E-016 ) ) ;
#728 = PERSON_AND_ORGANIZATION ( #15, #801 ) ;
#729 = CARTESIAN_POINT ( 'NONE',  ( 0.0000000000000000000, 30.42647849462363000, 0.0000000000000000000 ) ) ;
#730 = CARTESIAN_POINT ( 'NONE',  ( 1.579182047500512400E-014, 35.72647849462362800, -127.9000000000000200 ) ) ;
#731 = COORDINATED_UNIVERSAL_TIME_OFFSET ( 1, 0, .AHEAD. ) ;
#732 = APPROVAL ( #893, 'UNSPECIFIED' ) ;
#733 = CIRCLE ( 'NONE', #424, 2.099999999999990800 ) ;
#734 = CARTESIAN_POINT ( 'NONE',  ( 1.569997196506906600E-014, 34.22647849462363500, -127.8999999999999900 ) ) ;
#735 = CARTESIAN_POINT ( 'NONE',  ( 1.557723117678823900E-014, 33.62647849462362600, -127.1977454040929600 ) ) ;
#736 = CARTESIAN_POINT ( 'NONE',  ( 1.552239817919270200E-014, 33.62647849462362600, -125.7000000000000000 ) ) ;
#737 = LINE ( 'NONE', #389, #610 ) ;
#738 = AXIS2_PLACEMENT_3D ( 'NONE', #395, #506, #1004 ) ;
#739 = EDGE_LOOP ( 'NONE', ( #44, #1051 ) ) ;
#740 = COORDINATED_UNIVERSAL_TIME_OFFSET ( 1, 0, .AHEAD. ) ;
#741 = CALENDAR_DATE ( 2017, 30, 3 ) ;
#742 = ORIENTED_EDGE ( 'NONE', *, *, #413, .T. ) ;
#743 = TOROIDAL_SURFACE ( 'NONE', #991, 127.7977454040929500, 0.5999999999999963100 ) ;
#744 = EDGE_LOOP ( 'NONE', ( #956, #7, #1084, #459 ) ) ;
#745 =( LENGTH_UNIT ( ) NAMED_UNIT ( * ) SI_UNIT ( .MILLI., .METRE. ) );
#746 = CYLINDRICAL_SURFACE ( 'NONE', #887, 128.5000000000000000 ) ;
#747 = EDGE_LOOP ( 'NONE', ( #220, #722, #140, #872 ) ) ;
#748 = AXIS2_PLACEMENT_3D ( 'NONE', #263, #899, #68 ) ;
#749 = DIRECTION ( 'NONE',  ( 0.0000000000000000000, 0.0000000000000000000, 1.000000000000000000 ) ) ;
#750 = DATE_AND_TIME ( #372, #123 ) ;
#751 = EDGE_LOOP ( 'NONE', ( #936, #48, #280, #993 ) ) ;
#752 = DIRECTION ( 'NONE',  ( -1.000000000000000000, 0.0000000000000000000, 0.0000000000000000000 ) ) ;
#753 = DATE_AND_TIME ( #517, #478 ) ;
#754 = EDGE_CURVE ( 'NONE', #246, #341, #10, .T. ) ;
#755 = ORIENTED_EDGE ( 'NONE', *, *, #50, .T. ) ;
#756 = DIRECTION ( 'NONE',  ( -0.0000000000000000000, 1.000000000000000000, -0.0000000000000000000 ) ) ;
#757 = CARTESIAN_POINT ( 'NONE',  ( 1.592040838891559500E-014, 5.226478494623931300, -130.0000000000000000 ) ) ;
#758 = CARTESIAN_POINT ( 'NONE',  ( 1.566323256109465000E-014, 33.62647849462362600, -127.9000000000000200 ) ) ;
#759 = CARTESIAN_POINT ( 'NONE',  ( 1.539381026528223100E-014, 39.17540322580644100, -125.7000000000000000 ) ) ;
#760 = PRODUCT_DEFINITION ( 'UNKNOWN', '', #975, #897 ) ;
#761 =( NAMED_UNIT ( * ) PLANE_ANGLE_UNIT ( ) SI_UNIT ( $, .RADIAN. ) );
#762 = DIRECTION ( 'NONE',  ( 0.0000000000000000000, -0.0000000000000000000, -1.000000000000000000 ) ) ;
#763 = ORIENTED_EDGE ( 'NONE', *, *, #690, .F. ) ;
#764 = ORIENTED_EDGE ( 'NONE', *, *, #686, .T. ) ;
#765 = LOCAL_TIME ( 22, 23, 52.00000000000000000, #236 ) ;
#766 = TOROIDAL_SURFACE ( 'NONE', #1026, 88.50000000000001400, 39.99999999999999300 ) ;
#767 = ORIENTED_EDGE ( 'NONE', *, *, #928, .F. ) ;
#768 = EDGE_CURVE ( 'NONE', #1008, #888, #789, .T. ) ;
#769 = CARTESIAN_POINT ( 'NONE',  ( 0.0000000000000000000, 33.62647849462362600, 0.0000000000000000000 ) ) ;
#770 = EDGE_CURVE ( 'NONE', #412, #949, #979, .T. ) ;
#771 = SECURITY_CLASSIFICATION ( '', '', #560 ) ;
#772 = FACE_OUTER_BOUND ( 'NONE', #787, .T. ) ;
#773 = DATE_TIME_ROLE ( 'classification_date' ) ;
#774 = EDGE_CURVE ( 'NONE', #92, #970, #870, .T. ) ;
#775 =( NAMED_UNIT ( * ) SI_UNIT ( $, .STERADIAN. ) SOLID_ANGLE_UNIT ( ) );
#776 = ORIENTED_EDGE ( 'NONE', *, *, #79, .T. ) ;
#777 = CIRCLE ( 'NONE', #357, 128.5000000000000000 ) ;
#778 = PERSON_AND_ORGANIZATION ( #15, #801 ) ;
#779 = CIRCLE ( 'NONE', #1034, 127.8999999999999900 ) ;
#780 = CARTESIAN_POINT ( 'NONE',  ( 0.0000000000000000000, 34.22647849462362800, 0.0000000000000000000 ) ) ;
#781 = CARTESIAN_POINT ( 'NONE',  ( 0.0000000000000000000, 39.17540322580644100, 0.0000000000000000000 ) ) ;
#782 = EDGE_CURVE ( 'NONE', #59, #526, #317, .T. ) ;
#783 = APPROVAL_ROLE ( '' ) ;
#784 = APPROVAL ( #139, 'UNSPECIFIED' ) ;
#785 = CARTESIAN_POINT ( 'NONE',  ( 0.0000000000000000000, 30.42647849462363000, 127.1977454040929600 ) ) ;
#786 = CC_DESIGN_SECURITY_CLASSIFICATION ( #655, ( #1118 ) ) ;
#787 = EDGE_LOOP ( 'NONE', ( #548, #764 ) ) ;
#788 = DIRECTION ( 'NONE',  ( 0.0000000000000000000, 0.0000000000000000000, 1.000000000000000000 ) ) ;
#789 = CIRCLE ( 'NONE', #998, 88.49999999999970200 ) ;
#790 = ORIENTED_EDGE ( 'NONE', *, *, #571, .F. ) ;
#791 = CC_DESIGN_SECURITY_CLASSIFICATION ( #199, ( #601 ) ) ;
#792 = DIRECTION ( 'NONE',  ( 0.0000000000000000000, 0.0000000000000000000, 1.000000000000000000 ) ) ;
#793 = CIRCLE ( 'NONE', #482, 127.9000000000000200 ) ;
#794 = DIRECTION ( 'NONE',  ( 0.0000000000000000000, 0.0000000000000000000, 1.000000000000000000 ) ) ;
#795 = DIRECTION ( 'NONE',  ( -0.0000000000000000000, 1.000000000000000000, -0.0000000000000000000 ) ) ;
#796 = EDGE_LOOP ( 'NONE', ( #909, #830 ) ) ;
#797 = DIRECTION ( 'NONE',  ( 0.0000000000000000000, 0.0000000000000000000, 1.000000000000000000 ) ) ;
#798 = CC_DESIGN_APPROVAL ( #935, ( #975 ) ) ;
#799 = PERSON_AND_ORGANIZATION ( #15, #801 ) ;
#800 = APPLICATION_CONTEXT ( 'configuration controlled 3d designs of mechanical parts and assemblies' ) ;
#801 = ORGANIZATION ( 'UNSPECIFIED', 'UNSPECIFIED', '' ) ;
#802 = PERSON_AND_ORGANIZATION_ROLE ( 'design_owner' ) ;
#803 = PRODUCT_DEFINITION ( 'UNKNOWN', '', #601, #155 ) ;
#804 = ORIENTED_EDGE ( 'NONE', *, *, #681, .T. ) ;
#805 = CARTESIAN_POINT ( 'NONE',  ( 0.0000000000000000000, 34.22647849462363500, 0.0000000000000000000 ) ) ;
#806 = VERTEX_POINT ( 'NONE', #543 ) ;
#807 = APPROVAL_PERSON_ORGANIZATION ( #600, #138, #581 ) ;
#808 = DIRECTION ( 'NONE',  ( 1.000000000000000000, 0.0000000000000000000, 0.0000000000000000000 ) ) ;
#809 = CARTESIAN_POINT ( 'NONE',  ( 0.0000000000000000000, 35.72647849462362800, 127.9000000000000200 ) ) ;
#810 = APPLICATION_PROTOCOL_DEFINITION ( 'international standard', 'config_control_design', 1994, #963 ) ;
#811 = ORIENTED_EDGE ( 'NONE', *, *, #499, .T. ) ;
#812 = APPROVAL_PERSON_ORGANIZATION ( #142, #1038, #203 ) ;
#813 = ORIENTED_EDGE ( 'NONE', *, *, #990, .F. ) ;
#814 = DIRECTION ( 'NONE',  ( -0.0000000000000000000, 1.000000000000000000, -0.0000000000000000000 ) ) ;
#815 = APPROVAL_ROLE ( '' ) ;
#816 = CIRCLE ( 'NONE', #515, 39.99999999999999300 ) ;
#817 =( GEOMETRIC_REPRESENTATION_CONTEXT ( 3 ) GLOBAL_UNCERTAINTY_ASSIGNED_CONTEXT ( ( #1046 ) ) GLOBAL_UNIT_ASSIGNED_CONTEXT ( ( #488, #505, #551 ) ) REPRESENTATION_CONTEXT ( 'NONE', 'WORKASPACE' ) );
#818 = APPROVAL ( #1039, 'UNSPECIFIED' ) ;
#819 = CARTESIAN_POINT ( 'NONE',  ( 0.0000000000000000000, 0.0000000000000000000, 0.0000000000000000000 ) ) ;
#820 = ORIENTED_EDGE ( 'NONE', *, *, #782, .T. ) ;
#821 = DIRECTION ( 'NONE',  ( 1.224646799147352700E-016, 0.0000000000000000000, -1.000000000000000000 ) ) ;
#822 = DIRECTION ( 'NONE',  ( 1.000000000000000000, 0.0000000000000000000, 0.0000000000000000000 ) ) ;
#823 = LOCAL_TIME ( 22, 23, 52.00000000000000000, #420 ) ;
#824 = SHAPE_DEFINITION_REPRESENTATION ( #493, #704 ) ;
#825 = DIRECTION ( 'NONE',  ( 0.0000000000000000000, 0.0000000000000000000, 1.000000000000000000 ) ) ;
#826 = DIRECTION ( 'NONE',  ( -0.0000000000000000000, 1.000000000000000000, -0.0000000000000000000 ) ) ;
#827 = AXIS2_PLACEMENT_3D ( 'NONE', #552, #274, #688 ) ;
#828 = CALENDAR_DATE ( 2017, 30, 3 ) ;
#829 = DIRECTION ( 'NONE',  ( -0.0000000000000000000, 1.000000000000000000, -0.0000000000000000000 ) ) ;
#830 = ORIENTED_EDGE ( 'NONE', *, *, #170, .T. ) ;
#831 = EDGE_LOOP ( 'NONE', ( #652, #303, #121, #90 ) ) ;
#832 = CARTESIAN_POINT ( 'NONE',  ( 0.0000000000000000000, 33.62647849462362600, 127.8000000000000000 ) ) ;
#833 = DIRECTION ( 'NONE',  ( 0.0000000000000000000, 0.0000000000000000000, 1.000000000000000000 ) ) ;
#834 = DIRECTION ( 'NONE',  ( 0.0000000000000000000, 0.0000000000000000000, 1.000000000000000000 ) ) ;
#835 = AXIS2_PLACEMENT_3D ( 'NONE', #1102, #20, #67 ) ;
#836 = DATE_AND_TIME ( #741, #1056 ) ;
#837 = DIRECTION ( 'NONE',  ( 0.0000000000000000000, 0.0000000000000000000, 1.000000000000000000 ) ) ;
#838 = ORIENTED_EDGE ( 'NONE', *, *, #382, .F. ) ;
#839 = VERTEX_POINT ( 'NONE', #528 ) ;
#840 = FACE_OUTER_BOUND ( 'NONE', #886, .T. ) ;
#841 = CARTESIAN_POINT ( 'NONE',  ( 0.0000000000000000000, 33.62647849462362600, 0.0000000000000000000 ) ) ;
#842 = VERTEX_POINT ( 'NONE', #648 ) ;
#843 = DIRECTION ( 'NONE',  ( -0.0000000000000000000, 1.000000000000000000, -0.0000000000000000000 ) ) ;
#844 = VERTEX_POINT ( 'NONE', #1082 ) ;
#845 = DIRECTION ( 'NONE',  ( -0.0000000000000000000, 1.000000000000000000, -0.0000000000000000000 ) ) ;
#846 = EDGE_CURVE ( 'NONE', #154, #1030, #863, .T. ) ;
#847 = COORDINATED_UNIVERSAL_TIME_OFFSET ( 1, 0, .AHEAD. ) ;
#848 = AXIS2_PLACEMENT_3D ( 'NONE', #80, #756, #55 ) ;
#849 = ADVANCED_FACE ( 'NONE', ( #201 ), #43, .T. ) ;
#850 = CC_DESIGN_PERSON_AND_ORGANIZATION_ASSIGNMENT ( #728, #445, ( #102 ) ) ;
#851 = AXIS2_PLACEMENT_3D ( 'NONE', #880, #500, #494 ) ;
#852 = CARTESIAN_POINT ( 'NONE',  ( 0.0000000000000000000, 39.17540322580644100, 0.0000000000000000000 ) ) ;
#853 = ADVANCED_FACE ( 'NONE', ( #1113 ), #133, .T. ) ;
#854 = PRODUCT_RELATED_PRODUCT_CATEGORY ( 'detail', '', ( #109 ) ) ;
#855 = DIRECTION ( 'NONE',  ( -0.0000000000000000000, 1.000000000000000000, -0.0000000000000000000 ) ) ;
#856 = DATE_TIME_ROLE ( 'classification_date' ) ;
#857 = CIRCLE ( 'NONE', #738, 0.5999999999999894300 ) ;
#858 = APPROVAL ( #172, 'UNSPECIFIED' ) ;
#859 = CIRCLE ( 'NONE', #1091, 127.1977454040929600 ) ;
#860 = AXIS2_PLACEMENT_3D ( 'NONE', #111, #228, #1075 ) ;
#861 = CALENDAR_DATE ( 2017, 30, 3 ) ;
#862 = DIRECTION ( 'NONE',  ( -0.0000000000000000000, 1.000000000000000000, -0.0000000000000000000 ) ) ;
#863 = CIRCLE ( 'NONE', #354, 127.8000000000000000 ) ;
#864 = APPLICATION_PROTOCOL_DEFINITION ( 'international standard', 'config_control_design', 1994, #18 ) ;
#865 = ORIENTED_EDGE ( 'NONE', *, *, #846, .F. ) ;
#866 = APPROVAL ( #1054, 'UNKNOWN' ) ;
#867 = CIRCLE ( 'NONE', #131, 41.50000000000000700 ) ;
#868 = CONTEXT_DEPENDENT_SHAPE_REPRESENTATION ( #116, #242 ) ;
#869 = LOCAL_TIME ( 22, 23, 52.00000000000000000, #223 ) ;
#870 = CIRCLE ( 'NONE', #952, 0.5999999999999894300 ) ;
#871 = CARTESIAN_POINT ( 'NONE',  ( 1.083812417245407500E-014, 5.226478494623633800, -88.50000000000000000 ) ) ;
#872 = ORIENTED_EDGE ( 'NONE', *, *, #774, .F. ) ;
#873 = APPROVAL_ROLE ( '' ) ;
#874 = DIRECTION ( 'NONE',  ( -0.0000000000000000000, 1.000000000000000000, -0.0000000000000000000 ) ) ;
#875 = AXIS2_PLACEMENT_3D ( 'NONE', #705, #713, #720 ) ;
#876 = ORIENTED_EDGE ( 'NONE', *, *, #477, .F. ) ;
#877 = AXIS2_PLACEMENT_3D ( 'NONE', #707, #878, #167 ) ;
#878 = DIRECTION ( 'NONE',  ( -0.0000000000000000000, 1.000000000000000000, -0.0000000000000000000 ) ) ;
#879 = FACE_BOUND ( 'NONE', #796, .T. ) ;
#880 = CARTESIAN_POINT ( 'NONE',  ( 0.0000000000000000000, 0.0000000000000000000, 4.000000000000000000 ) ) ;
#881 = UNCERTAINTY_MEASURE_WITH_UNIT (LENGTH_MEASURE( 1.000000000000000100E-005 ), #745, 'distance_accuracy_value', 'NONE');
#882 = DIRECTION ( 'NONE',  ( 1.224646799147353000E-016, 0.0000000000000000000, -1.000000000000000000 ) ) ;
#883 = ORIENTED_EDGE ( 'NONE', *, *, #768, .T. ) ;
#884 = DIRECTION ( 'NONE',  ( 0.0000000000000000000, 0.0000000000000000000, 1.000000000000000000 ) ) ;
#885 = CC_DESIGN_PERSON_AND_ORGANIZATION_ASSIGNMENT ( #942, #250, ( #113 ) ) ;
#886 = EDGE_LOOP ( 'NONE', ( #969, #763 ) ) ;
#887 = AXIS2_PLACEMENT_3D ( 'NONE', #194, #207, #951 ) ;
#888 = VERTEX_POINT ( 'NONE', #376 ) ;
#889 = APPROVAL_PERSON_ORGANIZATION ( #84, #858, #783 ) ;
#890 = AXIS2_PLACEMENT_3D ( 'NONE', #659, #666, #668 ) ;
#891 = CARTESIAN_POINT ( 'NONE',  ( 0.0000000000000000000, -36.27352150537636500, 0.0000000000000000000 ) ) ;
#892 = CARTESIAN_POINT ( 'NONE',  ( 1.565070998473708400E-014, 34.22647849462362800, -127.7977454040929500 ) ) ;
#893 = APPROVAL_STATUS ( 'not_yet_approved' ) ;
#894 = APPROVAL ( #325, 'UNSPECIFIED' ) ;
#895 = CARTESIAN_POINT ( 'NONE',  ( 0.0000000000000000000, 5.226478494623931300, 130.0000000000000000 ) ) ;
#896 = SHAPE_DEFINITION_REPRESENTATION ( #1078, #454 ) ;
#897 = DESIGN_CONTEXT ( 'detailed design', #800, 'design' ) ;
#898 = APPROVAL_ROLE ( '' ) ;
#899 = DIRECTION ( 'NONE',  ( -0.0000000000000000000, 1.000000000000000000, -0.0000000000000000000 ) ) ;
#900 = CIRCLE ( 'NONE', #234, 127.1977454040929600 ) ;
#901 = EDGE_CURVE ( 'NONE', #806, #844, #1049, .T. ) ;
#902 = ORIENTED_EDGE ( 'NONE', *, *, #71, .T. ) ;
#903 = DATE_AND_TIME ( #96, #126 ) ;
#904 = APPLICATION_PROTOCOL_DEFINITION ( 'international standard', 'config_control_design', 1994, #535 ) ;
#905 = COORDINATED_UNIVERSAL_TIME_OFFSET ( 1, 0, .AHEAD. ) ;
#906 = DIRECTION ( 'NONE',  ( 0.0000000000000000000, 0.0000000000000000000, 1.000000000000000000 ) ) ;
#907 = APPLICATION_PROTOCOL_DEFINITION ( 'international standard', 'config_control_design', 1994, #363 ) ;
#908 = AXIS2_PLACEMENT_3D ( 'NONE', #1092, #436, #621 ) ;
#909 = ORIENTED_EDGE ( 'NONE', *, *, #416, .T. ) ;
#910 = EDGE_CURVE ( 'NONE', #1030, #154, #219, .T. ) ;
#911 = CC_DESIGN_PERSON_AND_ORGANIZATION_ASSIGNMENT ( #566, #204, ( #199 ) ) ;
#912 = ORIENTED_EDGE ( 'NONE', *, *, #413, .F. ) ;
#913 = FACE_OUTER_BOUND ( 'NONE', #618, .T. ) ;
#914 = DIRECTION ( 'NONE',  ( -0.0000000000000000000, 1.000000000000000000, -0.0000000000000000000 ) ) ;
#915 = ORIENTED_EDGE ( 'NONE', *, *, #579, .F. ) ;
#916 = DIRECTION ( 'NONE',  ( -0.0000000000000000000, 1.000000000000000000, -0.0000000000000000000 ) ) ;
#917 = PERSON_AND_ORGANIZATION ( #15, #801 ) ;
#918 = DIRECTION ( 'NONE',  ( 1.000000000000000000, 0.0000000000000000000, 0.0000000000000000000 ) ) ;
#919 = ORIENTED_EDGE ( 'NONE', *, *, #910, .F. ) ;
#920 = CARTESIAN_POINT ( 'NONE',  ( 0.0000000000000000000, 33.62647849462362600, 0.0000000000000000000 ) ) ;
#921 = APPROVAL_STATUS ( 'not_yet_approved' ) ;
#922 = DIRECTION ( 'NONE',  ( -0.0000000000000000000, 1.000000000000000000, -0.0000000000000000000 ) ) ;
#923 = CARTESIAN_POINT ( 'NONE',  ( 1.592040838891559500E-014, 33.62647849462362600, -130.0000000000000000 ) ) ;
#924 = CARTESIAN_POINT ( 'NONE',  ( 0.0000000000000000000, 35.72647849462363500, 0.0000000000000000000 ) ) ;
#925 = FACE_OUTER_BOUND ( 'NONE', #166, .T. ) ;
#926 = LOCAL_TIME ( 22, 23, 52.00000000000000000, #905 ) ;
#927 = PERSON_AND_ORGANIZATION ( #627, #580 ) ;
#928 = EDGE_CURVE ( 'NONE', #438, #970, #128, .T. ) ;
#929 = CC_DESIGN_DATE_AND_TIME_ASSIGNMENT ( #675, #634, ( #655 ) ) ;
#930 = CONTEXT_DEPENDENT_SHAPE_REPRESENTATION ( #631, #470 ) ;
#931 = DATE_AND_TIME ( #550, #377 ) ;
#932 = DIRECTION ( 'NONE',  ( -0.0000000000000000000, 1.000000000000000000, -0.0000000000000000000 ) ) ;
#933 = ADVANCED_FACE ( 'NONE', ( #248 ), #175, .T. ) ;
#934 = EDGE_CURVE ( 'NONE', #806, #246, #816, .T. ) ;
#935 = APPROVAL ( #1031, 'UNSPECIFIED' ) ;
#936 = ORIENTED_EDGE ( 'NONE', *, *, #846, .T. ) ;
#937 = CIRCLE ( 'NONE', #193, 2.099999999999990800 ) ;
#938 = CARTESIAN_POINT ( 'NONE',  ( 0.0000000000000000000, -36.27352150537636500, 0.0000000000000000000 ) ) ;
#939 = CARTESIAN_POINT ( 'NONE',  ( 0.0000000000000000000, 33.62647849462362600, 0.0000000000000000000 ) ) ;
#940 = AXIS2_PLACEMENT_3D ( 'NONE', #673, #702, #703 ) ;
#941 = CIRCLE ( 'NONE', #51, 127.8999999999999900 ) ;
#942 = PERSON_AND_ORGANIZATION ( #15, #801 ) ;
#943 = EDGE_CURVE ( 'NONE', #671, #526, #737, .T. ) ;
#944 = APPROVAL_DATE_TIME ( #931, #732 ) ;
#945 = ORIENTED_EDGE ( 'NONE', *, *, #943, .F. ) ;
#946 = SHAPE_DEFINITION_REPRESENTATION ( #974, #278 ) ;
#947 = VECTOR ( 'NONE', #845, 1000.000000000000000 ) ;
#948 = CALENDAR_DATE ( 2017, 30, 3 ) ;
#949 = VERTEX_POINT ( 'NONE', #512 ) ;
#950 = DIRECTION ( 'NONE',  ( 0.0000000000000000000, 0.0000000000000000000, 1.000000000000000000 ) ) ;
#951 = DIRECTION ( 'NONE',  ( 0.0000000000000000000, 0.0000000000000000000, 1.000000000000000000 ) ) ;
#952 = AXIS2_PLACEMENT_3D ( 'NONE', #311, #1007, #216 ) ;
#953 = CC_DESIGN_APPROVAL ( #866, ( #655 ) ) ;
#954 = AXIS2_PLACEMENT_3D ( 'NONE', #726, #617, #626 ) ;
#955 = CALENDAR_DATE ( 2017, 30, 3 ) ;
#956 = ORIENTED_EDGE ( 'NONE', *, *, #686, .F. ) ;
#957 = PERSON_AND_ORGANIZATION ( #15, #801 ) ;
#958 = DATE_TIME_ROLE ( 'creation_date' ) ;
#959 = DIRECTION ( 'NONE',  ( 0.0000000000000000000, 0.0000000000000000000, 1.000000000000000000 ) ) ;
#960 = ITEM_DEFINED_TRANSFORMATION ( 'NONE', 'NONE', #574,  #277 ) ;
#961 = DIRECTION ( 'NONE',  ( -1.000000000000000000, 0.0000000000000000000, 0.0000000000000000000 ) ) ;
#962 = ORIENTED_EDGE ( 'NONE', *, *, #770, .T. ) ;
#963 = APPLICATION_CONTEXT ( 'configuration controlled 3d designs of mechanical parts and assemblies' ) ;
#964 = ORIENTED_EDGE ( 'NONE', *, *, #342, .T. ) ;
#965 = AXIS2_PLACEMENT_3D ( 'NONE', #456, #276, #101 ) ;
#966 = CARTESIAN_POINT ( 'NONE',  ( -127.8999999999999900, 34.22647849462362800, 0.0000000000000000000 ) ) ;
#967 = MECHANICAL_CONTEXT ( 'NONE', #963, 'mechanical' ) ;
#968 = DIRECTION ( 'NONE',  ( 0.0000000000000000000, 0.0000000000000000000, 1.000000000000000000 ) ) ;
#969 = ORIENTED_EDGE ( 'NONE', *, *, #782, .F. ) ;
#970 = VERTEX_POINT ( 'NONE', #1043 ) ;
#971 = CALENDAR_DATE ( 2017, 30, 3 ) ;
#972 = AXIS2_PLACEMENT_3D ( 'NONE', #316, #321, #329 ) ;
#973 = LOCAL_TIME ( 22, 23, 52.00000000000000000, #374 ) ;
#974 = PRODUCT_DEFINITION_SHAPE ( 'NONE', 'NONE',  #760 ) ;
#975 = PRODUCT_DEFINITION_FORMATION_WITH_SPECIFIED_SOURCE ( 'ANY', '', #113, .NOT_KNOWN. ) ;
#976 = APPROVAL_DATE_TIME ( #479, #159 ) ;
#977 = DIRECTION ( 'NONE',  ( -0.0000000000000000000, 1.000000000000000000, -0.0000000000000000000 ) ) ;
#978 = AXIS2_PLACEMENT_3D ( 'NONE', #1, #843, #302 ) ;
#979 = LINE ( 'NONE', #209, #41 ) ;
#980 = CARTESIAN_POINT ( 'NONE',  ( 0.0000000000000000000, 39.17540322580644100, 128.5000000000000000 ) ) ;
#981 = VERTEX_POINT ( 'NONE', #346 ) ;
#982 = PERSON_AND_ORGANIZATION ( #15, #801 ) ;
#983 = MECHANICAL_CONTEXT ( 'NONE', #535, 'mechanical' ) ;
#984 = CARTESIAN_POINT ( 'NONE',  ( 13.00000000000000200, 1.592040838891559300E-015, 0.0000000000000000000 ) ) ;
#985 = EDGE_CURVE ( 'NONE', #839, #326, #257, .T. ) ;
#986 = AXIS2_PLACEMENT_3D ( 'NONE', #324, #727, #1035 ) ;
#987 = ORIENTED_EDGE ( 'NONE', *, *, #255, .F. ) ;
#988 = APPLICATION_PROTOCOL_DEFINITION ( 'international standard', 'config_control_design', 1994, #800 ) ;
#989 = DATE_AND_TIME ( #828, #869 ) ;
#990 = EDGE_CURVE ( 'NONE', #92, #350, #683, .T. ) ;
#991 = AXIS2_PLACEMENT_3D ( 'NONE', #229, #245, #252 ) ;
#992 = DIRECTION ( 'NONE',  ( -0.0000000000000000000, 1.000000000000000000, -0.0000000000000000000 ) ) ;
#993 = ORIENTED_EDGE ( 'NONE', *, *, #1018, .F. ) ;
#994 = PERSON_AND_ORGANIZATION ( #15, #801 ) ;
#995 = CC_DESIGN_PERSON_AND_ORGANIZATION_ASSIGNMENT ( #353, #646, ( #601 ) ) ;
#996 = DATE_TIME_ROLE ( 'classification_date' ) ;
#997 = ORIENTED_EDGE ( 'NONE', *, *, #241, .F. ) ;
#998 = AXIS2_PLACEMENT_3D ( 'NONE', #891, #661, #588 ) ;
#999 = EDGE_CURVE ( 'NONE', #970, #481, #651, .T. ) ;
#1000 = CC_DESIGN_PERSON_AND_ORGANIZATION_ASSIGNMENT ( #927, #691, ( #655 ) ) ;
#1001 = DIRECTION ( 'NONE',  ( 0.0000000000000000000, 0.0000000000000000000, 1.000000000000000000 ) ) ;
#1002 = ORIENTED_EDGE ( 'NONE', *, *, #1013, .F. ) ;
#1003 = PERSON_AND_ORGANIZATION_ROLE ( 'design_owner' ) ;
#1004 = DIRECTION ( 'NONE',  ( 1.224646799147361800E-016, 0.0000000000000000000, -1.000000000000000000 ) ) ;
#1005 = LOCAL_TIME ( 22, 23, 52.00000000000000000, #275 ) ;
#1006 = AXIS2_PLACEMENT_3D ( 'NONE', #165, #215, #289 ) ;
#1007 = DIRECTION ( 'NONE',  ( -1.000000000000000000, 0.0000000000000000000, 0.0000000000000000000 ) ) ;
#1008 = VERTEX_POINT ( 'NONE', #554 ) ;
#1009 = CARTESIAN_POINT ( 'NONE',  ( 0.0000000000000000000, 39.17540322580644100, 127.1977454040929600 ) ) ;
#1010 = ADVANCED_FACE ( 'NONE', ( #156 ), #300, .F. ) ;
#1011 = DATE_AND_TIME ( #433, #86 ) ;
#1012 = CARTESIAN_POINT ( 'NONE',  ( 0.0000000000000000000, 30.42647849462363000, 0.0000000000000000000 ) ) ;
#1013 = EDGE_CURVE ( 'NONE', #332, #438, #721, .T. ) ;
#1014 = CC_DESIGN_APPROVAL ( #115, ( #24 ) ) ;
#1015 = APPLICATION_PROTOCOL_DEFINITION ( 'international standard', 'config_control_design', 1994, #369 ) ;
#1016 = CALENDAR_DATE ( 2017, 30, 3 ) ;
#1017 = DIRECTION ( 'NONE',  ( 0.0000000000000000000, 0.0000000000000000000, 1.000000000000000000 ) ) ;
#1018 = EDGE_CURVE ( 'NONE', #154, #636, #733, .T. ) ;
#1019 = CC_DESIGN_PERSON_AND_ORGANIZATION_ASSIGNMENT ( #590, #604, ( #336 ) ) ;
#1020 = FACE_OUTER_BOUND ( 'NONE', #831, .T. ) ;
#1021 = EDGE_CURVE ( 'NONE', #438, #332, #900, .T. ) ;
#1022 = PERSON_AND_ORGANIZATION ( #15, #801 ) ;
#1023 = VERTEX_POINT ( 'NONE', #73 ) ;
#1024 = CIRCLE ( 'NONE', #664, 128.5000000000000000 ) ;
#1025 = MECHANICAL_CONTEXT ( 'NONE', #18, 'mechanical' ) ;
#1026 = AXIS2_PLACEMENT_3D ( 'NONE', #381, #262, #532 ) ;
#1027 = DIRECTION ( 'NONE',  ( 1.000000000000000000, 0.0000000000000000000, 1.224646799147353200E-016 ) ) ;
#1028 = ORIENTED_EDGE ( 'NONE', *, *, #572, .F. ) ;
#1029 = CIRCLE ( 'NONE', #644, 41.50000000000000700 ) ;
#1030 = VERTEX_POINT ( 'NONE', #110 ) ;
#1031 = APPROVAL_STATUS ( 'not_yet_approved' ) ;
#1032 = CC_DESIGN_DATE_AND_TIME_ASSIGNMENT ( #903, #996, ( #771 ) ) ;
#1033 = DIRECTION ( 'NONE',  ( 0.0000000000000000000, 0.0000000000000000000, 1.000000000000000000 ) ) ;
#1034 = AXIS2_PLACEMENT_3D ( 'NONE', #805, #814, #132 ) ;
#1035 = DIRECTION ( 'NONE',  ( 1.224646799147352700E-016, 0.0000000000000000000, -1.000000000000000000 ) ) ;
#1036 = CC_DESIGN_SECURITY_CLASSIFICATION ( #771, ( #1119 ) ) ;
#1037 = DIRECTION ( 'NONE',  ( -0.0000000000000000000, 1.000000000000000000, 0.0000000000000000000 ) ) ;
#1038 = APPROVAL ( #198, 'UNSPECIFIED' ) ;
#1039 = APPROVAL_STATUS ( 'not_yet_approved' ) ;
#1040 = ORIENTED_EDGE ( 'NONE', *, *, #770, .F. ) ;
#1041 = AXIS2_PLACEMENT_3D ( 'NONE', #161, #169, #179 ) ;
#1042 = DATE_TIME_ROLE ( 'classification_date' ) ;
#1043 = CARTESIAN_POINT ( 'NONE',  ( 0.0000000000000000000, 33.62647849462362600, 127.1977454040929600 ) ) ;
#1044 = FACE_OUTER_BOUND ( 'NONE', #244, .T. ) ;
#1045 = CARTESIAN_POINT ( 'NONE',  ( 0.0000000000000000000, -34.77352150537636500, 0.0000000000000000000 ) ) ;
#1046 = UNCERTAINTY_MEASURE_WITH_UNIT (LENGTH_MEASURE( 1.000000000000000100E-005 ), #488, 'distance_accuracy_value', 'NONE');
#1047 = DIRECTION ( 'NONE',  ( -0.0000000000000000000, 1.000000000000000000, -0.0000000000000000000 ) ) ;
#1048 = DIRECTION ( 'NONE',  ( -0.0000000000000000000, 1.000000000000000000, -0.0000000000000000000 ) ) ;
#1049 = CIRCLE ( 'NONE', #619, 88.49999999999971600 ) ;
#1050 = DIRECTION ( 'NONE',  ( 1.000000000000000000, 0.0000000000000000000, -0.0000000000000000000 ) ) ;
#1051 = ORIENTED_EDGE ( 'NONE', *, *, #901, .T. ) ;
#1052 = FACE_OUTER_BOUND ( 'NONE', #534, .T. ) ;
#1053 =( REPRESENTATION_RELATIONSHIP ('NONE','NONE', #704, #454 ) REPRESENTATION_RELATIONSHIP_WITH_TRANSFORMATION ( #185 )SHAPE_REPRESENTATION_RELATIONSHIP( ) );
#1054 = APPROVAL_STATUS ( 'not_yet_approved' ) ;
#1055 = APPROVAL_ROLE ( '' ) ;
#1056 = LOCAL_TIME ( 22, 23, 52.00000000000000000, #62 ) ;
#1057 = DATE_AND_TIME ( #243, #1060 ) ;
#1058 = APPROVAL_DATE_TIME ( #1057, #818 ) ;
#1059 = ORIENTED_EDGE ( 'NONE', *, *, #397, .F. ) ;
#1060 = LOCAL_TIME ( 22, 23, 52.00000000000000000, #731 ) ;
#1061 = APPROVAL_DATE_TIME ( #989, #858 ) ;
#1062 = FACE_OUTER_BOUND ( 'NONE', #38, .T. ) ;
#1063 = CC_DESIGN_PERSON_AND_ORGANIZATION_ASSIGNMENT ( #676, #362, ( #601 ) ) ;
#1064 = CARTESIAN_POINT ( 'NONE',  ( 0.0000000000000000000, 34.22647849462363500, 0.0000000000000000000 ) ) ;
#1065 = ORIENTED_EDGE ( 'NONE', *, *, #578, .T. ) ;
#1066 = LOCAL_TIME ( 22, 23, 52.00000000000000000, #522 ) ;
#1067 = DATE_AND_TIME ( #692, #268 ) ;
#1068 = EDGE_LOOP ( 'NONE', ( #225, #366, #8, #790 ) ) ;
#1069 = PERSON_AND_ORGANIZATION ( #15, #801 ) ;
#1070 = APPROVAL_PERSON_ORGANIZATION ( #799, #732, #898 ) ;
#1071 = PERSON_AND_ORGANIZATION ( #15, #801 ) ;
#1072 = AXIS2_PLACEMENT_3D ( 'NONE', #920, #54, #333 ) ;
#1073 = EDGE_LOOP ( 'NONE', ( #19, #72, #151, #187 ) ) ;
#1074 = CC_DESIGN_DATE_AND_TIME_ASSIGNMENT ( #684, #602, ( #803 ) ) ;
#1075 = DIRECTION ( 'NONE',  ( 1.000000000000000000, 0.0000000000000000000, 0.0000000000000000000 ) ) ;
#1076 = LINE ( 'NONE', #759, #177 ) ;
#1077 = EDGE_CURVE ( 'NONE', #400, #117, #793, .T. ) ;
#1078 = PRODUCT_DEFINITION_SHAPE ( 'NONE', 'NONE',  #803 ) ;
#1079 = FACE_OUTER_BOUND ( 'NONE', #74, .T. ) ;
#1080 = EDGE_CURVE ( 'NONE', #844, #806, #183, .T. ) ;
#1081 = APPROVAL_ROLE ( '' ) ;
#1082 = CARTESIAN_POINT ( 'NONE',  ( 0.0000000000000000000, -34.77352150537636500, 88.49999999999971600 ) ) ;
#1083 = DIRECTION ( 'NONE',  ( -1.000000000000000000, 0.0000000000000000000, 0.0000000000000000000 ) ) ;
#1084 = ORIENTED_EDGE ( 'NONE', *, *, #690, .T. ) ;
#1085 = ADVANCED_FACE ( 'NONE', ( #407 ), #546, .T. ) ;
#1086 = AXIS2_PLACEMENT_3D ( 'NONE', #279, #281, #285 ) ;
#1087 = DATE_AND_TIME ( #971, #583 ) ;
#1088 = COORDINATED_UNIVERSAL_TIME_OFFSET ( 1, 0, .AHEAD. ) ;
#1089 = DIRECTION ( 'NONE',  ( 0.0000000000000000000, -1.000000000000000000, 0.0000000000000000000 ) ) ;
#1090 = ADVANCED_FACE ( 'NONE', ( #638 ), #230, .F. ) ;
#1091 = AXIS2_PLACEMENT_3D ( 'NONE', #1094, #795, #355 ) ;
#1092 = CARTESIAN_POINT ( 'NONE',  ( 0.0000000000000000000, 33.62647849462362600, 0.0000000000000000000 ) ) ;
#1093 = DIRECTION ( 'NONE',  ( 1.000000000000000000, 0.0000000000000000000, 1.224646799147353200E-016 ) ) ;
#1094 = CARTESIAN_POINT ( 'NONE',  ( 0.0000000000000000000, 33.62647849462362600, 0.0000000000000000000 ) ) ;
#1095 = ADVANCED_FACE ( 'NONE', ( #450 ), #743, .F. ) ;
#1096 = EDGE_LOOP ( 'NONE', ( #883, #606, #1059, #371 ) ) ;
#1097 = ADVANCED_FACE ( 'NONE', ( #61 ), #28, .T. ) ;
#1098 = CARTESIAN_POINT ( 'NONE',  ( 1.083812417245407600E-014, 5.226478494623633800, -88.50000000000001400 ) ) ;
#1099 = ORGANIZATION ( 'NAUO-ORG4', 'UNSPECIFIED', 'UNSPECIFIED' ) ;
#1100 = CARTESIAN_POINT ( 'NONE',  ( 0.0000000000000000000, 5.226478494623910900, 0.0000000000000000000 ) ) ;
#1101 = APPROVAL_PERSON_ORGANIZATION ( #1022, #818, #1055 ) ;
#1102 = CARTESIAN_POINT ( 'NONE',  ( 0.0000000000000000000, 5.226478494623633800, 88.50000000000001400 ) ) ;
#1103 = EDGE_CURVE ( 'NONE', #350, #92, #356, .T. ) ;
#1104 = ORIENTED_EDGE ( 'NONE', *, *, #499, .F. ) ;
#1105 = EDGE_LOOP ( 'NONE', ( #449, #660, #962, #997 ) ) ;
#1106 = APPROVAL_ROLE ( '' ) ;
#1107 = TOROIDAL_SURFACE ( 'NONE', #106, 127.8000000000000000, 2.099999999999997900 ) ;
#1108 = ORIENTED_EDGE ( 'NONE', *, *, #681, .F. ) ;
#1109 = ORIENTED_EDGE ( 'NONE', *, *, #774, .T. ) ;
#1110 = PERSON_AND_ORGANIZATION ( #15, #801 ) ;
#1111 = PERSON_AND_ORGANIZATION_ROLE ( 'creator' ) ;
#1112 = CIRCLE ( 'NONE', #565, 130.0000000000000000 ) ;
#1113 = FACE_OUTER_BOUND ( 'NONE', #163, .T. ) ;
#1114 = PLANE ( 'NONE',  #383 ) ;
#1115 = CC_DESIGN_SECURITY_CLASSIFICATION ( #336, ( #6 ) ) ;
#1116 = EDGE_CURVE ( 'NONE', #117, #400, #149, .T. ) ;
#1117 = CC_DESIGN_PERSON_AND_ORGANIZATION_ASSIGNMENT ( #291, #406, ( #6 ) ) ;
#1118 = NEXT_ASSEMBLY_USAGE_OCCURRENCE ( 'NAUO1', ' ', ' ', #343, #760, $ ) ;
#1119 = NEXT_ASSEMBLY_USAGE_OCCURRENCE ( 'NAUO2', ' ', ' ', #343, #803, $ ) ;
#1120 = NEXT_ASSEMBLY_USAGE_OCCURRENCE ( 'NAUO3', ' ', ' ', #343, #803, $ ) ;
#1121 = NEXT_ASSEMBLY_USAGE_OCCURRENCE ( 'NAUO4', ' ', ' ', #343, #803, $ ) ;
ENDSEC;
END-ISO-10303-21;
