ISO-10303-21;
HEADER;
/* Generated by software containing ST-Developer
 * from STEP Tools, Inc. (www.steptools.com) 
 */

FILE_DESCRIPTION(
/* description */ (''),
/* implementation_level */ '2;1');

FILE_NAME(
/* name */ 'd02e6e98-ec7c-4169-899c-ce8a9bfefd51.stp',
/* time_stamp */ '2026-07-05T18:02:03Z',
/* author */ (''),
/* organization */ (''),
/* preprocessor_version */ 'ST-DEVELOPER v20.1',
/* originating_system */ 'Autodesk Translation Framework v15.8.0.0',
/* authorisation */ '');

FILE_SCHEMA (('AUTOMOTIVE_DESIGN { 1 0 10303 214 3 1 1 }'));
ENDSEC;

DATA;
#10=MECHANICAL_DESIGN_GEOMETRIC_PRESENTATION_REPRESENTATION('',(#25),#1860);
#11=ITEM_DEFINED_TRANSFORMATION($,$,#1056,#1191);
#12=ITEM_DEFINED_TRANSFORMATION($,$,#1055,#1193);
#13=ITEM_DEFINED_TRANSFORMATION($,$,#1192,#1194);
#14=(
REPRESENTATION_RELATIONSHIP($,$,#1878,#1877)
REPRESENTATION_RELATIONSHIP_WITH_TRANSFORMATION(#11)
SHAPE_REPRESENTATION_RELATIONSHIP()
);
#15=(
REPRESENTATION_RELATIONSHIP($,$,#1877,#1876)
REPRESENTATION_RELATIONSHIP_WITH_TRANSFORMATION(#12)
SHAPE_REPRESENTATION_RELATIONSHIP()
);
#16=(
REPRESENTATION_RELATIONSHIP($,$,#1879,#1876)
REPRESENTATION_RELATIONSHIP_WITH_TRANSFORMATION(#13)
SHAPE_REPRESENTATION_RELATIONSHIP()
);
#17=CONTEXT_DEPENDENT_SHAPE_REPRESENTATION(#14,#1872);
#18=CONTEXT_DEPENDENT_SHAPE_REPRESENTATION(#15,#1874);
#19=CONTEXT_DEPENDENT_SHAPE_REPRESENTATION(#16,#1875);
#20=NEXT_ASSEMBLY_USAGE_OCCURRENCE('Titan-M8 v2:1','Titan-M8 v2:1',
'Titan-M8 v2:1',#1882,#1883,'Titan-M8 v2:1');
#21=NEXT_ASSEMBLY_USAGE_OCCURRENCE('CAM Component:1','CAM Component:1',
'CAM Component:1',#1881,#1882,'CAM Component:1');
#22=NEXT_ASSEMBLY_USAGE_OCCURRENCE('Machines:1','Machines:1',
'Machines:1',#1881,#1884,'Machines:1');
#23=SHAPE_REPRESENTATION_RELATIONSHIP('SRR','None',#1878,#24);
#24=ADVANCED_BREP_SHAPE_REPRESENTATION('',(#26),#1858);
#25=STYLED_ITEM('',(#1900),#26);
#26=MANIFOLD_SOLID_BREP('Body1',#1041);
#27=CONICAL_SURFACE('',#1133,24.765,0.785398163397448);
#28=CONICAL_SURFACE('',#1134,9.525,0.785398163397445);
#29=CONICAL_SURFACE('',#1135,9.525,0.785398163397452);
#30=CONICAL_SURFACE('',#1138,9.525,0.785398163397448);
#31=CONICAL_SURFACE('',#1139,9.525,0.785398163397448);
#32=CONICAL_SURFACE('',#1140,9.9949,0.785398163397448);
#33=CONICAL_SURFACE('',#1141,9.9949,0.785398163397448);
#34=CONICAL_SURFACE('',#1142,9.525,0.785398163397448);
#35=CONICAL_SURFACE('',#1143,9.525,0.785398163397452);
#36=CONICAL_SURFACE('',#1146,9.525,0.785398163397448);
#37=CONICAL_SURFACE('',#1147,9.525,0.785398163397448);
#38=CONICAL_SURFACE('',#1148,24.765,0.785398163397448);
#39=CONICAL_SURFACE('',#1149,24.5110000000001,0.785398163397442);
#40=CONICAL_SURFACE('',#1150,9.77899999999996,0.785398163397452);
#41=CONICAL_SURFACE('',#1151,9.77899999999996,0.785398163397452);
#42=CONICAL_SURFACE('',#1154,9.77899999999996,0.785398163397452);
#43=CONICAL_SURFACE('',#1155,9.77899999999996,0.785398163397452);
#44=CONICAL_SURFACE('',#1156,9.74090000000004,0.785398163397448);
#45=CONICAL_SURFACE('',#1157,9.74090000000004,0.785398163397452);
#46=CONICAL_SURFACE('',#1158,9.77899999999996,0.785398163397448);
#47=CONICAL_SURFACE('',#1159,9.77899999999996,0.785398163397452);
#48=CONICAL_SURFACE('',#1162,9.77899999999996,0.785398163397452);
#49=CONICAL_SURFACE('',#1163,9.77899999999996,0.785398163397448);
#50=CONICAL_SURFACE('',#1164,24.5110000000001,0.785398163397448);
#51=CONICAL_SURFACE('',#1178,6.985,0.78539816339745);
#52=CONICAL_SURFACE('',#1179,6.985,0.78539816339745);
#53=CONICAL_SURFACE('',#1180,17.526,0.785398163397421);
#54=FACE_BOUND('',#170,.T.);
#55=FACE_BOUND('',#171,.T.);
#56=FACE_BOUND('',#173,.T.);
#57=FACE_BOUND('',#174,.T.);
#58=FACE_BOUND('',#209,.T.);
#59=FACE_BOUND('',#212,.T.);
#60=FACE_BOUND('',#219,.T.);
#61=FACE_BOUND('',#221,.T.);
#62=FACE_BOUND('',#224,.T.);
#63=FACE_BOUND('',#226,.T.);
#64=PLANE('',#1072);
#65=PLANE('',#1082);
#66=PLANE('',#1092);
#67=PLANE('',#1102);
#68=PLANE('',#1103);
#69=PLANE('',#1118);
#70=PLANE('',#1136);
#71=PLANE('',#1137);
#72=PLANE('',#1144);
#73=PLANE('',#1145);
#74=PLANE('',#1152);
#75=PLANE('',#1153);
#76=PLANE('',#1160);
#77=PLANE('',#1161);
#78=PLANE('',#1167);
#79=PLANE('',#1172);
#80=PLANE('',#1181);
#81=PLANE('',#1183);
#82=PLANE('',#1186);
#83=PLANE('',#1188);
#84=FACE_OUTER_BOUND('',#151,.T.);
#85=FACE_OUTER_BOUND('',#152,.T.);
#86=FACE_OUTER_BOUND('',#153,.T.);
#87=FACE_OUTER_BOUND('',#154,.T.);
#88=FACE_OUTER_BOUND('',#155,.T.);
#89=FACE_OUTER_BOUND('',#156,.T.);
#90=FACE_OUTER_BOUND('',#157,.T.);
#91=FACE_OUTER_BOUND('',#158,.T.);
#92=FACE_OUTER_BOUND('',#159,.T.);
#93=FACE_OUTER_BOUND('',#160,.T.);
#94=FACE_OUTER_BOUND('',#161,.T.);
#95=FACE_OUTER_BOUND('',#162,.T.);
#96=FACE_OUTER_BOUND('',#163,.T.);
#97=FACE_OUTER_BOUND('',#164,.T.);
#98=FACE_OUTER_BOUND('',#165,.T.);
#99=FACE_OUTER_BOUND('',#166,.T.);
#100=FACE_OUTER_BOUND('',#167,.T.);
#101=FACE_OUTER_BOUND('',#168,.T.);
#102=FACE_OUTER_BOUND('',#169,.T.);
#103=FACE_OUTER_BOUND('',#172,.T.);
#104=FACE_OUTER_BOUND('',#175,.T.);
#105=FACE_OUTER_BOUND('',#176,.T.);
#106=FACE_OUTER_BOUND('',#177,.T.);
#107=FACE_OUTER_BOUND('',#178,.T.);
#108=FACE_OUTER_BOUND('',#179,.T.);
#109=FACE_OUTER_BOUND('',#180,.T.);
#110=FACE_OUTER_BOUND('',#181,.T.);
#111=FACE_OUTER_BOUND('',#182,.T.);
#112=FACE_OUTER_BOUND('',#183,.T.);
#113=FACE_OUTER_BOUND('',#184,.T.);
#114=FACE_OUTER_BOUND('',#185,.T.);
#115=FACE_OUTER_BOUND('',#186,.T.);
#116=FACE_OUTER_BOUND('',#187,.T.);
#117=FACE_OUTER_BOUND('',#188,.T.);
#118=FACE_OUTER_BOUND('',#189,.T.);
#119=FACE_OUTER_BOUND('',#190,.T.);
#120=FACE_OUTER_BOUND('',#191,.T.);
#121=FACE_OUTER_BOUND('',#192,.T.);
#122=FACE_OUTER_BOUND('',#193,.T.);
#123=FACE_OUTER_BOUND('',#194,.T.);
#124=FACE_OUTER_BOUND('',#195,.T.);
#125=FACE_OUTER_BOUND('',#196,.T.);
#126=FACE_OUTER_BOUND('',#197,.T.);
#127=FACE_OUTER_BOUND('',#198,.T.);
#128=FACE_OUTER_BOUND('',#199,.T.);
#129=FACE_OUTER_BOUND('',#200,.T.);
#130=FACE_OUTER_BOUND('',#201,.T.);
#131=FACE_OUTER_BOUND('',#202,.T.);
#132=FACE_OUTER_BOUND('',#203,.T.);
#133=FACE_OUTER_BOUND('',#204,.T.);
#134=FACE_OUTER_BOUND('',#205,.T.);
#135=FACE_OUTER_BOUND('',#206,.T.);
#136=FACE_OUTER_BOUND('',#207,.T.);
#137=FACE_OUTER_BOUND('',#208,.T.);
#138=FACE_OUTER_BOUND('',#210,.T.);
#139=FACE_OUTER_BOUND('',#211,.T.);
#140=FACE_OUTER_BOUND('',#213,.T.);
#141=FACE_OUTER_BOUND('',#214,.T.);
#142=FACE_OUTER_BOUND('',#215,.T.);
#143=FACE_OUTER_BOUND('',#216,.T.);
#144=FACE_OUTER_BOUND('',#217,.T.);
#145=FACE_OUTER_BOUND('',#218,.T.);
#146=FACE_OUTER_BOUND('',#220,.T.);
#147=FACE_OUTER_BOUND('',#222,.T.);
#148=FACE_OUTER_BOUND('',#223,.T.);
#149=FACE_OUTER_BOUND('',#225,.T.);
#150=FACE_OUTER_BOUND('',#227,.T.);
#151=EDGE_LOOP('',(#670,#671,#672,#673));
#152=EDGE_LOOP('',(#674,#675,#676,#677));
#153=EDGE_LOOP('',(#678,#679,#680,#681));
#154=EDGE_LOOP('',(#682,#683,#684,#685));
#155=EDGE_LOOP('',(#686,#687,#688,#689));
#156=EDGE_LOOP('',(#690,#691,#692,#693));
#157=EDGE_LOOP('',(#694,#695,#696,#697));
#158=EDGE_LOOP('',(#698,#699,#700,#701));
#159=EDGE_LOOP('',(#702,#703,#704,#705));
#160=EDGE_LOOP('',(#706,#707,#708,#709));
#161=EDGE_LOOP('',(#710,#711,#712,#713));
#162=EDGE_LOOP('',(#714,#715,#716,#717));
#163=EDGE_LOOP('',(#718,#719,#720,#721));
#164=EDGE_LOOP('',(#722,#723,#724,#725));
#165=EDGE_LOOP('',(#726,#727,#728,#729));
#166=EDGE_LOOP('',(#730,#731,#732,#733));
#167=EDGE_LOOP('',(#734,#735,#736,#737));
#168=EDGE_LOOP('',(#738,#739,#740,#741));
#169=EDGE_LOOP('',(#742,#743,#744,#745,#746,#747,#748,#749,#750,#751,#752,
#753,#754,#755,#756,#757));
#170=EDGE_LOOP('',(#758));
#171=EDGE_LOOP('',(#759));
#172=EDGE_LOOP('',(#760,#761,#762,#763,#764,#765,#766,#767,#768,#769,#770,
#771,#772,#773,#774,#775));
#173=EDGE_LOOP('',(#776));
#174=EDGE_LOOP('',(#777));
#175=EDGE_LOOP('',(#778,#779,#780,#781));
#176=EDGE_LOOP('',(#782,#783,#784,#785));
#177=EDGE_LOOP('',(#786,#787,#788,#789));
#178=EDGE_LOOP('',(#790,#791,#792,#793));
#179=EDGE_LOOP('',(#794,#795,#796,#797));
#180=EDGE_LOOP('',(#798,#799,#800,#801));
#181=EDGE_LOOP('',(#802,#803,#804,#805));
#182=EDGE_LOOP('',(#806,#807,#808,#809));
#183=EDGE_LOOP('',(#810,#811,#812,#813));
#184=EDGE_LOOP('',(#814,#815,#816,#817));
#185=EDGE_LOOP('',(#818,#819,#820,#821));
#186=EDGE_LOOP('',(#822,#823,#824,#825));
#187=EDGE_LOOP('',(#826,#827,#828,#829));
#188=EDGE_LOOP('',(#830,#831,#832,#833));
#189=EDGE_LOOP('',(#834,#835,#836,#837));
#190=EDGE_LOOP('',(#838,#839,#840,#841));
#191=EDGE_LOOP('',(#842,#843,#844,#845));
#192=EDGE_LOOP('',(#846,#847,#848,#849));
#193=EDGE_LOOP('',(#850,#851,#852,#853));
#194=EDGE_LOOP('',(#854,#855,#856,#857));
#195=EDGE_LOOP('',(#858,#859,#860,#861));
#196=EDGE_LOOP('',(#862,#863,#864,#865));
#197=EDGE_LOOP('',(#866,#867,#868,#869));
#198=EDGE_LOOP('',(#870,#871,#872,#873));
#199=EDGE_LOOP('',(#874,#875,#876,#877));
#200=EDGE_LOOP('',(#878,#879,#880,#881));
#201=EDGE_LOOP('',(#882,#883,#884,#885));
#202=EDGE_LOOP('',(#886,#887,#888,#889));
#203=EDGE_LOOP('',(#890,#891,#892,#893));
#204=EDGE_LOOP('',(#894,#895,#896,#897));
#205=EDGE_LOOP('',(#898,#899,#900,#901));
#206=EDGE_LOOP('',(#902,#903,#904,#905));
#207=EDGE_LOOP('',(#906,#907,#908,#909));
#208=EDGE_LOOP('',(#910));
#209=EDGE_LOOP('',(#911));
#210=EDGE_LOOP('',(#912,#913,#914,#915));
#211=EDGE_LOOP('',(#916));
#212=EDGE_LOOP('',(#917));
#213=EDGE_LOOP('',(#918,#919,#920,#921));
#214=EDGE_LOOP('',(#922,#923,#924,#925));
#215=EDGE_LOOP('',(#926,#927,#928,#929));
#216=EDGE_LOOP('',(#930,#931,#932,#933));
#217=EDGE_LOOP('',(#934,#935,#936,#937));
#218=EDGE_LOOP('',(#938));
#219=EDGE_LOOP('',(#939));
#220=EDGE_LOOP('',(#940));
#221=EDGE_LOOP('',(#941));
#222=EDGE_LOOP('',(#942,#943,#944,#945));
#223=EDGE_LOOP('',(#946));
#224=EDGE_LOOP('',(#947));
#225=EDGE_LOOP('',(#948));
#226=EDGE_LOOP('',(#949));
#227=EDGE_LOOP('',(#950,#951,#952,#953));
#228=LINE('',#1559,#303);
#229=LINE('',#1565,#304);
#230=LINE('',#1570,#305);
#231=LINE('',#1574,#306);
#232=LINE('',#1580,#307);
#233=LINE('',#1586,#308);
#234=LINE('',#1590,#309);
#235=LINE('',#1592,#310);
#236=LINE('',#1593,#311);
#237=LINE('',#1598,#312);
#238=LINE('',#1604,#313);
#239=LINE('',#1610,#314);
#240=LINE('',#1614,#315);
#241=LINE('',#1616,#316);
#242=LINE('',#1617,#317);
#243=LINE('',#1622,#318);
#244=LINE('',#1628,#319);
#245=LINE('',#1634,#320);
#246=LINE('',#1638,#321);
#247=LINE('',#1640,#322);
#248=LINE('',#1641,#323);
#249=LINE('',#1646,#324);
#250=LINE('',#1652,#325);
#251=LINE('',#1658,#326);
#252=LINE('',#1661,#327);
#253=LINE('',#1662,#328);
#254=LINE('',#1672,#329);
#255=LINE('',#1680,#330);
#256=LINE('',#1688,#331);
#257=LINE('',#1695,#332);
#258=LINE('',#1709,#333);
#259=LINE('',#1717,#334);
#260=LINE('',#1725,#335);
#261=LINE('',#1732,#336);
#262=LINE('',#1738,#337);
#263=LINE('',#1739,#338);
#264=LINE('',#1741,#339);
#265=LINE('',#1743,#340);
#266=LINE('',#1745,#341);
#267=LINE('',#1747,#342);
#268=LINE('',#1749,#343);
#269=LINE('',#1751,#344);
#270=LINE('',#1753,#345);
#271=LINE('',#1755,#346);
#272=LINE('',#1757,#347);
#273=LINE('',#1759,#348);
#274=LINE('',#1761,#349);
#275=LINE('',#1763,#350);
#276=LINE('',#1765,#351);
#277=LINE('',#1767,#352);
#278=LINE('',#1770,#353);
#279=LINE('',#1771,#354);
#280=LINE('',#1773,#355);
#281=LINE('',#1775,#356);
#282=LINE('',#1777,#357);
#283=LINE('',#1779,#358);
#284=LINE('',#1781,#359);
#285=LINE('',#1783,#360);
#286=LINE('',#1785,#361);
#287=LINE('',#1787,#362);
#288=LINE('',#1789,#363);
#289=LINE('',#1791,#364);
#290=LINE('',#1793,#365);
#291=LINE('',#1795,#366);
#292=LINE('',#1797,#367);
#293=LINE('',#1799,#368);
#294=LINE('',#1804,#369);
#295=LINE('',#1812,#370);
#296=LINE('',#1819,#371);
#297=LINE('',#1823,#372);
#298=LINE('',#1826,#373);
#299=LINE('',#1828,#374);
#300=LINE('',#1830,#375);
#301=LINE('',#1838,#376);
#302=LINE('',#1846,#377);
#303=VECTOR('',#1205,17.526);
#304=VECTOR('',#1212,17.526);
#305=VECTOR('',#1217,18.542);
#306=VECTOR('',#1220,18.542);
#307=VECTOR('',#1227,18.542);
#308=VECTOR('',#1234,18.542);
#309=VECTOR('',#1239,2.86886850232462);
#310=VECTOR('',#1240,18.542);
#311=VECTOR('',#1241,2.86886850232462);
#312=VECTOR('',#1246,18.542);
#313=VECTOR('',#1253,18.542);
#314=VECTOR('',#1260,18.542);
#315=VECTOR('',#1265,2.8688685023246);
#316=VECTOR('',#1266,18.542);
#317=VECTOR('',#1267,2.8688685023246);
#318=VECTOR('',#1272,18.542);
#319=VECTOR('',#1279,18.542);
#320=VECTOR('',#1286,18.542);
#321=VECTOR('',#1291,2.8688685023246);
#322=VECTOR('',#1292,18.542);
#323=VECTOR('',#1293,2.8688685023246);
#324=VECTOR('',#1298,18.542);
#325=VECTOR('',#1305,18.542);
#326=VECTOR('',#1312,18.542);
#327=VECTOR('',#1317,2.86886850232461);
#328=VECTOR('',#1318,2.86886850232461);
#329=VECTOR('',#1327,2.86886850232462);
#330=VECTOR('',#1334,2.8688685023246);
#331=VECTOR('',#1341,2.8688685023246);
#332=VECTOR('',#1348,2.86886850232461);
#333=VECTOR('',#1361,2.8688685023246);
#334=VECTOR('',#1368,2.86886850232462);
#335=VECTOR('',#1375,2.86886850232461);
#336=VECTOR('',#1382,2.8688685023246);
#337=VECTOR('',#1389,0.359210244842862);
#338=VECTOR('',#1390,0.359210244842859);
#339=VECTOR('',#1393,0.359210244842859);
#340=VECTOR('',#1396,0.359210244842861);
#341=VECTOR('',#1399,0.359210244842859);
#342=VECTOR('',#1402,0.359210244842861);
#343=VECTOR('',#1405,0.359210244842863);
#344=VECTOR('',#1408,0.359210244842861);
#345=VECTOR('',#1411,0.359210244842859);
#346=VECTOR('',#1414,0.359210244842861);
#347=VECTOR('',#1417,0.35921024484286);
#348=VECTOR('',#1420,0.359210244842862);
#349=VECTOR('',#1423,0.359210244842863);
#350=VECTOR('',#1426,0.359210244842861);
#351=VECTOR('',#1429,0.359210244842862);
#352=VECTOR('',#1432,0.359210244842859);
#353=VECTOR('',#1437,0.359210244842709);
#354=VECTOR('',#1438,0.359210244842705);
#355=VECTOR('',#1441,0.359210244842708);
#356=VECTOR('',#1444,0.359210244842708);
#357=VECTOR('',#1447,0.359210244842708);
#358=VECTOR('',#1450,0.35921024484271);
#359=VECTOR('',#1453,0.359210244842709);
#360=VECTOR('',#1456,0.35921024484271);
#361=VECTOR('',#1459,0.359210244842708);
#362=VECTOR('',#1462,0.359210244842709);
#363=VECTOR('',#1465,0.359210244842707);
#364=VECTOR('',#1468,0.359210244842709);
#365=VECTOR('',#1471,0.359210244842708);
#366=VECTOR('',#1474,0.359210244842708);
#367=VECTOR('',#1477,0.35921024484271);
#368=VECTOR('',#1480,0.359210244842709);
#369=VECTOR('',#1487,17.526);
#370=VECTOR('',#1496,17.526);
#371=VECTOR('',#1505,6.985);
#372=VECTOR('',#1510,6.985);
#373=VECTOR('',#1515,6.985);
#374=VECTOR('',#1518,6.985);
#375=VECTOR('',#1521,17.526);
#376=VECTOR('',#1532,20.32);
#377=VECTOR('',#1543,20.32);
#378=CIRCLE('',#1058,17.526);
#379=CIRCLE('',#1059,17.526);
#380=CIRCLE('',#1061,17.526);
#381=CIRCLE('',#1062,17.526);
#382=CIRCLE('',#1064,9.525);
#383=CIRCLE('',#1065,9.525);
#384=CIRCLE('',#1067,24.765);
#385=CIRCLE('',#1068,24.765);
#386=CIRCLE('',#1070,9.525);
#387=CIRCLE('',#1071,9.525);
#388=CIRCLE('',#1074,9.525);
#389=CIRCLE('',#1075,9.525);
#390=CIRCLE('',#1077,9.9949);
#391=CIRCLE('',#1078,9.9949);
#392=CIRCLE('',#1080,9.525);
#393=CIRCLE('',#1081,9.525);
#394=CIRCLE('',#1084,9.525);
#395=CIRCLE('',#1085,9.525);
#396=CIRCLE('',#1087,24.765);
#397=CIRCLE('',#1088,24.765);
#398=CIRCLE('',#1090,9.525);
#399=CIRCLE('',#1091,9.525);
#400=CIRCLE('',#1094,9.525);
#401=CIRCLE('',#1095,9.525);
#402=CIRCLE('',#1097,9.9949);
#403=CIRCLE('',#1098,9.9949);
#404=CIRCLE('',#1100,9.525);
#405=CIRCLE('',#1101,9.525);
#406=CIRCLE('',#1104,9.77899999999996);
#407=CIRCLE('',#1105,24.5110000000001);
#408=CIRCLE('',#1106,9.77899999999996);
#409=CIRCLE('',#1107,9.77899999999996);
#410=CIRCLE('',#1108,9.74090000000004);
#411=CIRCLE('',#1109,9.77899999999996);
#412=CIRCLE('',#1110,9.77899999999996);
#413=CIRCLE('',#1111,24.5110000000001);
#414=CIRCLE('',#1112,9.77899999999996);
#415=CIRCLE('',#1113,9.77899999999996);
#416=CIRCLE('',#1114,9.74090000000004);
#417=CIRCLE('',#1115,9.77899999999996);
#418=CIRCLE('',#1116,17.78);
#419=CIRCLE('',#1117,17.526);
#420=CIRCLE('',#1119,9.77900000000007);
#421=CIRCLE('',#1120,24.5109999999999);
#422=CIRCLE('',#1121,9.77900000000007);
#423=CIRCLE('',#1122,9.77900000000006);
#424=CIRCLE('',#1123,9.74089999999994);
#425=CIRCLE('',#1124,9.77900000000006);
#426=CIRCLE('',#1125,9.77900000000006);
#427=CIRCLE('',#1126,24.511);
#428=CIRCLE('',#1127,9.77900000000006);
#429=CIRCLE('',#1128,9.77900000000006);
#430=CIRCLE('',#1129,9.74089999999994);
#431=CIRCLE('',#1130,9.77900000000006);
#432=CIRCLE('',#1131,6.985);
#433=CIRCLE('',#1132,6.985);
#434=CIRCLE('',#1166,17.526);
#435=CIRCLE('',#1168,8.25500000000003);
#436=CIRCLE('',#1170,17.526);
#437=CIRCLE('',#1171,17.526);
#438=CIRCLE('',#1173,8.25500000000003);
#439=CIRCLE('',#1175,6.985);
#440=CIRCLE('',#1177,6.985);
#441=CIRCLE('',#1182,20.32);
#442=CIRCLE('',#1184,20.32);
#443=CIRCLE('',#1187,20.32);
#444=CIRCLE('',#1189,20.32);
#445=VERTEX_POINT('',#1556);
#446=VERTEX_POINT('',#1558);
#447=VERTEX_POINT('',#1562);
#448=VERTEX_POINT('',#1564);
#449=VERTEX_POINT('',#1568);
#450=VERTEX_POINT('',#1569);
#451=VERTEX_POINT('',#1571);
#452=VERTEX_POINT('',#1573);
#453=VERTEX_POINT('',#1577);
#454=VERTEX_POINT('',#1579);
#455=VERTEX_POINT('',#1583);
#456=VERTEX_POINT('',#1585);
#457=VERTEX_POINT('',#1589);
#458=VERTEX_POINT('',#1591);
#459=VERTEX_POINT('',#1595);
#460=VERTEX_POINT('',#1597);
#461=VERTEX_POINT('',#1601);
#462=VERTEX_POINT('',#1603);
#463=VERTEX_POINT('',#1607);
#464=VERTEX_POINT('',#1609);
#465=VERTEX_POINT('',#1613);
#466=VERTEX_POINT('',#1615);
#467=VERTEX_POINT('',#1619);
#468=VERTEX_POINT('',#1621);
#469=VERTEX_POINT('',#1625);
#470=VERTEX_POINT('',#1627);
#471=VERTEX_POINT('',#1631);
#472=VERTEX_POINT('',#1633);
#473=VERTEX_POINT('',#1637);
#474=VERTEX_POINT('',#1639);
#475=VERTEX_POINT('',#1643);
#476=VERTEX_POINT('',#1645);
#477=VERTEX_POINT('',#1649);
#478=VERTEX_POINT('',#1651);
#479=VERTEX_POINT('',#1655);
#480=VERTEX_POINT('',#1657);
#481=VERTEX_POINT('',#1664);
#482=VERTEX_POINT('',#1665);
#483=VERTEX_POINT('',#1667);
#484=VERTEX_POINT('',#1669);
#485=VERTEX_POINT('',#1671);
#486=VERTEX_POINT('',#1673);
#487=VERTEX_POINT('',#1675);
#488=VERTEX_POINT('',#1677);
#489=VERTEX_POINT('',#1679);
#490=VERTEX_POINT('',#1681);
#491=VERTEX_POINT('',#1683);
#492=VERTEX_POINT('',#1685);
#493=VERTEX_POINT('',#1687);
#494=VERTEX_POINT('',#1689);
#495=VERTEX_POINT('',#1691);
#496=VERTEX_POINT('',#1693);
#497=VERTEX_POINT('',#1696);
#498=VERTEX_POINT('',#1698);
#499=VERTEX_POINT('',#1701);
#500=VERTEX_POINT('',#1702);
#501=VERTEX_POINT('',#1704);
#502=VERTEX_POINT('',#1706);
#503=VERTEX_POINT('',#1708);
#504=VERTEX_POINT('',#1710);
#505=VERTEX_POINT('',#1712);
#506=VERTEX_POINT('',#1714);
#507=VERTEX_POINT('',#1716);
#508=VERTEX_POINT('',#1718);
#509=VERTEX_POINT('',#1720);
#510=VERTEX_POINT('',#1722);
#511=VERTEX_POINT('',#1724);
#512=VERTEX_POINT('',#1726);
#513=VERTEX_POINT('',#1728);
#514=VERTEX_POINT('',#1730);
#515=VERTEX_POINT('',#1733);
#516=VERTEX_POINT('',#1735);
#517=VERTEX_POINT('',#1802);
#518=VERTEX_POINT('',#1806);
#519=VERTEX_POINT('',#1809);
#520=VERTEX_POINT('',#1811);
#521=VERTEX_POINT('',#1815);
#522=VERTEX_POINT('',#1818);
#523=VERTEX_POINT('',#1822);
#524=VERTEX_POINT('',#1832);
#525=VERTEX_POINT('',#1835);
#526=VERTEX_POINT('',#1840);
#527=VERTEX_POINT('',#1843);
#528=EDGE_CURVE('',#445,#445,#378,.T.);
#529=EDGE_CURVE('',#445,#446,#228,.T.);
#530=EDGE_CURVE('',#446,#446,#379,.F.);
#531=EDGE_CURVE('',#447,#447,#380,.T.);
#532=EDGE_CURVE('',#447,#448,#229,.T.);
#533=EDGE_CURVE('',#448,#448,#381,.F.);
#534=EDGE_CURVE('',#449,#450,#230,.T.);
#535=EDGE_CURVE('',#450,#451,#382,.T.);
#536=EDGE_CURVE('',#452,#451,#231,.T.);
#537=EDGE_CURVE('',#452,#449,#383,.F.);
#538=EDGE_CURVE('',#451,#453,#384,.F.);
#539=EDGE_CURVE('',#454,#453,#232,.T.);
#540=EDGE_CURVE('',#454,#452,#385,.T.);
#541=EDGE_CURVE('',#453,#455,#386,.T.);
#542=EDGE_CURVE('',#456,#455,#233,.T.);
#543=EDGE_CURVE('',#456,#454,#387,.F.);
#544=EDGE_CURVE('',#455,#457,#234,.T.);
#545=EDGE_CURVE('',#458,#457,#235,.T.);
#546=EDGE_CURVE('',#458,#456,#236,.T.);
#547=EDGE_CURVE('',#457,#459,#388,.T.);
#548=EDGE_CURVE('',#460,#459,#237,.T.);
#549=EDGE_CURVE('',#460,#458,#389,.F.);
#550=EDGE_CURVE('',#459,#461,#390,.F.);
#551=EDGE_CURVE('',#462,#461,#238,.T.);
#552=EDGE_CURVE('',#462,#460,#391,.T.);
#553=EDGE_CURVE('',#461,#463,#392,.T.);
#554=EDGE_CURVE('',#464,#463,#239,.T.);
#555=EDGE_CURVE('',#464,#462,#393,.F.);
#556=EDGE_CURVE('',#463,#465,#240,.T.);
#557=EDGE_CURVE('',#466,#465,#241,.T.);
#558=EDGE_CURVE('',#466,#464,#242,.T.);
#559=EDGE_CURVE('',#465,#467,#394,.T.);
#560=EDGE_CURVE('',#468,#467,#243,.T.);
#561=EDGE_CURVE('',#468,#466,#395,.F.);
#562=EDGE_CURVE('',#467,#469,#396,.F.);
#563=EDGE_CURVE('',#470,#469,#244,.T.);
#564=EDGE_CURVE('',#470,#468,#397,.T.);
#565=EDGE_CURVE('',#469,#471,#398,.T.);
#566=EDGE_CURVE('',#472,#471,#245,.T.);
#567=EDGE_CURVE('',#472,#470,#399,.F.);
#568=EDGE_CURVE('',#471,#473,#246,.T.);
#569=EDGE_CURVE('',#474,#473,#247,.T.);
#570=EDGE_CURVE('',#474,#472,#248,.T.);
#571=EDGE_CURVE('',#473,#475,#400,.T.);
#572=EDGE_CURVE('',#476,#475,#249,.T.);
#573=EDGE_CURVE('',#476,#474,#401,.F.);
#574=EDGE_CURVE('',#475,#477,#402,.F.);
#575=EDGE_CURVE('',#478,#477,#250,.T.);
#576=EDGE_CURVE('',#478,#476,#403,.T.);
#577=EDGE_CURVE('',#477,#479,#404,.T.);
#578=EDGE_CURVE('',#480,#479,#251,.T.);
#579=EDGE_CURVE('',#480,#478,#405,.F.);
#580=EDGE_CURVE('',#479,#450,#252,.T.);
#581=EDGE_CURVE('',#449,#480,#253,.T.);
#582=EDGE_CURVE('',#481,#482,#406,.T.);
#583=EDGE_CURVE('',#482,#483,#407,.F.);
#584=EDGE_CURVE('',#483,#484,#408,.T.);
#585=EDGE_CURVE('',#484,#485,#254,.T.);
#586=EDGE_CURVE('',#485,#486,#409,.T.);
#587=EDGE_CURVE('',#486,#487,#410,.F.);
#588=EDGE_CURVE('',#487,#488,#411,.T.);
#589=EDGE_CURVE('',#488,#489,#255,.T.);
#590=EDGE_CURVE('',#489,#490,#412,.T.);
#591=EDGE_CURVE('',#490,#491,#413,.F.);
#592=EDGE_CURVE('',#491,#492,#414,.T.);
#593=EDGE_CURVE('',#492,#493,#256,.T.);
#594=EDGE_CURVE('',#493,#494,#415,.T.);
#595=EDGE_CURVE('',#494,#495,#416,.F.);
#596=EDGE_CURVE('',#495,#496,#417,.T.);
#597=EDGE_CURVE('',#496,#481,#257,.T.);
#598=EDGE_CURVE('',#497,#497,#418,.T.);
#599=EDGE_CURVE('',#498,#498,#419,.T.);
#600=EDGE_CURVE('',#499,#500,#420,.F.);
#601=EDGE_CURVE('',#500,#501,#421,.T.);
#602=EDGE_CURVE('',#501,#502,#422,.F.);
#603=EDGE_CURVE('',#502,#503,#258,.T.);
#604=EDGE_CURVE('',#503,#504,#423,.F.);
#605=EDGE_CURVE('',#504,#505,#424,.T.);
#606=EDGE_CURVE('',#505,#506,#425,.F.);
#607=EDGE_CURVE('',#506,#507,#259,.T.);
#608=EDGE_CURVE('',#507,#508,#426,.F.);
#609=EDGE_CURVE('',#508,#509,#427,.T.);
#610=EDGE_CURVE('',#509,#510,#428,.F.);
#611=EDGE_CURVE('',#510,#511,#260,.T.);
#612=EDGE_CURVE('',#511,#512,#429,.F.);
#613=EDGE_CURVE('',#512,#513,#430,.T.);
#614=EDGE_CURVE('',#513,#514,#431,.F.);
#615=EDGE_CURVE('',#514,#499,#261,.T.);
#616=EDGE_CURVE('',#515,#515,#432,.F.);
#617=EDGE_CURVE('',#516,#516,#433,.F.);
#618=EDGE_CURVE('',#509,#451,#262,.T.);
#619=EDGE_CURVE('',#453,#508,#263,.T.);
#620=EDGE_CURVE('',#455,#507,#264,.T.);
#621=EDGE_CURVE('',#510,#450,#265,.T.);
#622=EDGE_CURVE('',#457,#506,#266,.T.);
#623=EDGE_CURVE('',#511,#479,#267,.T.);
#624=EDGE_CURVE('',#459,#505,#268,.T.);
#625=EDGE_CURVE('',#512,#477,#269,.T.);
#626=EDGE_CURVE('',#461,#504,#270,.T.);
#627=EDGE_CURVE('',#513,#475,#271,.T.);
#628=EDGE_CURVE('',#463,#503,#272,.T.);
#629=EDGE_CURVE('',#514,#473,#273,.T.);
#630=EDGE_CURVE('',#465,#502,#274,.T.);
#631=EDGE_CURVE('',#499,#471,#275,.T.);
#632=EDGE_CURVE('',#467,#501,#276,.T.);
#633=EDGE_CURVE('',#500,#469,#277,.T.);
#634=EDGE_CURVE('',#468,#490,#278,.T.);
#635=EDGE_CURVE('',#491,#470,#279,.T.);
#636=EDGE_CURVE('',#492,#472,#280,.T.);
#637=EDGE_CURVE('',#466,#489,#281,.T.);
#638=EDGE_CURVE('',#493,#474,#282,.T.);
#639=EDGE_CURVE('',#464,#488,#283,.T.);
#640=EDGE_CURVE('',#494,#476,#284,.T.);
#641=EDGE_CURVE('',#462,#487,#285,.T.);
#642=EDGE_CURVE('',#495,#478,#286,.T.);
#643=EDGE_CURVE('',#460,#486,#287,.T.);
#644=EDGE_CURVE('',#496,#480,#288,.T.);
#645=EDGE_CURVE('',#458,#485,#289,.T.);
#646=EDGE_CURVE('',#481,#449,#290,.T.);
#647=EDGE_CURVE('',#456,#484,#291,.T.);
#648=EDGE_CURVE('',#482,#452,#292,.T.);
#649=EDGE_CURVE('',#454,#483,#293,.T.);
#650=EDGE_CURVE('',#517,#517,#434,.F.);
#651=EDGE_CURVE('',#517,#498,#294,.T.);
#652=EDGE_CURVE('',#518,#518,#435,.F.);
#653=EDGE_CURVE('',#519,#519,#436,.F.);
#654=EDGE_CURVE('',#519,#520,#295,.T.);
#655=EDGE_CURVE('',#520,#520,#437,.F.);
#656=EDGE_CURVE('',#521,#521,#438,.F.);
#657=EDGE_CURVE('',#516,#522,#296,.T.);
#658=EDGE_CURVE('',#522,#522,#439,.T.);
#659=EDGE_CURVE('',#515,#523,#297,.T.);
#660=EDGE_CURVE('',#523,#523,#440,.T.);
#661=EDGE_CURVE('',#522,#518,#298,.T.);
#662=EDGE_CURVE('',#523,#521,#299,.T.);
#663=EDGE_CURVE('',#520,#497,#300,.T.);
#664=EDGE_CURVE('',#524,#524,#441,.T.);
#665=EDGE_CURVE('',#525,#525,#442,.T.);
#666=EDGE_CURVE('',#524,#525,#301,.T.);
#667=EDGE_CURVE('',#526,#526,#443,.T.);
#668=EDGE_CURVE('',#527,#527,#444,.T.);
#669=EDGE_CURVE('',#526,#527,#302,.T.);
#670=ORIENTED_EDGE('',*,*,#528,.F.);
#671=ORIENTED_EDGE('',*,*,#529,.T.);
#672=ORIENTED_EDGE('',*,*,#530,.F.);
#673=ORIENTED_EDGE('',*,*,#529,.F.);
#674=ORIENTED_EDGE('',*,*,#531,.F.);
#675=ORIENTED_EDGE('',*,*,#532,.T.);
#676=ORIENTED_EDGE('',*,*,#533,.F.);
#677=ORIENTED_EDGE('',*,*,#532,.F.);
#678=ORIENTED_EDGE('',*,*,#534,.T.);
#679=ORIENTED_EDGE('',*,*,#535,.T.);
#680=ORIENTED_EDGE('',*,*,#536,.F.);
#681=ORIENTED_EDGE('',*,*,#537,.T.);
#682=ORIENTED_EDGE('',*,*,#536,.T.);
#683=ORIENTED_EDGE('',*,*,#538,.T.);
#684=ORIENTED_EDGE('',*,*,#539,.F.);
#685=ORIENTED_EDGE('',*,*,#540,.T.);
#686=ORIENTED_EDGE('',*,*,#539,.T.);
#687=ORIENTED_EDGE('',*,*,#541,.T.);
#688=ORIENTED_EDGE('',*,*,#542,.F.);
#689=ORIENTED_EDGE('',*,*,#543,.T.);
#690=ORIENTED_EDGE('',*,*,#542,.T.);
#691=ORIENTED_EDGE('',*,*,#544,.T.);
#692=ORIENTED_EDGE('',*,*,#545,.F.);
#693=ORIENTED_EDGE('',*,*,#546,.T.);
#694=ORIENTED_EDGE('',*,*,#545,.T.);
#695=ORIENTED_EDGE('',*,*,#547,.T.);
#696=ORIENTED_EDGE('',*,*,#548,.F.);
#697=ORIENTED_EDGE('',*,*,#549,.T.);
#698=ORIENTED_EDGE('',*,*,#548,.T.);
#699=ORIENTED_EDGE('',*,*,#550,.T.);
#700=ORIENTED_EDGE('',*,*,#551,.F.);
#701=ORIENTED_EDGE('',*,*,#552,.T.);
#702=ORIENTED_EDGE('',*,*,#551,.T.);
#703=ORIENTED_EDGE('',*,*,#553,.T.);
#704=ORIENTED_EDGE('',*,*,#554,.F.);
#705=ORIENTED_EDGE('',*,*,#555,.T.);
#706=ORIENTED_EDGE('',*,*,#554,.T.);
#707=ORIENTED_EDGE('',*,*,#556,.T.);
#708=ORIENTED_EDGE('',*,*,#557,.F.);
#709=ORIENTED_EDGE('',*,*,#558,.T.);
#710=ORIENTED_EDGE('',*,*,#557,.T.);
#711=ORIENTED_EDGE('',*,*,#559,.T.);
#712=ORIENTED_EDGE('',*,*,#560,.F.);
#713=ORIENTED_EDGE('',*,*,#561,.T.);
#714=ORIENTED_EDGE('',*,*,#560,.T.);
#715=ORIENTED_EDGE('',*,*,#562,.T.);
#716=ORIENTED_EDGE('',*,*,#563,.F.);
#717=ORIENTED_EDGE('',*,*,#564,.T.);
#718=ORIENTED_EDGE('',*,*,#563,.T.);
#719=ORIENTED_EDGE('',*,*,#565,.T.);
#720=ORIENTED_EDGE('',*,*,#566,.F.);
#721=ORIENTED_EDGE('',*,*,#567,.T.);
#722=ORIENTED_EDGE('',*,*,#566,.T.);
#723=ORIENTED_EDGE('',*,*,#568,.T.);
#724=ORIENTED_EDGE('',*,*,#569,.F.);
#725=ORIENTED_EDGE('',*,*,#570,.T.);
#726=ORIENTED_EDGE('',*,*,#569,.T.);
#727=ORIENTED_EDGE('',*,*,#571,.T.);
#728=ORIENTED_EDGE('',*,*,#572,.F.);
#729=ORIENTED_EDGE('',*,*,#573,.T.);
#730=ORIENTED_EDGE('',*,*,#572,.T.);
#731=ORIENTED_EDGE('',*,*,#574,.T.);
#732=ORIENTED_EDGE('',*,*,#575,.F.);
#733=ORIENTED_EDGE('',*,*,#576,.T.);
#734=ORIENTED_EDGE('',*,*,#575,.T.);
#735=ORIENTED_EDGE('',*,*,#577,.T.);
#736=ORIENTED_EDGE('',*,*,#578,.F.);
#737=ORIENTED_EDGE('',*,*,#579,.T.);
#738=ORIENTED_EDGE('',*,*,#578,.T.);
#739=ORIENTED_EDGE('',*,*,#580,.T.);
#740=ORIENTED_EDGE('',*,*,#534,.F.);
#741=ORIENTED_EDGE('',*,*,#581,.T.);
#742=ORIENTED_EDGE('',*,*,#582,.T.);
#743=ORIENTED_EDGE('',*,*,#583,.T.);
#744=ORIENTED_EDGE('',*,*,#584,.T.);
#745=ORIENTED_EDGE('',*,*,#585,.T.);
#746=ORIENTED_EDGE('',*,*,#586,.T.);
#747=ORIENTED_EDGE('',*,*,#587,.T.);
#748=ORIENTED_EDGE('',*,*,#588,.T.);
#749=ORIENTED_EDGE('',*,*,#589,.T.);
#750=ORIENTED_EDGE('',*,*,#590,.T.);
#751=ORIENTED_EDGE('',*,*,#591,.T.);
#752=ORIENTED_EDGE('',*,*,#592,.T.);
#753=ORIENTED_EDGE('',*,*,#593,.T.);
#754=ORIENTED_EDGE('',*,*,#594,.T.);
#755=ORIENTED_EDGE('',*,*,#595,.T.);
#756=ORIENTED_EDGE('',*,*,#596,.T.);
#757=ORIENTED_EDGE('',*,*,#597,.T.);
#758=ORIENTED_EDGE('',*,*,#598,.T.);
#759=ORIENTED_EDGE('',*,*,#599,.F.);
#760=ORIENTED_EDGE('',*,*,#600,.T.);
#761=ORIENTED_EDGE('',*,*,#601,.T.);
#762=ORIENTED_EDGE('',*,*,#602,.T.);
#763=ORIENTED_EDGE('',*,*,#603,.T.);
#764=ORIENTED_EDGE('',*,*,#604,.T.);
#765=ORIENTED_EDGE('',*,*,#605,.T.);
#766=ORIENTED_EDGE('',*,*,#606,.T.);
#767=ORIENTED_EDGE('',*,*,#607,.T.);
#768=ORIENTED_EDGE('',*,*,#608,.T.);
#769=ORIENTED_EDGE('',*,*,#609,.T.);
#770=ORIENTED_EDGE('',*,*,#610,.T.);
#771=ORIENTED_EDGE('',*,*,#611,.T.);
#772=ORIENTED_EDGE('',*,*,#612,.T.);
#773=ORIENTED_EDGE('',*,*,#613,.T.);
#774=ORIENTED_EDGE('',*,*,#614,.T.);
#775=ORIENTED_EDGE('',*,*,#615,.T.);
#776=ORIENTED_EDGE('',*,*,#616,.T.);
#777=ORIENTED_EDGE('',*,*,#617,.T.);
#778=ORIENTED_EDGE('',*,*,#618,.F.);
#779=ORIENTED_EDGE('',*,*,#609,.F.);
#780=ORIENTED_EDGE('',*,*,#619,.F.);
#781=ORIENTED_EDGE('',*,*,#538,.F.);
#782=ORIENTED_EDGE('',*,*,#619,.T.);
#783=ORIENTED_EDGE('',*,*,#608,.F.);
#784=ORIENTED_EDGE('',*,*,#620,.F.);
#785=ORIENTED_EDGE('',*,*,#541,.F.);
#786=ORIENTED_EDGE('',*,*,#618,.T.);
#787=ORIENTED_EDGE('',*,*,#535,.F.);
#788=ORIENTED_EDGE('',*,*,#621,.F.);
#789=ORIENTED_EDGE('',*,*,#610,.F.);
#790=ORIENTED_EDGE('',*,*,#620,.T.);
#791=ORIENTED_EDGE('',*,*,#607,.F.);
#792=ORIENTED_EDGE('',*,*,#622,.F.);
#793=ORIENTED_EDGE('',*,*,#544,.F.);
#794=ORIENTED_EDGE('',*,*,#621,.T.);
#795=ORIENTED_EDGE('',*,*,#580,.F.);
#796=ORIENTED_EDGE('',*,*,#623,.F.);
#797=ORIENTED_EDGE('',*,*,#611,.F.);
#798=ORIENTED_EDGE('',*,*,#622,.T.);
#799=ORIENTED_EDGE('',*,*,#606,.F.);
#800=ORIENTED_EDGE('',*,*,#624,.F.);
#801=ORIENTED_EDGE('',*,*,#547,.F.);
#802=ORIENTED_EDGE('',*,*,#623,.T.);
#803=ORIENTED_EDGE('',*,*,#577,.F.);
#804=ORIENTED_EDGE('',*,*,#625,.F.);
#805=ORIENTED_EDGE('',*,*,#612,.F.);
#806=ORIENTED_EDGE('',*,*,#624,.T.);
#807=ORIENTED_EDGE('',*,*,#605,.F.);
#808=ORIENTED_EDGE('',*,*,#626,.F.);
#809=ORIENTED_EDGE('',*,*,#550,.F.);
#810=ORIENTED_EDGE('',*,*,#625,.T.);
#811=ORIENTED_EDGE('',*,*,#574,.F.);
#812=ORIENTED_EDGE('',*,*,#627,.F.);
#813=ORIENTED_EDGE('',*,*,#613,.F.);
#814=ORIENTED_EDGE('',*,*,#626,.T.);
#815=ORIENTED_EDGE('',*,*,#604,.F.);
#816=ORIENTED_EDGE('',*,*,#628,.F.);
#817=ORIENTED_EDGE('',*,*,#553,.F.);
#818=ORIENTED_EDGE('',*,*,#627,.T.);
#819=ORIENTED_EDGE('',*,*,#571,.F.);
#820=ORIENTED_EDGE('',*,*,#629,.F.);
#821=ORIENTED_EDGE('',*,*,#614,.F.);
#822=ORIENTED_EDGE('',*,*,#628,.T.);
#823=ORIENTED_EDGE('',*,*,#603,.F.);
#824=ORIENTED_EDGE('',*,*,#630,.F.);
#825=ORIENTED_EDGE('',*,*,#556,.F.);
#826=ORIENTED_EDGE('',*,*,#629,.T.);
#827=ORIENTED_EDGE('',*,*,#568,.F.);
#828=ORIENTED_EDGE('',*,*,#631,.F.);
#829=ORIENTED_EDGE('',*,*,#615,.F.);
#830=ORIENTED_EDGE('',*,*,#630,.T.);
#831=ORIENTED_EDGE('',*,*,#602,.F.);
#832=ORIENTED_EDGE('',*,*,#632,.F.);
#833=ORIENTED_EDGE('',*,*,#559,.F.);
#834=ORIENTED_EDGE('',*,*,#631,.T.);
#835=ORIENTED_EDGE('',*,*,#565,.F.);
#836=ORIENTED_EDGE('',*,*,#633,.F.);
#837=ORIENTED_EDGE('',*,*,#600,.F.);
#838=ORIENTED_EDGE('',*,*,#632,.T.);
#839=ORIENTED_EDGE('',*,*,#601,.F.);
#840=ORIENTED_EDGE('',*,*,#633,.T.);
#841=ORIENTED_EDGE('',*,*,#562,.F.);
#842=ORIENTED_EDGE('',*,*,#634,.F.);
#843=ORIENTED_EDGE('',*,*,#564,.F.);
#844=ORIENTED_EDGE('',*,*,#635,.F.);
#845=ORIENTED_EDGE('',*,*,#591,.F.);
#846=ORIENTED_EDGE('',*,*,#635,.T.);
#847=ORIENTED_EDGE('',*,*,#567,.F.);
#848=ORIENTED_EDGE('',*,*,#636,.F.);
#849=ORIENTED_EDGE('',*,*,#592,.F.);
#850=ORIENTED_EDGE('',*,*,#634,.T.);
#851=ORIENTED_EDGE('',*,*,#590,.F.);
#852=ORIENTED_EDGE('',*,*,#637,.F.);
#853=ORIENTED_EDGE('',*,*,#561,.F.);
#854=ORIENTED_EDGE('',*,*,#636,.T.);
#855=ORIENTED_EDGE('',*,*,#570,.F.);
#856=ORIENTED_EDGE('',*,*,#638,.F.);
#857=ORIENTED_EDGE('',*,*,#593,.F.);
#858=ORIENTED_EDGE('',*,*,#637,.T.);
#859=ORIENTED_EDGE('',*,*,#589,.F.);
#860=ORIENTED_EDGE('',*,*,#639,.F.);
#861=ORIENTED_EDGE('',*,*,#558,.F.);
#862=ORIENTED_EDGE('',*,*,#638,.T.);
#863=ORIENTED_EDGE('',*,*,#573,.F.);
#864=ORIENTED_EDGE('',*,*,#640,.F.);
#865=ORIENTED_EDGE('',*,*,#594,.F.);
#866=ORIENTED_EDGE('',*,*,#639,.T.);
#867=ORIENTED_EDGE('',*,*,#588,.F.);
#868=ORIENTED_EDGE('',*,*,#641,.F.);
#869=ORIENTED_EDGE('',*,*,#555,.F.);
#870=ORIENTED_EDGE('',*,*,#640,.T.);
#871=ORIENTED_EDGE('',*,*,#576,.F.);
#872=ORIENTED_EDGE('',*,*,#642,.F.);
#873=ORIENTED_EDGE('',*,*,#595,.F.);
#874=ORIENTED_EDGE('',*,*,#641,.T.);
#875=ORIENTED_EDGE('',*,*,#587,.F.);
#876=ORIENTED_EDGE('',*,*,#643,.F.);
#877=ORIENTED_EDGE('',*,*,#552,.F.);
#878=ORIENTED_EDGE('',*,*,#642,.T.);
#879=ORIENTED_EDGE('',*,*,#579,.F.);
#880=ORIENTED_EDGE('',*,*,#644,.F.);
#881=ORIENTED_EDGE('',*,*,#596,.F.);
#882=ORIENTED_EDGE('',*,*,#643,.T.);
#883=ORIENTED_EDGE('',*,*,#586,.F.);
#884=ORIENTED_EDGE('',*,*,#645,.F.);
#885=ORIENTED_EDGE('',*,*,#549,.F.);
#886=ORIENTED_EDGE('',*,*,#644,.T.);
#887=ORIENTED_EDGE('',*,*,#581,.F.);
#888=ORIENTED_EDGE('',*,*,#646,.F.);
#889=ORIENTED_EDGE('',*,*,#597,.F.);
#890=ORIENTED_EDGE('',*,*,#645,.T.);
#891=ORIENTED_EDGE('',*,*,#585,.F.);
#892=ORIENTED_EDGE('',*,*,#647,.F.);
#893=ORIENTED_EDGE('',*,*,#546,.F.);
#894=ORIENTED_EDGE('',*,*,#646,.T.);
#895=ORIENTED_EDGE('',*,*,#537,.F.);
#896=ORIENTED_EDGE('',*,*,#648,.F.);
#897=ORIENTED_EDGE('',*,*,#582,.F.);
#898=ORIENTED_EDGE('',*,*,#647,.T.);
#899=ORIENTED_EDGE('',*,*,#584,.F.);
#900=ORIENTED_EDGE('',*,*,#649,.F.);
#901=ORIENTED_EDGE('',*,*,#543,.F.);
#902=ORIENTED_EDGE('',*,*,#648,.T.);
#903=ORIENTED_EDGE('',*,*,#540,.F.);
#904=ORIENTED_EDGE('',*,*,#649,.T.);
#905=ORIENTED_EDGE('',*,*,#583,.F.);
#906=ORIENTED_EDGE('',*,*,#650,.T.);
#907=ORIENTED_EDGE('',*,*,#651,.T.);
#908=ORIENTED_EDGE('',*,*,#599,.T.);
#909=ORIENTED_EDGE('',*,*,#651,.F.);
#910=ORIENTED_EDGE('',*,*,#528,.T.);
#911=ORIENTED_EDGE('',*,*,#652,.T.);
#912=ORIENTED_EDGE('',*,*,#653,.T.);
#913=ORIENTED_EDGE('',*,*,#654,.T.);
#914=ORIENTED_EDGE('',*,*,#655,.T.);
#915=ORIENTED_EDGE('',*,*,#654,.F.);
#916=ORIENTED_EDGE('',*,*,#531,.T.);
#917=ORIENTED_EDGE('',*,*,#656,.T.);
#918=ORIENTED_EDGE('',*,*,#617,.F.);
#919=ORIENTED_EDGE('',*,*,#657,.T.);
#920=ORIENTED_EDGE('',*,*,#658,.T.);
#921=ORIENTED_EDGE('',*,*,#657,.F.);
#922=ORIENTED_EDGE('',*,*,#616,.F.);
#923=ORIENTED_EDGE('',*,*,#659,.T.);
#924=ORIENTED_EDGE('',*,*,#660,.T.);
#925=ORIENTED_EDGE('',*,*,#659,.F.);
#926=ORIENTED_EDGE('',*,*,#658,.F.);
#927=ORIENTED_EDGE('',*,*,#661,.T.);
#928=ORIENTED_EDGE('',*,*,#652,.F.);
#929=ORIENTED_EDGE('',*,*,#661,.F.);
#930=ORIENTED_EDGE('',*,*,#660,.F.);
#931=ORIENTED_EDGE('',*,*,#662,.T.);
#932=ORIENTED_EDGE('',*,*,#656,.F.);
#933=ORIENTED_EDGE('',*,*,#662,.F.);
#934=ORIENTED_EDGE('',*,*,#655,.F.);
#935=ORIENTED_EDGE('',*,*,#663,.T.);
#936=ORIENTED_EDGE('',*,*,#598,.F.);
#937=ORIENTED_EDGE('',*,*,#663,.F.);
#938=ORIENTED_EDGE('',*,*,#664,.F.);
#939=ORIENTED_EDGE('',*,*,#653,.F.);
#940=ORIENTED_EDGE('',*,*,#665,.T.);
#941=ORIENTED_EDGE('',*,*,#533,.T.);
#942=ORIENTED_EDGE('',*,*,#664,.T.);
#943=ORIENTED_EDGE('',*,*,#666,.T.);
#944=ORIENTED_EDGE('',*,*,#665,.F.);
#945=ORIENTED_EDGE('',*,*,#666,.F.);
#946=ORIENTED_EDGE('',*,*,#667,.F.);
#947=ORIENTED_EDGE('',*,*,#650,.F.);
#948=ORIENTED_EDGE('',*,*,#668,.T.);
#949=ORIENTED_EDGE('',*,*,#530,.T.);
#950=ORIENTED_EDGE('',*,*,#667,.T.);
#951=ORIENTED_EDGE('',*,*,#669,.T.);
#952=ORIENTED_EDGE('',*,*,#668,.F.);
#953=ORIENTED_EDGE('',*,*,#669,.F.);
#954=CYLINDRICAL_SURFACE('',#1057,17.526);
#955=CYLINDRICAL_SURFACE('',#1060,17.526);
#956=CYLINDRICAL_SURFACE('',#1063,9.525);
#957=CYLINDRICAL_SURFACE('',#1066,24.765);
#958=CYLINDRICAL_SURFACE('',#1069,9.525);
#959=CYLINDRICAL_SURFACE('',#1073,9.525);
#960=CYLINDRICAL_SURFACE('',#1076,9.9949);
#961=CYLINDRICAL_SURFACE('',#1079,9.525);
#962=CYLINDRICAL_SURFACE('',#1083,9.525);
#963=CYLINDRICAL_SURFACE('',#1086,24.765);
#964=CYLINDRICAL_SURFACE('',#1089,9.525);
#965=CYLINDRICAL_SURFACE('',#1093,9.525);
#966=CYLINDRICAL_SURFACE('',#1096,9.9949);
#967=CYLINDRICAL_SURFACE('',#1099,9.525);
#968=CYLINDRICAL_SURFACE('',#1165,17.526);
#969=CYLINDRICAL_SURFACE('',#1169,17.526);
#970=CYLINDRICAL_SURFACE('',#1174,6.985);
#971=CYLINDRICAL_SURFACE('',#1176,6.985);
#972=CYLINDRICAL_SURFACE('',#1185,20.32);
#973=CYLINDRICAL_SURFACE('',#1190,20.32);
#974=ADVANCED_FACE('',(#84),#954,.F.);
#975=ADVANCED_FACE('',(#85),#955,.F.);
#976=ADVANCED_FACE('',(#86),#956,.F.);
#977=ADVANCED_FACE('',(#87),#957,.T.);
#978=ADVANCED_FACE('',(#88),#958,.F.);
#979=ADVANCED_FACE('',(#89),#64,.F.);
#980=ADVANCED_FACE('',(#90),#959,.F.);
#981=ADVANCED_FACE('',(#91),#960,.T.);
#982=ADVANCED_FACE('',(#92),#961,.F.);
#983=ADVANCED_FACE('',(#93),#65,.F.);
#984=ADVANCED_FACE('',(#94),#962,.F.);
#985=ADVANCED_FACE('',(#95),#963,.T.);
#986=ADVANCED_FACE('',(#96),#964,.F.);
#987=ADVANCED_FACE('',(#97),#66,.F.);
#988=ADVANCED_FACE('',(#98),#965,.F.);
#989=ADVANCED_FACE('',(#99),#966,.T.);
#990=ADVANCED_FACE('',(#100),#967,.F.);
#991=ADVANCED_FACE('',(#101),#67,.F.);
#992=ADVANCED_FACE('',(#102,#54,#55),#68,.F.);
#993=ADVANCED_FACE('',(#103,#56,#57),#69,.T.);
#994=ADVANCED_FACE('',(#104),#27,.T.);
#995=ADVANCED_FACE('',(#105),#28,.F.);
#996=ADVANCED_FACE('',(#106),#29,.F.);
#997=ADVANCED_FACE('',(#107),#70,.T.);
#998=ADVANCED_FACE('',(#108),#71,.T.);
#999=ADVANCED_FACE('',(#109),#30,.F.);
#1000=ADVANCED_FACE('',(#110),#31,.F.);
#1001=ADVANCED_FACE('',(#111),#32,.T.);
#1002=ADVANCED_FACE('',(#112),#33,.T.);
#1003=ADVANCED_FACE('',(#113),#34,.F.);
#1004=ADVANCED_FACE('',(#114),#35,.F.);
#1005=ADVANCED_FACE('',(#115),#72,.T.);
#1006=ADVANCED_FACE('',(#116),#73,.T.);
#1007=ADVANCED_FACE('',(#117),#36,.F.);
#1008=ADVANCED_FACE('',(#118),#37,.F.);
#1009=ADVANCED_FACE('',(#119),#38,.T.);
#1010=ADVANCED_FACE('',(#120),#39,.T.);
#1011=ADVANCED_FACE('',(#121),#40,.F.);
#1012=ADVANCED_FACE('',(#122),#41,.F.);
#1013=ADVANCED_FACE('',(#123),#74,.F.);
#1014=ADVANCED_FACE('',(#124),#75,.F.);
#1015=ADVANCED_FACE('',(#125),#42,.F.);
#1016=ADVANCED_FACE('',(#126),#43,.F.);
#1017=ADVANCED_FACE('',(#127),#44,.T.);
#1018=ADVANCED_FACE('',(#128),#45,.T.);
#1019=ADVANCED_FACE('',(#129),#46,.F.);
#1020=ADVANCED_FACE('',(#130),#47,.F.);
#1021=ADVANCED_FACE('',(#131),#76,.F.);
#1022=ADVANCED_FACE('',(#132),#77,.F.);
#1023=ADVANCED_FACE('',(#133),#48,.F.);
#1024=ADVANCED_FACE('',(#134),#49,.F.);
#1025=ADVANCED_FACE('',(#135),#50,.T.);
#1026=ADVANCED_FACE('',(#136),#968,.F.);
#1027=ADVANCED_FACE('',(#137,#58),#78,.T.);
#1028=ADVANCED_FACE('',(#138),#969,.F.);
#1029=ADVANCED_FACE('',(#139,#59),#79,.T.);
#1030=ADVANCED_FACE('',(#140),#970,.F.);
#1031=ADVANCED_FACE('',(#141),#971,.F.);
#1032=ADVANCED_FACE('',(#142),#51,.F.);
#1033=ADVANCED_FACE('',(#143),#52,.F.);
#1034=ADVANCED_FACE('',(#144),#53,.F.);
#1035=ADVANCED_FACE('',(#145,#60),#80,.F.);
#1036=ADVANCED_FACE('',(#146,#61),#81,.T.);
#1037=ADVANCED_FACE('',(#147),#972,.F.);
#1038=ADVANCED_FACE('',(#148,#62),#82,.F.);
#1039=ADVANCED_FACE('',(#149,#63),#83,.T.);
#1040=ADVANCED_FACE('',(#150),#973,.F.);
#1041=CLOSED_SHELL('',(#974,#975,#976,#977,#978,#979,#980,#981,#982,#983,
#984,#985,#986,#987,#988,#989,#990,#991,#992,#993,#994,#995,#996,#997,#998,
#999,#1000,#1001,#1002,#1003,#1004,#1005,#1006,#1007,#1008,#1009,#1010,
#1011,#1012,#1013,#1014,#1015,#1016,#1017,#1018,#1019,#1020,#1021,#1022,
#1023,#1024,#1025,#1026,#1027,#1028,#1029,#1030,#1031,#1032,#1033,#1034,
#1035,#1036,#1037,#1038,#1039,#1040));
#1042=DERIVED_UNIT_ELEMENT(#1044,1.);
#1043=DERIVED_UNIT_ELEMENT(#1862,-3.);
#1044=(
MASS_UNIT()
NAMED_UNIT(*)
SI_UNIT(.KILO.,.GRAM.)
);
#1045=DERIVED_UNIT((#1042,#1043));
#1046=MEASURE_REPRESENTATION_ITEM('density measure',
POSITIVE_RATIO_MEASURE(2700.),#1045);
#1047=PROPERTY_DEFINITION_REPRESENTATION(#1052,#1049);
#1048=PROPERTY_DEFINITION_REPRESENTATION(#1053,#1050);
#1049=REPRESENTATION('material name',(#1051),#1858);
#1050=REPRESENTATION('density',(#1046),#1858);
#1051=DESCRIPTIVE_REPRESENTATION_ITEM('6061-T6 (SS)','6061-T6 (SS)');
#1052=PROPERTY_DEFINITION('material property','material name',#1883);
#1053=PROPERTY_DEFINITION('material property','density of part',#1883);
#1054=AXIS2_PLACEMENT_3D('',#1552,#1195,#1196);
#1055=AXIS2_PLACEMENT_3D('',#1553,#1197,#1198);
#1056=AXIS2_PLACEMENT_3D('',#1554,#1199,#1200);
#1057=AXIS2_PLACEMENT_3D('',#1555,#1201,#1202);
#1058=AXIS2_PLACEMENT_3D('',#1557,#1203,#1204);
#1059=AXIS2_PLACEMENT_3D('',#1560,#1206,#1207);
#1060=AXIS2_PLACEMENT_3D('',#1561,#1208,#1209);
#1061=AXIS2_PLACEMENT_3D('',#1563,#1210,#1211);
#1062=AXIS2_PLACEMENT_3D('',#1566,#1213,#1214);
#1063=AXIS2_PLACEMENT_3D('',#1567,#1215,#1216);
#1064=AXIS2_PLACEMENT_3D('',#1572,#1218,#1219);
#1065=AXIS2_PLACEMENT_3D('',#1575,#1221,#1222);
#1066=AXIS2_PLACEMENT_3D('',#1576,#1223,#1224);
#1067=AXIS2_PLACEMENT_3D('',#1578,#1225,#1226);
#1068=AXIS2_PLACEMENT_3D('',#1581,#1228,#1229);
#1069=AXIS2_PLACEMENT_3D('',#1582,#1230,#1231);
#1070=AXIS2_PLACEMENT_3D('',#1584,#1232,#1233);
#1071=AXIS2_PLACEMENT_3D('',#1587,#1235,#1236);
#1072=AXIS2_PLACEMENT_3D('',#1588,#1237,#1238);
#1073=AXIS2_PLACEMENT_3D('',#1594,#1242,#1243);
#1074=AXIS2_PLACEMENT_3D('',#1596,#1244,#1245);
#1075=AXIS2_PLACEMENT_3D('',#1599,#1247,#1248);
#1076=AXIS2_PLACEMENT_3D('',#1600,#1249,#1250);
#1077=AXIS2_PLACEMENT_3D('',#1602,#1251,#1252);
#1078=AXIS2_PLACEMENT_3D('',#1605,#1254,#1255);
#1079=AXIS2_PLACEMENT_3D('',#1606,#1256,#1257);
#1080=AXIS2_PLACEMENT_3D('',#1608,#1258,#1259);
#1081=AXIS2_PLACEMENT_3D('',#1611,#1261,#1262);
#1082=AXIS2_PLACEMENT_3D('',#1612,#1263,#1264);
#1083=AXIS2_PLACEMENT_3D('',#1618,#1268,#1269);
#1084=AXIS2_PLACEMENT_3D('',#1620,#1270,#1271);
#1085=AXIS2_PLACEMENT_3D('',#1623,#1273,#1274);
#1086=AXIS2_PLACEMENT_3D('',#1624,#1275,#1276);
#1087=AXIS2_PLACEMENT_3D('',#1626,#1277,#1278);
#1088=AXIS2_PLACEMENT_3D('',#1629,#1280,#1281);
#1089=AXIS2_PLACEMENT_3D('',#1630,#1282,#1283);
#1090=AXIS2_PLACEMENT_3D('',#1632,#1284,#1285);
#1091=AXIS2_PLACEMENT_3D('',#1635,#1287,#1288);
#1092=AXIS2_PLACEMENT_3D('',#1636,#1289,#1290);
#1093=AXIS2_PLACEMENT_3D('',#1642,#1294,#1295);
#1094=AXIS2_PLACEMENT_3D('',#1644,#1296,#1297);
#1095=AXIS2_PLACEMENT_3D('',#1647,#1299,#1300);
#1096=AXIS2_PLACEMENT_3D('',#1648,#1301,#1302);
#1097=AXIS2_PLACEMENT_3D('',#1650,#1303,#1304);
#1098=AXIS2_PLACEMENT_3D('',#1653,#1306,#1307);
#1099=AXIS2_PLACEMENT_3D('',#1654,#1308,#1309);
#1100=AXIS2_PLACEMENT_3D('',#1656,#1310,#1311);
#1101=AXIS2_PLACEMENT_3D('',#1659,#1313,#1314);
#1102=AXIS2_PLACEMENT_3D('',#1660,#1315,#1316);
#1103=AXIS2_PLACEMENT_3D('',#1663,#1319,#1320);
#1104=AXIS2_PLACEMENT_3D('',#1666,#1321,#1322);
#1105=AXIS2_PLACEMENT_3D('',#1668,#1323,#1324);
#1106=AXIS2_PLACEMENT_3D('',#1670,#1325,#1326);
#1107=AXIS2_PLACEMENT_3D('',#1674,#1328,#1329);
#1108=AXIS2_PLACEMENT_3D('',#1676,#1330,#1331);
#1109=AXIS2_PLACEMENT_3D('',#1678,#1332,#1333);
#1110=AXIS2_PLACEMENT_3D('',#1682,#1335,#1336);
#1111=AXIS2_PLACEMENT_3D('',#1684,#1337,#1338);
#1112=AXIS2_PLACEMENT_3D('',#1686,#1339,#1340);
#1113=AXIS2_PLACEMENT_3D('',#1690,#1342,#1343);
#1114=AXIS2_PLACEMENT_3D('',#1692,#1344,#1345);
#1115=AXIS2_PLACEMENT_3D('',#1694,#1346,#1347);
#1116=AXIS2_PLACEMENT_3D('',#1697,#1349,#1350);
#1117=AXIS2_PLACEMENT_3D('',#1699,#1351,#1352);
#1118=AXIS2_PLACEMENT_3D('',#1700,#1353,#1354);
#1119=AXIS2_PLACEMENT_3D('',#1703,#1355,#1356);
#1120=AXIS2_PLACEMENT_3D('',#1705,#1357,#1358);
#1121=AXIS2_PLACEMENT_3D('',#1707,#1359,#1360);
#1122=AXIS2_PLACEMENT_3D('',#1711,#1362,#1363);
#1123=AXIS2_PLACEMENT_3D('',#1713,#1364,#1365);
#1124=AXIS2_PLACEMENT_3D('',#1715,#1366,#1367);
#1125=AXIS2_PLACEMENT_3D('',#1719,#1369,#1370);
#1126=AXIS2_PLACEMENT_3D('',#1721,#1371,#1372);
#1127=AXIS2_PLACEMENT_3D('',#1723,#1373,#1374);
#1128=AXIS2_PLACEMENT_3D('',#1727,#1376,#1377);
#1129=AXIS2_PLACEMENT_3D('',#1729,#1378,#1379);
#1130=AXIS2_PLACEMENT_3D('',#1731,#1380,#1381);
#1131=AXIS2_PLACEMENT_3D('',#1734,#1383,#1384);
#1132=AXIS2_PLACEMENT_3D('',#1736,#1385,#1386);
#1133=AXIS2_PLACEMENT_3D('',#1737,#1387,#1388);
#1134=AXIS2_PLACEMENT_3D('',#1740,#1391,#1392);
#1135=AXIS2_PLACEMENT_3D('',#1742,#1394,#1395);
#1136=AXIS2_PLACEMENT_3D('',#1744,#1397,#1398);
#1137=AXIS2_PLACEMENT_3D('',#1746,#1400,#1401);
#1138=AXIS2_PLACEMENT_3D('',#1748,#1403,#1404);
#1139=AXIS2_PLACEMENT_3D('',#1750,#1406,#1407);
#1140=AXIS2_PLACEMENT_3D('',#1752,#1409,#1410);
#1141=AXIS2_PLACEMENT_3D('',#1754,#1412,#1413);
#1142=AXIS2_PLACEMENT_3D('',#1756,#1415,#1416);
#1143=AXIS2_PLACEMENT_3D('',#1758,#1418,#1419);
#1144=AXIS2_PLACEMENT_3D('',#1760,#1421,#1422);
#1145=AXIS2_PLACEMENT_3D('',#1762,#1424,#1425);
#1146=AXIS2_PLACEMENT_3D('',#1764,#1427,#1428);
#1147=AXIS2_PLACEMENT_3D('',#1766,#1430,#1431);
#1148=AXIS2_PLACEMENT_3D('',#1768,#1433,#1434);
#1149=AXIS2_PLACEMENT_3D('',#1769,#1435,#1436);
#1150=AXIS2_PLACEMENT_3D('',#1772,#1439,#1440);
#1151=AXIS2_PLACEMENT_3D('',#1774,#1442,#1443);
#1152=AXIS2_PLACEMENT_3D('',#1776,#1445,#1446);
#1153=AXIS2_PLACEMENT_3D('',#1778,#1448,#1449);
#1154=AXIS2_PLACEMENT_3D('',#1780,#1451,#1452);
#1155=AXIS2_PLACEMENT_3D('',#1782,#1454,#1455);
#1156=AXIS2_PLACEMENT_3D('',#1784,#1457,#1458);
#1157=AXIS2_PLACEMENT_3D('',#1786,#1460,#1461);
#1158=AXIS2_PLACEMENT_3D('',#1788,#1463,#1464);
#1159=AXIS2_PLACEMENT_3D('',#1790,#1466,#1467);
#1160=AXIS2_PLACEMENT_3D('',#1792,#1469,#1470);
#1161=AXIS2_PLACEMENT_3D('',#1794,#1472,#1473);
#1162=AXIS2_PLACEMENT_3D('',#1796,#1475,#1476);
#1163=AXIS2_PLACEMENT_3D('',#1798,#1478,#1479);
#1164=AXIS2_PLACEMENT_3D('',#1800,#1481,#1482);
#1165=AXIS2_PLACEMENT_3D('',#1801,#1483,#1484);
#1166=AXIS2_PLACEMENT_3D('',#1803,#1485,#1486);
#1167=AXIS2_PLACEMENT_3D('',#1805,#1488,#1489);
#1168=AXIS2_PLACEMENT_3D('',#1807,#1490,#1491);
#1169=AXIS2_PLACEMENT_3D('',#1808,#1492,#1493);
#1170=AXIS2_PLACEMENT_3D('',#1810,#1494,#1495);
#1171=AXIS2_PLACEMENT_3D('',#1813,#1497,#1498);
#1172=AXIS2_PLACEMENT_3D('',#1814,#1499,#1500);
#1173=AXIS2_PLACEMENT_3D('',#1816,#1501,#1502);
#1174=AXIS2_PLACEMENT_3D('',#1817,#1503,#1504);
#1175=AXIS2_PLACEMENT_3D('',#1820,#1506,#1507);
#1176=AXIS2_PLACEMENT_3D('',#1821,#1508,#1509);
#1177=AXIS2_PLACEMENT_3D('',#1824,#1511,#1512);
#1178=AXIS2_PLACEMENT_3D('',#1825,#1513,#1514);
#1179=AXIS2_PLACEMENT_3D('',#1827,#1516,#1517);
#1180=AXIS2_PLACEMENT_3D('',#1829,#1519,#1520);
#1181=AXIS2_PLACEMENT_3D('',#1831,#1522,#1523);
#1182=AXIS2_PLACEMENT_3D('',#1833,#1524,#1525);
#1183=AXIS2_PLACEMENT_3D('',#1834,#1526,#1527);
#1184=AXIS2_PLACEMENT_3D('',#1836,#1528,#1529);
#1185=AXIS2_PLACEMENT_3D('',#1837,#1530,#1531);
#1186=AXIS2_PLACEMENT_3D('',#1839,#1533,#1534);
#1187=AXIS2_PLACEMENT_3D('',#1841,#1535,#1536);
#1188=AXIS2_PLACEMENT_3D('',#1842,#1537,#1538);
#1189=AXIS2_PLACEMENT_3D('',#1844,#1539,#1540);
#1190=AXIS2_PLACEMENT_3D('',#1845,#1541,#1542);
#1191=AXIS2_PLACEMENT_3D('',#1847,#1544,#1545);
#1192=AXIS2_PLACEMENT_3D('',#1848,#1546,#1547);
#1193=AXIS2_PLACEMENT_3D('',#1849,#1548,#1549);
#1194=AXIS2_PLACEMENT_3D('',#1850,#1550,#1551);
#1195=DIRECTION('axis',(0.,0.,1.));
#1196=DIRECTION('refdir',(1.,0.,0.));
#1197=DIRECTION('axis',(0.,0.,1.));
#1198=DIRECTION('refdir',(1.,0.,0.));
#1199=DIRECTION('axis',(0.,0.,1.));
#1200=DIRECTION('refdir',(1.,0.,0.));
#1201=DIRECTION('center_axis',(0.,0.,1.));
#1202=DIRECTION('ref_axis',(1.,0.,0.));
#1203=DIRECTION('center_axis',(0.,0.,1.));
#1204=DIRECTION('ref_axis',(1.,0.,0.));
#1205=DIRECTION('',(0.,0.,1.));
#1206=DIRECTION('center_axis',(0.,0.,1.));
#1207=DIRECTION('ref_axis',(1.,0.,0.));
#1208=DIRECTION('center_axis',(0.,0.,1.));
#1209=DIRECTION('ref_axis',(1.,0.,0.));
#1210=DIRECTION('center_axis',(0.,0.,1.));
#1211=DIRECTION('ref_axis',(1.,0.,0.));
#1212=DIRECTION('',(0.,0.,1.));
#1213=DIRECTION('center_axis',(0.,0.,1.));
#1214=DIRECTION('ref_axis',(1.,0.,0.));
#1215=DIRECTION('center_axis',(0.,0.,-1.));
#1216=DIRECTION('ref_axis',(-1.,0.,0.));
#1217=DIRECTION('',(0.,0.,-1.));
#1218=DIRECTION('center_axis',(0.,0.,-1.));
#1219=DIRECTION('ref_axis',(-1.,0.,0.));
#1220=DIRECTION('',(0.,0.,-1.));
#1221=DIRECTION('center_axis',(0.,0.,-1.));
#1222=DIRECTION('ref_axis',(-1.,0.,0.));
#1223=DIRECTION('center_axis',(0.,0.,-1.));
#1224=DIRECTION('ref_axis',(0.948899966332094,-0.315577017374445,0.));
#1225=DIRECTION('center_axis',(0.,0.,-1.));
#1226=DIRECTION('ref_axis',(-1.,0.,0.));
#1227=DIRECTION('',(0.,0.,-1.));
#1228=DIRECTION('center_axis',(0.,0.,-1.));
#1229=DIRECTION('ref_axis',(-1.,0.,0.));
#1230=DIRECTION('center_axis',(0.,0.,-1.));
#1231=DIRECTION('ref_axis',(-1.,0.,0.));
#1232=DIRECTION('center_axis',(0.,0.,-1.));
#1233=DIRECTION('ref_axis',(-1.,0.,0.));
#1234=DIRECTION('',(0.,0.,-1.));
#1235=DIRECTION('center_axis',(0.,0.,-1.));
#1236=DIRECTION('ref_axis',(-1.,0.,0.));
#1237=DIRECTION('center_axis',(-0.315577017374445,-0.948899966332094,0.));
#1238=DIRECTION('ref_axis',(0.,0.,-1.));
#1239=DIRECTION('',(-0.948899966332094,0.315577017374445,0.));
#1240=DIRECTION('',(0.,0.,-1.));
#1241=DIRECTION('',(0.948899966332094,-0.315577017374445,0.));
#1242=DIRECTION('center_axis',(0.,0.,-1.));
#1243=DIRECTION('ref_axis',(-1.,0.,0.));
#1244=DIRECTION('center_axis',(0.,0.,-1.));
#1245=DIRECTION('ref_axis',(-1.,0.,0.));
#1246=DIRECTION('',(0.,0.,-1.));
#1247=DIRECTION('center_axis',(0.,0.,-1.));
#1248=DIRECTION('ref_axis',(-1.,0.,0.));
#1249=DIRECTION('center_axis',(0.,0.,-1.));
#1250=DIRECTION('ref_axis',(-1.,0.,0.));
#1251=DIRECTION('center_axis',(0.,0.,-1.));
#1252=DIRECTION('ref_axis',(-1.,0.,0.));
#1253=DIRECTION('',(0.,0.,-1.));
#1254=DIRECTION('center_axis',(0.,0.,-1.));
#1255=DIRECTION('ref_axis',(-1.,0.,0.));
#1256=DIRECTION('center_axis',(0.,0.,-1.));
#1257=DIRECTION('ref_axis',(-1.,0.,0.));
#1258=DIRECTION('center_axis',(0.,0.,-1.));
#1259=DIRECTION('ref_axis',(-1.,0.,0.));
#1260=DIRECTION('',(0.,0.,-1.));
#1261=DIRECTION('center_axis',(0.,0.,-1.));
#1262=DIRECTION('ref_axis',(-1.,0.,0.));
#1263=DIRECTION('center_axis',(0.315577017374445,-0.948899966332094,0.));
#1264=DIRECTION('ref_axis',(0.,0.,-1.));
#1265=DIRECTION('',(-0.948899966332094,-0.315577017374445,0.));
#1266=DIRECTION('',(0.,0.,-1.));
#1267=DIRECTION('',(0.948899966332094,0.315577017374445,0.));
#1268=DIRECTION('center_axis',(0.,0.,-1.));
#1269=DIRECTION('ref_axis',(-1.,0.,0.));
#1270=DIRECTION('center_axis',(0.,0.,-1.));
#1271=DIRECTION('ref_axis',(-1.,0.,0.));
#1272=DIRECTION('',(0.,0.,-1.));
#1273=DIRECTION('center_axis',(0.,0.,-1.));
#1274=DIRECTION('ref_axis',(-1.,0.,0.));
#1275=DIRECTION('center_axis',(0.,0.,-1.));
#1276=DIRECTION('ref_axis',(-1.,0.,0.));
#1277=DIRECTION('center_axis',(0.,0.,-1.));
#1278=DIRECTION('ref_axis',(-1.,0.,0.));
#1279=DIRECTION('',(0.,0.,-1.));
#1280=DIRECTION('center_axis',(0.,0.,-1.));
#1281=DIRECTION('ref_axis',(-1.,0.,0.));
#1282=DIRECTION('center_axis',(0.,0.,-1.));
#1283=DIRECTION('ref_axis',(-1.,0.,0.));
#1284=DIRECTION('center_axis',(0.,0.,-1.));
#1285=DIRECTION('ref_axis',(-1.,0.,0.));
#1286=DIRECTION('',(0.,0.,-1.));
#1287=DIRECTION('center_axis',(0.,0.,-1.));
#1288=DIRECTION('ref_axis',(-1.,0.,0.));
#1289=DIRECTION('center_axis',(-0.315577017374445,0.948899966332094,0.));
#1290=DIRECTION('ref_axis',(0.,0.,1.));
#1291=DIRECTION('',(0.948899966332094,0.315577017374445,0.));
#1292=DIRECTION('',(0.,0.,-1.));
#1293=DIRECTION('',(-0.948899966332094,-0.315577017374445,0.));
#1294=DIRECTION('center_axis',(0.,0.,-1.));
#1295=DIRECTION('ref_axis',(-1.,0.,0.));
#1296=DIRECTION('center_axis',(0.,0.,-1.));
#1297=DIRECTION('ref_axis',(-1.,0.,0.));
#1298=DIRECTION('',(0.,0.,-1.));
#1299=DIRECTION('center_axis',(0.,0.,-1.));
#1300=DIRECTION('ref_axis',(-1.,0.,0.));
#1301=DIRECTION('center_axis',(0.,0.,-1.));
#1302=DIRECTION('ref_axis',(-1.,0.,0.));
#1303=DIRECTION('center_axis',(0.,0.,-1.));
#1304=DIRECTION('ref_axis',(-1.,0.,0.));
#1305=DIRECTION('',(0.,0.,-1.));
#1306=DIRECTION('center_axis',(0.,0.,-1.));
#1307=DIRECTION('ref_axis',(-1.,0.,0.));
#1308=DIRECTION('center_axis',(0.,0.,-1.));
#1309=DIRECTION('ref_axis',(-1.,0.,0.));
#1310=DIRECTION('center_axis',(0.,0.,-1.));
#1311=DIRECTION('ref_axis',(-1.,0.,0.));
#1312=DIRECTION('',(0.,0.,-1.));
#1313=DIRECTION('center_axis',(0.,0.,-1.));
#1314=DIRECTION('ref_axis',(-1.,0.,0.));
#1315=DIRECTION('center_axis',(0.315577017374445,0.948899966332094,0.));
#1316=DIRECTION('ref_axis',(0.,0.,1.));
#1317=DIRECTION('',(0.948899966332094,-0.315577017374445,0.));
#1318=DIRECTION('',(-0.948899966332094,0.315577017374445,0.));
#1319=DIRECTION('center_axis',(0.,0.,-1.));
#1320=DIRECTION('ref_axis',(-1.,0.,0.));
#1321=DIRECTION('center_axis',(0.,0.,-1.));
#1322=DIRECTION('ref_axis',(-1.,0.,0.));
#1323=DIRECTION('center_axis',(0.,0.,-1.));
#1324=DIRECTION('ref_axis',(-1.,0.,0.));
#1325=DIRECTION('center_axis',(0.,0.,-1.));
#1326=DIRECTION('ref_axis',(-1.,0.,0.));
#1327=DIRECTION('',(-0.948899966332094,0.315577017374445,0.));
#1328=DIRECTION('center_axis',(0.,0.,-1.));
#1329=DIRECTION('ref_axis',(-1.,0.,0.));
#1330=DIRECTION('center_axis',(0.,0.,-1.));
#1331=DIRECTION('ref_axis',(-1.,0.,0.));
#1332=DIRECTION('center_axis',(0.,0.,-1.));
#1333=DIRECTION('ref_axis',(-1.,0.,0.));
#1334=DIRECTION('',(-0.948899966332094,-0.315577017374445,0.));
#1335=DIRECTION('center_axis',(0.,0.,-1.));
#1336=DIRECTION('ref_axis',(-1.,0.,0.));
#1337=DIRECTION('center_axis',(0.,0.,-1.));
#1338=DIRECTION('ref_axis',(-1.,0.,0.));
#1339=DIRECTION('center_axis',(0.,0.,-1.));
#1340=DIRECTION('ref_axis',(-1.,0.,0.));
#1341=DIRECTION('',(0.948899966332094,0.315577017374445,0.));
#1342=DIRECTION('center_axis',(0.,0.,-1.));
#1343=DIRECTION('ref_axis',(-1.,0.,0.));
#1344=DIRECTION('center_axis',(0.,0.,-1.));
#1345=DIRECTION('ref_axis',(-1.,0.,0.));
#1346=DIRECTION('center_axis',(0.,0.,-1.));
#1347=DIRECTION('ref_axis',(-1.,0.,0.));
#1348=DIRECTION('',(0.948899966332094,-0.315577017374445,0.));
#1349=DIRECTION('center_axis',(0.,0.,-1.));
#1350=DIRECTION('ref_axis',(-1.,0.,0.));
#1351=DIRECTION('center_axis',(0.,0.,1.));
#1352=DIRECTION('ref_axis',(1.,0.,0.));
#1353=DIRECTION('center_axis',(0.,0.,-1.));
#1354=DIRECTION('ref_axis',(-1.,0.,0.));
#1355=DIRECTION('center_axis',(0.,0.,-1.));
#1356=DIRECTION('ref_axis',(-1.,0.,0.));
#1357=DIRECTION('center_axis',(0.,0.,-1.));
#1358=DIRECTION('ref_axis',(-1.,0.,0.));
#1359=DIRECTION('center_axis',(0.,0.,-1.));
#1360=DIRECTION('ref_axis',(-1.,0.,0.));
#1361=DIRECTION('',(0.948899966332094,0.315577017374445,0.));
#1362=DIRECTION('center_axis',(0.,0.,-1.));
#1363=DIRECTION('ref_axis',(-1.,0.,0.));
#1364=DIRECTION('center_axis',(0.,0.,-1.));
#1365=DIRECTION('ref_axis',(-1.,0.,0.));
#1366=DIRECTION('center_axis',(0.,0.,-1.));
#1367=DIRECTION('ref_axis',(-1.,0.,0.));
#1368=DIRECTION('',(0.948899966332094,-0.315577017374445,0.));
#1369=DIRECTION('center_axis',(0.,0.,-1.));
#1370=DIRECTION('ref_axis',(-1.,0.,0.));
#1371=DIRECTION('center_axis',(0.,0.,-1.));
#1372=DIRECTION('ref_axis',(-1.,0.,0.));
#1373=DIRECTION('center_axis',(0.,0.,-1.));
#1374=DIRECTION('ref_axis',(-1.,0.,0.));
#1375=DIRECTION('',(-0.948899966332094,0.315577017374445,0.));
#1376=DIRECTION('center_axis',(0.,0.,-1.));
#1377=DIRECTION('ref_axis',(-1.,0.,0.));
#1378=DIRECTION('center_axis',(0.,0.,-1.));
#1379=DIRECTION('ref_axis',(-1.,0.,0.));
#1380=DIRECTION('center_axis',(0.,0.,-1.));
#1381=DIRECTION('ref_axis',(-1.,0.,0.));
#1382=DIRECTION('',(-0.948899966332094,-0.315577017374445,0.));
#1383=DIRECTION('center_axis',(0.,0.,-1.));
#1384=DIRECTION('ref_axis',(-1.,0.,0.));
#1385=DIRECTION('center_axis',(0.,0.,-1.));
#1386=DIRECTION('ref_axis',(-1.,0.,0.));
#1387=DIRECTION('center_axis',(0.,0.,1.));
#1388=DIRECTION('ref_axis',(1.,0.,0.));
#1389=DIRECTION('',(-0.702112701114694,-0.0838913281181752,0.707106781186545));
#1390=DIRECTION('',(0.512024814953276,-0.487678776319072,-0.707106781186544));
#1391=DIRECTION('center_axis',(0.,0.,-1.));
#1392=DIRECTION('ref_axis',(-1.,0.,0.));
#1393=DIRECTION('',(-0.223146648972088,-0.67097360086111,-0.70710678118655));
#1394=DIRECTION('center_axis',(0.,0.,-1.));
#1395=DIRECTION('ref_axis',(-1.,0.,0.));
#1396=DIRECTION('',(-0.223146648972099,-0.67097360086111,0.707106781186547));
#1397=DIRECTION('center_axis',(0.223146648972097,0.670973600861117,-0.70710678118654));
#1398=DIRECTION('ref_axis',(-0.953640826680019,0.,-0.300947127730187));
#1399=DIRECTION('',(-0.223146648972101,-0.670973600861103,-0.707106781186553));
#1400=DIRECTION('center_axis',(-0.223146648972095,-0.670973600861109,-0.707106781186549));
#1401=DIRECTION('ref_axis',(-0.953640826680021,0.,0.30094712773018));
#1402=DIRECTION('',(-0.223146648972099,-0.67097360086111,0.707106781186547));
#1403=DIRECTION('center_axis',(0.,0.,-1.));
#1404=DIRECTION('ref_axis',(-1.,0.,0.));
#1405=DIRECTION('',(-0.612125599495511,-0.353980579187987,-0.707106781186547));
#1406=DIRECTION('center_axis',(0.,0.,-1.));
#1407=DIRECTION('ref_axis',(-1.,0.,0.));
#1408=DIRECTION('',(0.278204133889903,-0.650078810519595,0.707106781186546));
#1409=DIRECTION('center_axis',(0.,0.,1.));
#1410=DIRECTION('ref_axis',(1.,0.,0.));
#1411=DIRECTION('',(0.612125599495509,-0.353980579187988,-0.707106781186548));
#1412=DIRECTION('center_axis',(0.,0.,1.));
#1413=DIRECTION('ref_axis',(1.,0.,0.));
#1414=DIRECTION('',(-0.278204133889902,-0.650078810519595,0.707106781186546));
#1415=DIRECTION('center_axis',(0.,0.,-1.));
#1416=DIRECTION('ref_axis',(-1.,0.,0.));
#1417=DIRECTION('',(0.223146648972094,-0.670973600861111,-0.707106781186547));
#1418=DIRECTION('center_axis',(0.,0.,-1.));
#1419=DIRECTION('ref_axis',(-1.,0.,0.));
#1420=DIRECTION('',(0.223146648972099,-0.670973600861109,0.707106781186548));
#1421=DIRECTION('center_axis',(-0.223146648972092,0.670973600861102,-0.707106781186556));
#1422=DIRECTION('ref_axis',(-0.953640826680023,0.,0.300947127730174));
#1423=DIRECTION('',(0.223146648972086,-0.670973600861121,-0.707106781186541));
#1424=DIRECTION('center_axis',(0.223146648972095,-0.670973600861109,-0.707106781186549));
#1425=DIRECTION('ref_axis',(-0.953640826680021,0.,-0.30094712773018));
#1426=DIRECTION('',(0.223146648972093,-0.670973600861113,0.707106781186546));
#1427=DIRECTION('center_axis',(0.,0.,-1.));
#1428=DIRECTION('ref_axis',(-1.,0.,0.));
#1429=DIRECTION('',(-0.512024814953283,-0.487678776319066,-0.707106781186544));
#1430=DIRECTION('center_axis',(0.,0.,-1.));
#1431=DIRECTION('ref_axis',(-1.,0.,0.));
#1432=DIRECTION('',(0.702112701114688,-0.0838913281181759,0.707106781186551));
#1433=DIRECTION('center_axis',(0.,0.,1.));
#1434=DIRECTION('ref_axis',(-0.948899966332094,-0.315577017374444,0.));
#1435=DIRECTION('center_axis',(0.,0.,-1.));
#1436=DIRECTION('ref_axis',(-1.,0.,0.));
#1437=DIRECTION('',(-0.512024814953278,-0.487678776319061,0.70710678118655));
#1438=DIRECTION('',(0.702112701114686,-0.0838913281181809,-0.707106781186553));
#1439=DIRECTION('center_axis',(0.,0.,1.));
#1440=DIRECTION('ref_axis',(1.,0.,0.));
#1441=DIRECTION('',(0.223146648972095,-0.670973600861111,-0.707106781186547));
#1442=DIRECTION('center_axis',(0.,0.,1.));
#1443=DIRECTION('ref_axis',(1.,0.,0.));
#1444=DIRECTION('',(0.223146648972095,-0.670973600861111,0.707106781186547));
#1445=DIRECTION('center_axis',(-0.223146648972095,0.670973600861109,-0.707106781186549));
#1446=DIRECTION('ref_axis',(-0.953640826680021,0.,0.30094712773018));
#1447=DIRECTION('',(0.223146648972095,-0.670973600861111,-0.707106781186547));
#1448=DIRECTION('center_axis',(0.223146648972093,-0.670973600861105,-0.707106781186554));
#1449=DIRECTION('ref_axis',(-0.953640826680023,0.,-0.300947127730176));
#1450=DIRECTION('',(0.223146648972094,-0.670973600861116,0.707106781186542));
#1451=DIRECTION('center_axis',(0.,0.,1.));
#1452=DIRECTION('ref_axis',(1.,0.,0.));
#1453=DIRECTION('',(-0.2782041338899,-0.650078810519598,-0.707106781186544));
#1454=DIRECTION('center_axis',(0.,0.,1.));
#1455=DIRECTION('ref_axis',(1.,0.,0.));
#1456=DIRECTION('',(0.612125599495513,-0.353980579187988,0.707106781186544));
#1457=DIRECTION('center_axis',(0.,0.,-1.));
#1458=DIRECTION('ref_axis',(-1.,0.,0.));
#1459=DIRECTION('',(0.278204133889901,-0.650078810519594,-0.707106781186547));
#1460=DIRECTION('center_axis',(0.,0.,-1.));
#1461=DIRECTION('ref_axis',(-1.,0.,0.));
#1462=DIRECTION('',(-0.612125599495511,-0.353980579187992,0.707106781186544));
#1463=DIRECTION('center_axis',(0.,0.,1.));
#1464=DIRECTION('ref_axis',(1.,0.,0.));
#1465=DIRECTION('',(-0.223146648972096,-0.670973600861109,-0.707106781186548));
#1466=DIRECTION('center_axis',(0.,0.,1.));
#1467=DIRECTION('ref_axis',(1.,0.,0.));
#1468=DIRECTION('',(-0.223146648972095,-0.670973600861114,0.707106781186545));
#1469=DIRECTION('center_axis',(0.223146648972095,0.670973600861109,-0.707106781186549));
#1470=DIRECTION('ref_axis',(-0.953640826680021,0.,-0.30094712773018));
#1471=DIRECTION('',(-0.223146648972095,-0.670973600861111,-0.707106781186547));
#1472=DIRECTION('center_axis',(-0.223146648972095,-0.67097360086111,-0.707106781186548));
#1473=DIRECTION('ref_axis',(-0.953640826680021,0.,0.300947127730181));
#1474=DIRECTION('',(-0.223146648972095,-0.670973600861111,0.707106781186547));
#1475=DIRECTION('center_axis',(0.,0.,1.));
#1476=DIRECTION('ref_axis',(1.,0.,0.));
#1477=DIRECTION('',(-0.702112701114695,-0.0838913281181798,-0.707106781186544));
#1478=DIRECTION('center_axis',(0.,0.,1.));
#1479=DIRECTION('ref_axis',(1.,0.,0.));
#1480=DIRECTION('',(0.51202481495328,-0.487678776319066,0.707106781186546));
#1481=DIRECTION('center_axis',(0.,0.,-1.));
#1482=DIRECTION('ref_axis',(0.948899966332094,-0.315577017374445,0.));
#1483=DIRECTION('center_axis',(0.,0.,1.));
#1484=DIRECTION('ref_axis',(1.,0.,0.));
#1485=DIRECTION('center_axis',(0.,0.,1.));
#1486=DIRECTION('ref_axis',(1.,0.,0.));
#1487=DIRECTION('',(0.,0.,1.));
#1488=DIRECTION('center_axis',(0.,0.,1.));
#1489=DIRECTION('ref_axis',(1.,0.,0.));
#1490=DIRECTION('center_axis',(0.,0.,1.));
#1491=DIRECTION('ref_axis',(1.,0.,0.));
#1492=DIRECTION('center_axis',(0.,0.,1.));
#1493=DIRECTION('ref_axis',(1.,0.,0.));
#1494=DIRECTION('center_axis',(0.,0.,1.));
#1495=DIRECTION('ref_axis',(1.,0.,0.));
#1496=DIRECTION('',(0.,0.,1.));
#1497=DIRECTION('center_axis',(0.,0.,-1.));
#1498=DIRECTION('ref_axis',(-1.,0.,0.));
#1499=DIRECTION('center_axis',(0.,0.,1.));
#1500=DIRECTION('ref_axis',(1.,0.,0.));
#1501=DIRECTION('center_axis',(0.,0.,1.));
#1502=DIRECTION('ref_axis',(1.,0.,0.));
#1503=DIRECTION('center_axis',(0.,0.,1.));
#1504=DIRECTION('ref_axis',(1.,0.,0.));
#1505=DIRECTION('',(0.,0.,1.));
#1506=DIRECTION('center_axis',(0.,0.,1.));
#1507=DIRECTION('ref_axis',(1.,0.,0.));
#1508=DIRECTION('center_axis',(0.,0.,1.));
#1509=DIRECTION('ref_axis',(1.,0.,0.));
#1510=DIRECTION('',(0.,0.,1.));
#1511=DIRECTION('center_axis',(0.,0.,1.));
#1512=DIRECTION('ref_axis',(1.,0.,0.));
#1513=DIRECTION('center_axis',(0.,0.,1.));
#1514=DIRECTION('ref_axis',(1.,0.,0.));
#1515=DIRECTION('',(-0.707106781186549,-8.65956056235495E-17,0.707106781186546));
#1516=DIRECTION('center_axis',(0.,0.,1.));
#1517=DIRECTION('ref_axis',(1.,0.,0.));
#1518=DIRECTION('',(-0.707106781186549,-8.65956056235495E-17,0.707106781186546));
#1519=DIRECTION('center_axis',(0.,0.,1.));
#1520=DIRECTION('ref_axis',(1.,0.,0.));
#1521=DIRECTION('',(-0.707106781186528,-8.6595605623547E-17,0.707106781186567));
#1522=DIRECTION('center_axis',(0.,0.,1.));
#1523=DIRECTION('ref_axis',(1.,0.,0.));
#1524=DIRECTION('center_axis',(0.,0.,1.));
#1525=DIRECTION('ref_axis',(1.,0.,0.));
#1526=DIRECTION('center_axis',(0.,0.,1.));
#1527=DIRECTION('ref_axis',(1.,0.,0.));
#1528=DIRECTION('center_axis',(0.,0.,1.));
#1529=DIRECTION('ref_axis',(1.,0.,0.));
#1530=DIRECTION('center_axis',(0.,0.,-1.));
#1531=DIRECTION('ref_axis',(-1.,0.,0.));
#1532=DIRECTION('',(0.,0.,-1.));
#1533=DIRECTION('center_axis',(0.,0.,1.));
#1534=DIRECTION('ref_axis',(1.,0.,0.));
#1535=DIRECTION('center_axis',(0.,0.,1.));
#1536=DIRECTION('ref_axis',(1.,0.,0.));
#1537=DIRECTION('center_axis',(0.,0.,1.));
#1538=DIRECTION('ref_axis',(1.,0.,0.));
#1539=DIRECTION('center_axis',(0.,0.,1.));
#1540=DIRECTION('ref_axis',(1.,0.,0.));
#1541=DIRECTION('center_axis',(0.,0.,-1.));
#1542=DIRECTION('ref_axis',(-1.,0.,0.));
#1543=DIRECTION('',(0.,0.,-1.));
#1544=DIRECTION('',(0.,0.,1.));
#1545=DIRECTION('',(1.,0.,0.));
#1546=DIRECTION('axis',(0.,0.,1.));
#1547=DIRECTION('refdir',(1.,0.,0.));
#1548=DIRECTION('',(0.,0.,1.));
#1549=DIRECTION('',(1.,0.,0.));
#1550=DIRECTION('',(0.,0.,1.));
#1551=DIRECTION('',(1.,0.,0.));
#1552=CARTESIAN_POINT('',(0.,0.,0.));
#1553=CARTESIAN_POINT('',(0.,0.,0.));
#1554=CARTESIAN_POINT('',(0.,0.,0.));
#1555=CARTESIAN_POINT('Origin',(44.45,-14.7828,6.35));
#1556=CARTESIAN_POINT('',(26.924,-14.7828,6.35));
#1557=CARTESIAN_POINT('Origin',(44.45,-14.7828,6.35));
#1558=CARTESIAN_POINT('',(26.924,-14.7828,13.335));
#1559=CARTESIAN_POINT('',(26.924,-14.7828,6.35));
#1560=CARTESIAN_POINT('Origin',(44.45,-14.7828,13.335));
#1561=CARTESIAN_POINT('Origin',(-44.45,-14.7828,6.35));
#1562=CARTESIAN_POINT('',(-61.976,-14.7828,6.35));
#1563=CARTESIAN_POINT('Origin',(-44.45,-14.7828,6.35));
#1564=CARTESIAN_POINT('',(-61.976,-14.7828,13.335));
#1565=CARTESIAN_POINT('',(-61.976,-14.7828,6.35));
#1566=CARTESIAN_POINT('Origin',(-44.45,-14.7828,13.335));
#1567=CARTESIAN_POINT('Origin',(10.4021798379257,-18.8509743093245,19.05));
#1568=CARTESIAN_POINT('',(13.4080509284173,-9.8127021300113,18.796));
#1569=CARTESIAN_POINT('',(13.4080509284173,-9.8127021300113,0.25400000000007));
#1570=CARTESIAN_POINT('',(13.4080509284173,-9.8127021300113,18.796));
#1571=CARTESIAN_POINT('',(19.8599076607241,-17.7209258900677,0.25400000000007));
#1572=CARTESIAN_POINT('Origin',(10.4021798379257,-18.8509743093245,0.254000000000063));
#1573=CARTESIAN_POINT('',(19.8599076607241,-17.7209258900677,18.796));
#1574=CARTESIAN_POINT('',(19.8599076607241,-17.7209258900677,18.796));
#1575=CARTESIAN_POINT('Origin',(10.4021798379257,-18.8509743093245,18.796));
#1576=CARTESIAN_POINT('Origin',(44.45,-14.7828,19.05));
#1577=CARTESIAN_POINT('',(26.5173554833685,2.29717323300376,0.25400000000007));
#1578=CARTESIAN_POINT('Origin',(44.45,-14.7828,0.254000000000063));
#1579=CARTESIAN_POINT('',(26.5173554833685,2.29717323300376,18.796));
#1580=CARTESIAN_POINT('',(26.5173554833685,2.29717323300376,18.796));
#1581=CARTESIAN_POINT('Origin',(44.45,-14.7828,18.796));
#1582=CARTESIAN_POINT('Origin',(19.6201845154333,8.86639370723598,19.05));
#1583=CARTESIAN_POINT('',(16.6143134249417,-0.171878472077223,0.25400000000007));
#1584=CARTESIAN_POINT('Origin',(19.6201845154333,8.86639370723598,0.254000000000063));
#1585=CARTESIAN_POINT('',(16.6143134249417,-0.171878472077223,18.796));
#1586=CARTESIAN_POINT('',(16.6143134249417,-0.171878472077223,18.796));
#1587=CARTESIAN_POINT('Origin',(19.6201845154333,8.86639370723598,18.796));
#1588=CARTESIAN_POINT('Origin',(13.8920441996746,0.733470493125873,19.05));
#1589=CARTESIAN_POINT('',(13.8920441996746,0.733470493125873,0.25400000000007));
#1590=CARTESIAN_POINT('',(16.6143134249417,-0.171878472077223,0.254000000000063));
#1591=CARTESIAN_POINT('',(13.8920441996746,0.733470493125873,18.796));
#1592=CARTESIAN_POINT('',(13.8920441996746,0.733470493125873,18.796));
#1593=CARTESIAN_POINT('',(13.8920441996746,0.733470493125872,18.796));
#1594=CARTESIAN_POINT('Origin',(16.8979152901662,9.77174267243907,19.05));
#1595=CARTESIAN_POINT('',(8.65234829756722,5.00348827795026,0.25400000000007));
#1596=CARTESIAN_POINT('Origin',(16.8979152901662,9.77174267243907,0.254000000000063));
#1597=CARTESIAN_POINT('',(8.65234829756722,5.00348827795026,18.796));
#1598=CARTESIAN_POINT('',(8.65234829756722,5.00348827795026,18.796));
#1599=CARTESIAN_POINT('Origin',(16.8979152901662,9.77174267243907,18.796));
#1600=CARTESIAN_POINT('Origin',(0.,0.,19.05));
#1601=CARTESIAN_POINT('',(-8.65234829756722,5.00348827795025,0.25400000000007));
#1602=CARTESIAN_POINT('Origin',(0.,0.,0.254000000000063));
#1603=CARTESIAN_POINT('',(-8.65234829756722,5.00348827795025,18.796));
#1604=CARTESIAN_POINT('',(-8.65234829756722,5.00348827795025,18.796));
#1605=CARTESIAN_POINT('Origin',(0.,0.,18.796));
#1606=CARTESIAN_POINT('Origin',(-16.8979152901662,9.77174267243907,19.05));
#1607=CARTESIAN_POINT('',(-13.8920441996746,0.733470493125871,0.25400000000007));
#1608=CARTESIAN_POINT('Origin',(-16.8979152901662,9.77174267243907,0.254000000000063));
#1609=CARTESIAN_POINT('',(-13.8920441996746,0.733470493125871,18.796));
#1610=CARTESIAN_POINT('',(-13.8920441996746,0.733470493125871,18.796));
#1611=CARTESIAN_POINT('Origin',(-16.8979152901662,9.77174267243907,18.796));
#1612=CARTESIAN_POINT('Origin',(-13.8920441996746,0.733470493125871,19.05));
#1613=CARTESIAN_POINT('',(-16.6143134249416,-0.17187847207722,0.25400000000007));
#1614=CARTESIAN_POINT('',(-13.8920441996746,0.733470493125871,0.254000000000063));
#1615=CARTESIAN_POINT('',(-16.6143134249416,-0.17187847207722,18.796));
#1616=CARTESIAN_POINT('',(-16.6143134249416,-0.17187847207722,18.796));
#1617=CARTESIAN_POINT('',(-16.6143134249416,-0.171878472077218,18.796));
#1618=CARTESIAN_POINT('Origin',(-19.6201845154332,8.86639370723598,19.05));
#1619=CARTESIAN_POINT('',(-26.5173554833684,2.29717323300377,0.25400000000007));
#1620=CARTESIAN_POINT('Origin',(-19.6201845154332,8.86639370723598,0.254000000000063));
#1621=CARTESIAN_POINT('',(-26.5173554833684,2.29717323300377,18.796));
#1622=CARTESIAN_POINT('',(-26.5173554833684,2.29717323300377,18.796));
#1623=CARTESIAN_POINT('Origin',(-19.6201845154332,8.86639370723598,18.796));
#1624=CARTESIAN_POINT('Origin',(-44.45,-14.7828,19.05));
#1625=CARTESIAN_POINT('',(-19.8599076607241,-17.7209258900677,0.25400000000007));
#1626=CARTESIAN_POINT('Origin',(-44.45,-14.7828,0.254000000000063));
#1627=CARTESIAN_POINT('',(-19.8599076607241,-17.7209258900677,18.796));
#1628=CARTESIAN_POINT('',(-19.8599076607241,-17.7209258900677,18.796));
#1629=CARTESIAN_POINT('Origin',(-44.45,-14.7828,18.796));
#1630=CARTESIAN_POINT('Origin',(-10.4021798379257,-18.8509743093245,19.05));
#1631=CARTESIAN_POINT('',(-13.4080509284173,-9.8127021300113,0.25400000000007));
#1632=CARTESIAN_POINT('Origin',(-10.4021798379257,-18.8509743093245,0.254000000000063));
#1633=CARTESIAN_POINT('',(-13.4080509284173,-9.8127021300113,18.796));
#1634=CARTESIAN_POINT('',(-13.4080509284173,-9.8127021300113,18.796));
#1635=CARTESIAN_POINT('Origin',(-10.4021798379257,-18.8509743093245,18.796));
#1636=CARTESIAN_POINT('Origin',(-10.6857817031503,-8.90735316480821,19.05));
#1637=CARTESIAN_POINT('',(-10.6857817031503,-8.90735316480821,0.25400000000007));
#1638=CARTESIAN_POINT('',(-13.4080509284173,-9.8127021300113,0.254000000000063));
#1639=CARTESIAN_POINT('',(-10.6857817031503,-8.90735316480821,18.796));
#1640=CARTESIAN_POINT('',(-10.6857817031503,-8.90735316480821,18.796));
#1641=CARTESIAN_POINT('',(-10.6857817031503,-8.90735316480821,18.796));
#1642=CARTESIAN_POINT('Origin',(-7.67991061265868,-17.9456253441214,19.05));
#1643=CARTESIAN_POINT('',(-3.93239404825139,-9.1888140181025,0.25400000000007));
#1644=CARTESIAN_POINT('Origin',(-7.67991061265868,-17.9456253441214,0.254000000000063));
#1645=CARTESIAN_POINT('',(-3.93239404825139,-9.1888140181025,18.796));
#1646=CARTESIAN_POINT('',(-3.93239404825139,-9.1888140181025,18.796));
#1647=CARTESIAN_POINT('Origin',(-7.67991061265868,-17.9456253441214,18.796));
#1648=CARTESIAN_POINT('Origin',(0.,0.,19.05));
#1649=CARTESIAN_POINT('',(3.93239404825139,-9.1888140181025,0.25400000000007));
#1650=CARTESIAN_POINT('Origin',(0.,0.,0.254000000000063));
#1651=CARTESIAN_POINT('',(3.93239404825139,-9.1888140181025,18.796));
#1652=CARTESIAN_POINT('',(3.93239404825139,-9.1888140181025,18.796));
#1653=CARTESIAN_POINT('Origin',(0.,0.,18.796));
#1654=CARTESIAN_POINT('Origin',(7.67991061265869,-17.9456253441214,19.05));
#1655=CARTESIAN_POINT('',(10.6857817031503,-8.90735316480821,0.25400000000007));
#1656=CARTESIAN_POINT('Origin',(7.67991061265869,-17.9456253441214,0.254000000000063));
#1657=CARTESIAN_POINT('',(10.6857817031503,-8.90735316480821,18.796));
#1658=CARTESIAN_POINT('',(10.6857817031503,-8.90735316480821,18.796));
#1659=CARTESIAN_POINT('Origin',(7.67991061265869,-17.9456253441214,18.796));
#1660=CARTESIAN_POINT('Origin',(10.6857817031503,-8.90735316480821,19.05));
#1661=CARTESIAN_POINT('',(10.6857817031503,-8.90735316480821,0.254000000000063));
#1662=CARTESIAN_POINT('',(13.4080509284173,-9.8127021300113,18.796));
#1663=CARTESIAN_POINT('Origin',(10.4021798379257,-18.8509743093245,19.05));
#1664=CARTESIAN_POINT('',(13.4882074908304,-9.57168153856299,19.05));
#1665=CARTESIAN_POINT('',(20.1121137359987,-17.6907912655542,19.05));
#1666=CARTESIAN_POINT('Origin',(10.4021798379257,-18.8509743093245,19.05));
#1667=CARTESIAN_POINT('',(26.7012800425134,2.1219940203576,19.05));
#1668=CARTESIAN_POINT('Origin',(44.45,-14.7828,19.05));
#1669=CARTESIAN_POINT('',(16.5341568625286,-0.412899063525536,19.05));
#1670=CARTESIAN_POINT('Origin',(19.6201845154333,8.86639370723598,19.05));
#1671=CARTESIAN_POINT('',(13.8118876372615,0.492449901677559,19.05));
#1672=CARTESIAN_POINT('',(16.5341568625286,-0.412899063525533,19.05));
#1673=CARTESIAN_POINT('',(8.43246651109795,4.87633482743058,19.05));
#1674=CARTESIAN_POINT('Origin',(16.8979152901662,9.77174267243907,19.05));
#1675=CARTESIAN_POINT('',(-8.43246651109795,4.87633482743057,19.05));
#1676=CARTESIAN_POINT('Origin',(0.,0.,19.05));
#1677=CARTESIAN_POINT('',(-13.8118876372615,0.492449901677554,19.05));
#1678=CARTESIAN_POINT('Origin',(-16.8979152901662,9.77174267243907,19.05));
#1679=CARTESIAN_POINT('',(-16.5341568625286,-0.412899063525533,19.05));
#1680=CARTESIAN_POINT('',(-13.8118876372615,0.49244990167755,19.05));
#1681=CARTESIAN_POINT('',(-26.7012800425134,2.1219940203576,19.05));
#1682=CARTESIAN_POINT('Origin',(-19.6201845154332,8.86639370723598,19.05));
#1683=CARTESIAN_POINT('',(-20.1121137359987,-17.6907912655542,19.05));
#1684=CARTESIAN_POINT('Origin',(-44.45,-14.7828,19.05));
#1685=CARTESIAN_POINT('',(-13.4882074908304,-9.57168153856298,19.05));
#1686=CARTESIAN_POINT('Origin',(-10.4021798379257,-18.8509743093245,19.05));
#1687=CARTESIAN_POINT('',(-10.7659382655634,-8.6663325733599,19.05));
#1688=CARTESIAN_POINT('',(-13.4882074908304,-9.57168153856299,19.05));
#1689=CARTESIAN_POINT('',(-3.83246027320054,-8.9552990494087,19.05));
#1690=CARTESIAN_POINT('Origin',(-7.67991061265868,-17.9456253441214,19.05));
#1691=CARTESIAN_POINT('',(3.83246027320054,-8.9552990494087,19.05));
#1692=CARTESIAN_POINT('Origin',(0.,0.,19.05));
#1693=CARTESIAN_POINT('',(10.7659382655634,-8.6663325733599,19.05));
#1694=CARTESIAN_POINT('Origin',(7.67991061265869,-17.9456253441214,19.05));
#1695=CARTESIAN_POINT('',(10.7659382655634,-8.6663325733599,19.05));
#1696=CARTESIAN_POINT('',(-62.23,-14.7828,19.05));
#1697=CARTESIAN_POINT('Origin',(-44.45,-14.7828,19.05));
#1698=CARTESIAN_POINT('',(26.924,-14.7828,19.05));
#1699=CARTESIAN_POINT('Origin',(44.45,-14.7828,19.05));
#1700=CARTESIAN_POINT('Origin',(10.4021798379257,-18.8509743093245,0.));
#1701=CARTESIAN_POINT('',(-13.4882074908304,-9.57168153856288,0.));
#1702=CARTESIAN_POINT('',(-20.1121137359988,-17.6907912655542,0.));
#1703=CARTESIAN_POINT('Origin',(-10.4021798379257,-18.8509743093245,0.));
#1704=CARTESIAN_POINT('',(-26.7012800425134,2.12199402035753,0.));
#1705=CARTESIAN_POINT('Origin',(-44.45,-14.7828,0.));
#1706=CARTESIAN_POINT('',(-16.5341568625285,-0.412899063525636,0.));
#1707=CARTESIAN_POINT('Origin',(-19.6201845154332,8.86639370723598,0.));
#1708=CARTESIAN_POINT('',(-13.8118876372615,0.49244990167746,0.));
#1709=CARTESIAN_POINT('',(-16.5341568625285,-0.412899063525636,0.));
#1710=CARTESIAN_POINT('',(-8.43246651109786,4.87633482743052,0.));
#1711=CARTESIAN_POINT('Origin',(-16.8979152901662,9.77174267243907,0.));
#1712=CARTESIAN_POINT('',(8.43246651109786,4.87633482743053,0.));
#1713=CARTESIAN_POINT('Origin',(0.,0.,0.));
#1714=CARTESIAN_POINT('',(13.8118876372615,0.492449901677465,0.));
#1715=CARTESIAN_POINT('Origin',(16.8979152901662,9.77174267243907,0.));
#1716=CARTESIAN_POINT('',(16.5341568625285,-0.412899063525634,0.));
#1717=CARTESIAN_POINT('',(13.8118876372615,0.492449901677465,0.));
#1718=CARTESIAN_POINT('',(26.7012800425134,2.12199402035753,0.));
#1719=CARTESIAN_POINT('Origin',(19.6201845154333,8.86639370723598,0.));
#1720=CARTESIAN_POINT('',(20.1121137359988,-17.6907912655542,0.));
#1721=CARTESIAN_POINT('Origin',(44.45,-14.7828,0.));
#1722=CARTESIAN_POINT('',(13.4882074908304,-9.57168153856289,0.));
#1723=CARTESIAN_POINT('Origin',(10.4021798379257,-18.8509743093245,0.));
#1724=CARTESIAN_POINT('',(10.7659382655634,-8.6663325733598,0.));
#1725=CARTESIAN_POINT('',(13.4882074908304,-9.57168153856289,0.));
#1726=CARTESIAN_POINT('',(3.8324602732005,-8.95529904940861,0.));
#1727=CARTESIAN_POINT('Origin',(7.67991061265869,-17.9456253441214,0.));
#1728=CARTESIAN_POINT('',(-3.8324602732005,-8.95529904940861,0.));
#1729=CARTESIAN_POINT('Origin',(0.,0.,0.));
#1730=CARTESIAN_POINT('',(-10.7659382655634,-8.6663325733598,0.));
#1731=CARTESIAN_POINT('Origin',(-7.67991061265868,-17.9456253441214,0.));
#1732=CARTESIAN_POINT('',(-10.7659382655634,-8.6663325733598,0.));
#1733=CARTESIAN_POINT('',(-51.435,-14.7828,0.));
#1734=CARTESIAN_POINT('Origin',(-44.45,-14.7828,0.));
#1735=CARTESIAN_POINT('',(37.465,-14.7828,0.));
#1736=CARTESIAN_POINT('Origin',(44.45,-14.7828,0.));
#1737=CARTESIAN_POINT('Origin',(44.45,-14.7828,0.254000000000063));
#1738=CARTESIAN_POINT('',(20.1121137359988,-17.6907912655542,0.));
#1739=CARTESIAN_POINT('',(26.5173554833685,2.29717323300377,0.254000000000064));
#1740=CARTESIAN_POINT('Origin',(19.6201845154333,8.86639370723598,0.254000000000063));
#1741=CARTESIAN_POINT('',(16.6143134249417,-0.171878472077219,0.254000000000067));
#1742=CARTESIAN_POINT('Origin',(10.4021798379257,-18.8509743093245,0.254000000000063));
#1743=CARTESIAN_POINT('',(13.4882074908304,-9.57168153856289,0.));
#1744=CARTESIAN_POINT('Origin',(13.8920441996746,0.733470493125873,0.254000000000063));
#1745=CARTESIAN_POINT('',(13.8920441996746,0.733470493125876,0.254000000000067));
#1746=CARTESIAN_POINT('Origin',(10.6857817031503,-8.90735316480821,0.254000000000063));
#1747=CARTESIAN_POINT('',(10.7659382655634,-8.6663325733598,0.));
#1748=CARTESIAN_POINT('Origin',(16.8979152901662,9.77174267243907,0.254000000000063));
#1749=CARTESIAN_POINT('',(8.65234829756722,5.00348827795026,0.254000000000069));
#1750=CARTESIAN_POINT('Origin',(7.67991061265869,-17.9456253441214,0.254000000000063));
#1751=CARTESIAN_POINT('',(3.8324602732005,-8.95529904940861,0.));
#1752=CARTESIAN_POINT('Origin',(0.,0.,0.254000000000063));
#1753=CARTESIAN_POINT('',(-8.65234829756723,5.00348827795026,0.254000000000066));
#1754=CARTESIAN_POINT('Origin',(0.,0.,0.254000000000063));
#1755=CARTESIAN_POINT('',(-3.8324602732005,-8.95529904940861,0.));
#1756=CARTESIAN_POINT('Origin',(-16.8979152901662,9.77174267243907,0.254000000000063));
#1757=CARTESIAN_POINT('',(-13.8920441996746,0.733470493125875,0.254000000000066));
#1758=CARTESIAN_POINT('Origin',(-7.67991061265868,-17.9456253441214,0.254000000000063));
#1759=CARTESIAN_POINT('',(-10.7659382655634,-8.6663325733598,0.));
#1760=CARTESIAN_POINT('Origin',(-13.8920441996746,0.733470493125871,0.254000000000063));
#1761=CARTESIAN_POINT('',(-16.6143134249416,-0.171878472077215,0.254000000000066));
#1762=CARTESIAN_POINT('Origin',(-10.6857817031503,-8.90735316480821,0.254000000000063));
#1763=CARTESIAN_POINT('',(-13.4882074908304,-9.57168153856288,0.));
#1764=CARTESIAN_POINT('Origin',(-19.6201845154332,8.86639370723598,0.254000000000063));
#1765=CARTESIAN_POINT('',(-26.5173554833684,2.29717323300377,0.254000000000067));
#1766=CARTESIAN_POINT('Origin',(-10.4021798379257,-18.8509743093245,0.254000000000063));
#1767=CARTESIAN_POINT('',(-20.1121137359988,-17.6907912655542,0.));
#1768=CARTESIAN_POINT('Origin',(-44.45,-14.7828,0.254000000000063));
#1769=CARTESIAN_POINT('Origin',(-44.45,-14.7828,19.05));
#1770=CARTESIAN_POINT('',(-26.5173554833684,2.29717323300376,18.796));
#1771=CARTESIAN_POINT('',(-20.1121137359987,-17.6907912655542,19.05));
#1772=CARTESIAN_POINT('Origin',(-10.4021798379257,-18.8509743093245,19.05));
#1773=CARTESIAN_POINT('',(-13.4882074908304,-9.57168153856298,19.05));
#1774=CARTESIAN_POINT('Origin',(-19.6201845154332,8.86639370723598,19.05));
#1775=CARTESIAN_POINT('',(-16.6143134249416,-0.17187847207722,18.796));
#1776=CARTESIAN_POINT('Origin',(5.24426984888466,-3.34179478901204,19.05));
#1777=CARTESIAN_POINT('',(-10.7659382655634,-8.6663325733599,19.05));
#1778=CARTESIAN_POINT('Origin',(2.1983204771865,5.81698768602541,19.05));
#1779=CARTESIAN_POINT('',(-13.8920441996746,0.733470493125871,18.796));
#1780=CARTESIAN_POINT('Origin',(-7.67991061265868,-17.9456253441214,19.05));
#1781=CARTESIAN_POINT('',(-3.83246027320054,-8.9552990494087,19.05));
#1782=CARTESIAN_POINT('Origin',(-16.8979152901662,9.77174267243907,19.05));
#1783=CARTESIAN_POINT('',(-8.65234829756722,5.00348827795025,18.796));
#1784=CARTESIAN_POINT('Origin',(0.,0.,19.05));
#1785=CARTESIAN_POINT('',(3.83246027320054,-8.9552990494087,19.05));
#1786=CARTESIAN_POINT('Origin',(0.,0.,19.05));
#1787=CARTESIAN_POINT('',(8.65234829756722,5.00348827795026,18.796));
#1788=CARTESIAN_POINT('Origin',(7.67991061265869,-17.9456253441214,19.05));
#1789=CARTESIAN_POINT('',(10.7659382655634,-8.6663325733599,19.05));
#1790=CARTESIAN_POINT('Origin',(16.8979152901662,9.77174267243907,19.05));
#1791=CARTESIAN_POINT('',(13.8920441996746,0.733470493125874,18.796));
#1792=CARTESIAN_POINT('Origin',(13.4882074908304,-9.57168153856299,19.05));
#1793=CARTESIAN_POINT('',(13.4882074908304,-9.57168153856299,19.05));
#1794=CARTESIAN_POINT('Origin',(16.5341568625286,-0.412899063525533,19.05));
#1795=CARTESIAN_POINT('',(16.6143134249417,-0.171878472077223,18.796));
#1796=CARTESIAN_POINT('Origin',(10.4021798379257,-18.8509743093245,19.05));
#1797=CARTESIAN_POINT('',(20.1121137359987,-17.6907912655542,19.05));
#1798=CARTESIAN_POINT('Origin',(19.6201845154333,8.86639370723598,19.05));
#1799=CARTESIAN_POINT('',(26.5173554833685,2.29717323300376,18.796));
#1800=CARTESIAN_POINT('Origin',(44.45,-14.7828,19.05));
#1801=CARTESIAN_POINT('Origin',(44.45,-14.7828,6.35));
#1802=CARTESIAN_POINT('',(26.924,-14.7828,16.51));
#1803=CARTESIAN_POINT('Origin',(44.45,-14.7828,16.51));
#1804=CARTESIAN_POINT('',(26.924,-14.7828,6.35));
#1805=CARTESIAN_POINT('Origin',(44.45,-14.7828,6.35));
#1806=CARTESIAN_POINT('',(36.195,-14.7828,6.35));
#1807=CARTESIAN_POINT('Origin',(44.45,-14.7828,6.35));
#1808=CARTESIAN_POINT('Origin',(-44.45,-14.7828,6.35));
#1809=CARTESIAN_POINT('',(-61.976,-14.7828,16.51));
#1810=CARTESIAN_POINT('Origin',(-44.45,-14.7828,16.51));
#1811=CARTESIAN_POINT('',(-61.976,-14.7828,18.796));
#1812=CARTESIAN_POINT('',(-61.976,-14.7828,6.35));
#1813=CARTESIAN_POINT('Origin',(-44.45,-14.7828,18.796));
#1814=CARTESIAN_POINT('Origin',(-44.45,-14.7828,6.35));
#1815=CARTESIAN_POINT('',(-52.705,-14.7828,6.35));
#1816=CARTESIAN_POINT('Origin',(-44.45,-14.7828,6.35));
#1817=CARTESIAN_POINT('Origin',(44.45,-14.7828,-19.7565634663521));
#1818=CARTESIAN_POINT('',(37.465,-14.7828,5.07999999999998));
#1819=CARTESIAN_POINT('',(37.465,-14.7828,-19.7565634663521));
#1820=CARTESIAN_POINT('Origin',(44.45,-14.7828,5.07999999999998));
#1821=CARTESIAN_POINT('Origin',(-44.45,-14.7828,-19.7565634663521));
#1822=CARTESIAN_POINT('',(-51.435,-14.7828,5.07999999999998));
#1823=CARTESIAN_POINT('',(-51.435,-14.7828,-19.7565634663521));
#1824=CARTESIAN_POINT('Origin',(-44.45,-14.7828,5.07999999999998));
#1825=CARTESIAN_POINT('Origin',(44.45,-14.7828,5.07999999999998));
#1826=CARTESIAN_POINT('',(37.465,-14.7828,5.07999999999998));
#1827=CARTESIAN_POINT('Origin',(-44.45,-14.7828,5.07999999999998));
#1828=CARTESIAN_POINT('',(-51.435,-14.7828,5.07999999999998));
#1829=CARTESIAN_POINT('Origin',(-44.45,-14.7828,18.796));
#1830=CARTESIAN_POINT('',(-61.976,-14.7828,18.796));
#1831=CARTESIAN_POINT('Origin',(-44.45,-14.7828,16.51));
#1832=CARTESIAN_POINT('',(-24.13,-14.7828,16.51));
#1833=CARTESIAN_POINT('Origin',(-44.45,-14.7828,16.51));
#1834=CARTESIAN_POINT('Origin',(-44.45,-14.7828,13.335));
#1835=CARTESIAN_POINT('',(-24.13,-14.7828,13.335));
#1836=CARTESIAN_POINT('Origin',(-44.45,-14.7828,13.335));
#1837=CARTESIAN_POINT('Origin',(-44.45,-14.7828,16.51));
#1838=CARTESIAN_POINT('',(-24.13,-14.7828,16.51));
#1839=CARTESIAN_POINT('Origin',(44.45,-14.7828,16.51));
#1840=CARTESIAN_POINT('',(64.77,-14.7828,16.51));
#1841=CARTESIAN_POINT('Origin',(44.45,-14.7828,16.51));
#1842=CARTESIAN_POINT('Origin',(44.45,-14.7828,13.335));
#1843=CARTESIAN_POINT('',(64.77,-14.7828,13.335));
#1844=CARTESIAN_POINT('Origin',(44.45,-14.7828,13.335));
#1845=CARTESIAN_POINT('Origin',(44.45,-14.7828,16.51));
#1846=CARTESIAN_POINT('',(64.77,-14.7828,16.51));
#1847=CARTESIAN_POINT('',(0.,0.,0.));
#1848=CARTESIAN_POINT('',(0.,0.,0.));
#1849=CARTESIAN_POINT('',(0.,0.,0.));
#1850=CARTESIAN_POINT('',(0.,0.,0.));
#1851=UNCERTAINTY_MEASURE_WITH_UNIT(LENGTH_MEASURE(0.01),#1861,
'DISTANCE_ACCURACY_VALUE',
'Maximum model space distance between geometric entities at asserted c
onnectivities');
#1852=UNCERTAINTY_MEASURE_WITH_UNIT(LENGTH_MEASURE(0.01),#1861,
'DISTANCE_ACCURACY_VALUE',
'Maximum model space distance between geometric entities at asserted c
onnectivities');
#1853=UNCERTAINTY_MEASURE_WITH_UNIT(LENGTH_MEASURE(0.01),#1861,
'DISTANCE_ACCURACY_VALUE',
'Maximum model space distance between geometric entities at asserted c
onnectivities');
#1854=UNCERTAINTY_MEASURE_WITH_UNIT(LENGTH_MEASURE(0.01),#1861,
'DISTANCE_ACCURACY_VALUE',
'Maximum model space distance between geometric entities at asserted c
onnectivities');
#1855=UNCERTAINTY_MEASURE_WITH_UNIT(LENGTH_MEASURE(0.01),#1861,
'DISTANCE_ACCURACY_VALUE',
'Maximum model space distance between geometric entities at asserted c
onnectivities');
#1856=(
GEOMETRIC_REPRESENTATION_CONTEXT(3)
GLOBAL_UNCERTAINTY_ASSIGNED_CONTEXT((#1851))
GLOBAL_UNIT_ASSIGNED_CONTEXT((#1861,#1863,#1864))
REPRESENTATION_CONTEXT('','3D')
);
#1857=(
GEOMETRIC_REPRESENTATION_CONTEXT(3)
GLOBAL_UNCERTAINTY_ASSIGNED_CONTEXT((#1852))
GLOBAL_UNIT_ASSIGNED_CONTEXT((#1861,#1863,#1864))
REPRESENTATION_CONTEXT('','3D')
);
#1858=(
GEOMETRIC_REPRESENTATION_CONTEXT(3)
GLOBAL_UNCERTAINTY_ASSIGNED_CONTEXT((#1853))
GLOBAL_UNIT_ASSIGNED_CONTEXT((#1861,#1863,#1864))
REPRESENTATION_CONTEXT('','3D')
);
#1859=(
GEOMETRIC_REPRESENTATION_CONTEXT(3)
GLOBAL_UNCERTAINTY_ASSIGNED_CONTEXT((#1854))
GLOBAL_UNIT_ASSIGNED_CONTEXT((#1861,#1863,#1864))
REPRESENTATION_CONTEXT('','3D')
);
#1860=(
GEOMETRIC_REPRESENTATION_CONTEXT(3)
GLOBAL_UNCERTAINTY_ASSIGNED_CONTEXT((#1855))
GLOBAL_UNIT_ASSIGNED_CONTEXT((#1861,#1863,#1864))
REPRESENTATION_CONTEXT('','3D')
);
#1861=(
LENGTH_UNIT()
NAMED_UNIT(*)
SI_UNIT(.MILLI.,.METRE.)
);
#1862=(
LENGTH_UNIT()
NAMED_UNIT(*)
SI_UNIT($,.METRE.)
);
#1863=(
NAMED_UNIT(*)
PLANE_ANGLE_UNIT()
SI_UNIT($,.RADIAN.)
);
#1864=(
NAMED_UNIT(*)
SI_UNIT($,.STERADIAN.)
SOLID_ANGLE_UNIT()
);
#1865=SHAPE_DEFINITION_REPRESENTATION(#1869,#1876);
#1866=SHAPE_DEFINITION_REPRESENTATION(#1870,#1877);
#1867=SHAPE_DEFINITION_REPRESENTATION(#1871,#1878);
#1868=SHAPE_DEFINITION_REPRESENTATION(#1873,#1879);
#1869=PRODUCT_DEFINITION_SHAPE('',$,#1881);
#1870=PRODUCT_DEFINITION_SHAPE('',$,#1882);
#1871=PRODUCT_DEFINITION_SHAPE('',$,#1883);
#1872=PRODUCT_DEFINITION_SHAPE($,$,#20);
#1873=PRODUCT_DEFINITION_SHAPE('',$,#1884);
#1874=PRODUCT_DEFINITION_SHAPE($,$,#21);
#1875=PRODUCT_DEFINITION_SHAPE($,$,#22);
#1876=SHAPE_REPRESENTATION('',(#1054,#1193,#1194),#1856);
#1877=SHAPE_REPRESENTATION('',(#1055,#1191),#1857);
#1878=SHAPE_REPRESENTATION('',(#1056),#1858);
#1879=SHAPE_REPRESENTATION('',(#1192),#1859);
#1880=PRODUCT_DEFINITION_CONTEXT('part definition',#1894,'design');
#1881=PRODUCT_DEFINITION('CAM Root','CAM Root',#1885,#1880);
#1882=PRODUCT_DEFINITION('CAM Component','CAM Component',#1886,#1880);
#1883=PRODUCT_DEFINITION('Titan-M8','Titan-M8 v2',#1887,#1880);
#1884=PRODUCT_DEFINITION('Machines','Machines',#1888,#1880);
#1885=PRODUCT_DEFINITION_FORMATION('',$,#1896);
#1886=PRODUCT_DEFINITION_FORMATION('',$,#1897);
#1887=PRODUCT_DEFINITION_FORMATION('',$,#1898);
#1888=PRODUCT_DEFINITION_FORMATION('',$,#1899);
#1889=PRODUCT_RELATED_PRODUCT_CATEGORY('CAM Root','CAM Root',(#1896));
#1890=PRODUCT_RELATED_PRODUCT_CATEGORY('CAM Component','CAM Component',
(#1897));
#1891=PRODUCT_RELATED_PRODUCT_CATEGORY('Titan-M8 v2','Titan-M8 v2',(#1898));
#1892=PRODUCT_RELATED_PRODUCT_CATEGORY('Machines','Machines',(#1899));
#1893=APPLICATION_PROTOCOL_DEFINITION('international standard',
'automotive_design',2009,#1894);
#1894=APPLICATION_CONTEXT(
'Core Data for Automotive Mechanical Design Process');
#1895=PRODUCT_CONTEXT('part definition',#1894,'mechanical');
#1896=PRODUCT('CAM Root','CAM Root',$,(#1895));
#1897=PRODUCT('CAM Component','CAM Component',$,(#1895));
#1898=PRODUCT('Titan-M8','Titan-M8 v2',$,(#1895));
#1899=PRODUCT('Machines','Machines',$,(#1895));
#1900=PRESENTATION_STYLE_ASSIGNMENT((#1901));
#1901=SURFACE_STYLE_USAGE(.BOTH.,#1902);
#1902=SURFACE_SIDE_STYLE('',(#1903));
#1903=SURFACE_STYLE_FILL_AREA(#1904);
#1904=FILL_AREA_STYLE('Steel - Satin',(#1905));
#1905=FILL_AREA_STYLE_COLOUR('Steel - Satin',#1906);
#1906=COLOUR_RGB('Steel - Satin',0.627450980392157,0.627450980392157,0.627450980392157);
ENDSEC;
END-ISO-10303-21;
